<ttFont>
          <CharString index="0">
            197 179 rmoveto
            6 227 1 26 10 11 34 3 rlinecurve
            6 59 rlineto
            -81 callgsubr
            8 22 5 -8 -34 vhcurveto
            -245 vlineto
            -113 62 -54 132 139 75 64 120 vhcurveto
            234 vlineto
            24 7 5 39 9 vhcurveto
            5 58 rlineto
            0 -59 -4 -44 -31 -66 -62 callgsubr
            19 5 -9 -33 1 vhcurveto
            0 2 -192 -50 vvcurveto
            -61 -30 -30 -60 -60 -33 41 68 vhcurveto
            return
          </CharString>
          <CharString index="1">
            rmoveto
            -26 77 -12 5 rlineto
            0 -115 -57 -108 -47 vhcurveto
            13 -47 13 -9 rlineto
            114 36 115 29 -39 callsubr
          </CharString>
          <CharString index="2">
            247 139 rmoveto
            27 1 40 2 73 vhcurveto
            2 17 29 4 30 hhcurveto
            50 80 -3 0 hvcurveto
            14 86 -8 -13 callsubr
            -83 -8 -33 vhcurveto
            -29 -43 1 -21 hhcurveto
            7 155 rlineto
            30 1 5 3 47 hhcurveto
            112 14 -8 -55 -14 -2 -26 0 hvcurveto
            92 6 rlineto
            5 93 18 89 0 vvcurveto
            -8 11 rlineto
            -8 -61 -101 -4 -142 hhcurveto
            -75 -110 3 0 hvcurveto
            -8 -61 7 -9 rlineto
            return
          </CharString>
          <CharString index="3">
            rmoveto
            -16 4 -47 -23 -50 -23 -29 -12 rlinecurve
            -28 12 -53 23 -46 23 -16 -4 rcurveline
            -24 -41 rlineto
            74 -54 83 -70 0 vvcurveto
            20 hlineto
            0 82 70 75 54 vhcurveto
            endchar
          </CharString>
          <CharString index="4">
            rmoveto
            40 -12 callsubr
            -21 25 -38 -41 -44 callsubr
            39 hvcurveto
            -179 hmoveto
            41 -12 callsubr
            -22 25 -38 -40 -44 callsubr
            38 hvcurveto
            endchar
          </CharString>
          <CharString index="5">
            rmoveto
            16 -4 47 23 50 23 29 12 rlinecurve
            28 -12 53 -23 46 -23 16 4 rcurveline
            24 41 rlineto
            -74 56 -83 71 -3 vvcurveto
            -20 hlineto
            0 -82 -69 -75 -55 vhcurveto
            endchar
          </CharString>
          <CharString index="6">
            340 75 rmoveto
            -99 -58 93 176 137 54 76 91 103 59 -92 -177 -136 -56 -77 -94 hvcurveto
            -25 -87 rmoveto
            199 132 141 212 195 -108 118 -182 -198 -130 -139 -211 -195 109 -121 178 hvcurveto
            return
          </CharString>
          <CharString index="7">
            hstemhm
            hintmask 01101000
            211 425 rmoveto
            16 12 6 33 1 vhcurveto
            6 50 26 callsubr
            -95 -6 -41 -32 -79 2 -20 callsubr
            -56 3 -4 47 -12 20 -21 23 -41 rlinecurve
            83 -150 rlineto
            18 -34 5 -18 -25 vvcurveto
            -20 vlineto
            -51 -11 -12 -66 -7 vhcurveto
            -6 -59 rlineto
            hintmask 10011000
            0 90 8 48 44 101 15 callgsubr
            60 -2 4 rlineto
            0 -24 -2 -18 -30 -10 13 37 1 vhcurveto
            47 0 22 14 28 vhcurveto
            78 140 31 54 24 29 43 16 rlinecurve
            6 53 -3 6 rlineto
            hintmask 10101000
            0 -48 -3 -39 vhcurveto
            hintmask 10011000
            -38 -50 3 -27 hhcurveto
            -6 -51 rlineto
            hintmask 10101000
            2 -4 rlineto
            28 -1 12 -5 -11 vvcurveto
            -8 -5 -14 -7 -14 vhcurveto
            -57 -115 rlineto
            -9 hlineto
            -10 25 -54 104 16 vvcurveto
            return
          </CharString>
          <CharString index="8">
            hstemhm
            hintmask 10111000
            552 132 rmoveto
            -53 169 -90 347 0 vvcurveto
            -11 5 -159 -16 -178 -507 -16 -44 -18 -17 -31 -5 rlinecurve
            -8 -67 rlineto
            0 67 3 54 64 82 -6 -21 callgsubr
            63 -4 7 rlineto
            -43 hlineto
            -34 -12 7 23 7 2 10 4 14 hvcurveto
            25 75 rlineto
            3 24 39 4 32 hhcurveto
            23 42 0 -1 26 hvcurveto
            20 -76 rlineto
            3 -14 2 -11 -8 vvcurveto
            -25 -12 -6 -65 -6 vhcurveto
            -5 -60 rlineto
            hintmask 01111000
            -35 callgsubr
            hintmask 10111000
            -96 callsubr
            return
          </CharString>
          <CharString index="9">
            -56 24 -52 21 37 vvcurveto
            29 30 20 43 52 23 -18 -43 -11 -1 -11 0 vhcurveto
            8 -6 70 6 rlineto
            6 70 15 64 -42 callsubr
            12 rlineto
            0 -61 21 -84 -135 -94 -65 -94 -76 65 -36 65 -30 vhcurveto
            61 -27 59 -20 -40 vvcurveto
            -31 -30 -20 -48 -63 -23 23 76 vhcurveto
            -77 -6 rlineto
            -2 -60 -13 -71 0 vvcurveto
            8 -12 rlineto
            0 60 -30 89 vhcurveto
            return
          </CharString>
          <CharString index="10">
            rmoveto
            0 115 -29 114 -36 vhcurveto
            14 9 13 47 rlineto
            -108 47 -115 57 0 vvcurveto
            -12 -5 -26 -77 rlineto
            endchar
          </CharString>
          <CharString index="11">
            0 83 8 86 44 79 -3 -21 callgsubr
            59 -4 7 -45 4 -19 18 -14 47 rlinecurve
            -256 378 rmoveto
            14 hlineto
            58 -220 rlineto
            -2 -21 -31 -2 -22 hhcurveto
            -70 hlineto
            return
          </CharString>
          <CharString index="12">
            hstem
            598 332 rmoveto
            -1 -52 -4 -50 vhcurveto
            -55 -60 2 -24 hhcurveto
            -11 -72 -35 callgsubr
            51 hlineto
            36 8 -9 -39 hvcurveto
            -93 vlineto
            0 -37 -26 -59 -107 -61 91 165 149 58 70 119 77 30 -21 -56 -29 -3 -25 0 vhcurveto
            99 6 rlineto
            6 104 20 80 -42 callsubr
            13 rlineto
            0 -110 25 -88 -222 -134 -133 -217 -196 114 -120 184 144 92 40 -17 callgsubr
            13 rlineto
            -5 19 -2 30 38 vvcurveto
            114 6 28 35 23 vhcurveto
            return
          </CharString>
          <CharString index="13">
            hstemhm
            hintmask 01101000
            227 552 rmoveto
            20 15 8 45 2 vhcurveto
            5 58 -5 -13 callsubr
            -109 -8 -51 -40 -89 3 -53 callgsubr
            -64 3 -5 62 -13 21 -27 30 -60 rlinecurve
            98 -191 rlineto
            23 -44 6 -24 -34 vvcurveto
            -30 vlineto
            -67 -12 -17 -78 -10 vhcurveto
            -7 -69 rlineto
            hintmask 10011000
            0 99 11 57 50 115 -4 -17 callgsubr
            69 50 callgsubr
            -28 -3 -22 -37 -11 16 49 1 vhcurveto
            1 73 -1 29 18 36 96 179 rcurveline
            42 76 23 34 56 18 7 61 rcurveline
            -4 7 rlineto
            hintmask 10101000
            0 -56 -4 -46 vhcurveto
            hintmask 10011000
            -44 -64 4 -25 hhcurveto
            -7 -58 rlineto
            hintmask 10101000
            2 -5 rlineto
            36 -2 15 -7 -14 vvcurveto
            -13 -5 -17 -9 -18 vhcurveto
            -79 -165 rlineto
            -10 hlineto
            -10 24 -75 159 23 vvcurveto
            return
          </CharString>
          <CharString index="14">
            -7 -58 8 -10 rlineto
            65 -7 16 -12 -43 vvcurveto
            -13 -395 -1 -40 -18 -18 -40 -5 rlinecurve
            -8 -67 rlineto
            0 69 8 54 43 86 -4 0 vhcurveto
            10 64 -6 -27 callsubr
            -32 -3 -11 -25 -9 12 33 vhcurveto
            1 308 rlineto
            10 hlineto
            0 136 -196 155 -248 vhcurveto
            106 13 13 531 1 40 18 17 44 6 rlinecurve
            5 67 rlineto
            return
          </CharString>
          <CharString index="15">
            hstem
            274 -9 rmoveto
            103 82 31 0 hvcurveto
            9 10 rlineto
            2 68 13 84 0 vvcurveto
            -93 -6 rlineto
            -73 -11 -29 -29 -54 hhcurveto
            -79 -44 66 123 111 39 49 78 57 25 -19 -44 -22 -1 -20 0 hvcurveto
            92 5 rlineto
            6 87 17 67 0 vvcurveto
            -6 11 rlineto
            0 -92 20 -70 -178 -111 -103 -169 -154 93 -93 152 vhcurveto
            return
          </CharString>
          <CharString index="16">
            -84 callsubr
            hintmask 10101000
            -90 callgsubr
            return
          </CharString>
          <CharString index="17">
            0 16 1 11 -69 callsubr
            -12 -47 -9 -11 callgsubr
            return
          </CharString>
          <CharString index="18">
            0 -77 -6 -50 -59 -95 1 0 vhcurveto
            -14 -76 11 -12 rlineto
            0 80 1 59 vhcurveto
            141 1 12 77 rlineto
            endchar
          </CharString>
          <CharString index="19">
            102 132 -6 0 hvcurveto
            10 10 rlineto
            8 97 13 89 -42 callsubr
            9 -78 -7 rlineto
            -102 -12 -15 -20 -73 hhcurveto
            -38 -9 9 34 102 4 98 6 80 hvcurveto
            2 36 7 9 56 6 7 62 rcurveline
            return
          </CharString>
          <CharString index="20">
            -6 -51 7 -8 rlineto
            53 -6 13 -9 -34 vvcurveto
            -11 -296 -1 -32 -14 -13 -33 -4 rlinecurve
            -7 -58 rlineto
            0 60 6 48 35 76 -25 callsubr
            55 -6 5 rlineto
            0 -24 -2 -9 -22 -7 9 28 -1 vhcurveto
            207 9 vlineto
            return
          </CharString>
          <CharString index="21">
            rmoveto
            -43 62 -12 1 rlineto
            0 -77 -70 -74 -64 vhcurveto
            23 -34 14 -5 rlineto
            84 52 84 46 0 vvcurveto
            169 8 rmoveto
            -43 60 -12 2 rlineto
            0 -77 -70 -74 -64 vhcurveto
            24 -34 12 -4 rlineto
            84 52 85 46 -39 callsubr
          </CharString>
          <CharString index="22">
            rmoveto
            48 32 33 47 43 -26 29 -44 -48 -32 -33 -47 -42 24 -30 46 hvcurveto
            endchar
          </CharString>
          <CharString index="23">
            hstemhm
            hintmask 10101000
            -77 callgsubr
            hintmask 10011000
            -48 -66 -66 callgsubr
            hintmask 01101000
            -86 callgsubr
            return
          </CharString>
          <CharString index="24">
            190 577 rmoveto
            4 25 7 13 15 11 -9 23 rcurveline
            -1 -36 -6 -7 -63 hvcurveto
            -30 -4 -32 -4 -21 -2 -4 -42 rcurveline
            4 -5 11 callgsubr
            -6 -31 vhcurveto
            -197 vlineto
            -31 -18 -13 -41 -3 vhcurveto
            -5 -46 rlineto
            0 67 7 45 34 64 -25 callsubr
            49 -3 4 rlineto
            0 -15 -2 -15 -21 -8 13 30 87 3 99 5 39 vhcurveto
            return
          </CharString>
          <CharString index="25">
            hstem
            531 16 rmoveto
            4 98 21 131 0 vvcurveto
            -85 -7 -16 -103 -34 -45 -67 -6 rlinecurve
            -156 -11 49 76 142 224 170 226 rlinecurve
            -18 41 -293 3 -178 11 -10 -10 rlineto
            -3 -92 -14 -124 0 vvcurveto
            85 6 7 93 23 24 85 10 rlinecurve
            127 8 -351 -529 25 -45 75 8 395 -6 rlineto
            return
          </CharString>
          <CharString index="26">
            rmoveto
            -19 -26 11 31 22 13 14 26 30 16 -17 -25 -31 -25 -5 -15 hvcurveto
            -7 -53 rmoveto
            62 35 48 51 44 -24 43 -65 -58 -38 -41 -54 -54 31 -37 57 hvcurveto
            endchar
          </CharString>
          <CharString index="27">
            hstem
            455 13 rmoveto
            3 77 17 109 0 vvcurveto
            -78 -7 -12 -78 -26 -32 -55 -7 rlinecurve
            -118 -10 42 63 114 168 136 169 rlinecurve
            -17 35 -249 2 -147 9 -9 -8 rlineto
            -2 -73 -11 -101 0 vvcurveto
            79 5 4 70 17 17 68 8 rlinecurve
            94 7 -283 -402 22 -38 64 6 332 -4 rlineto
            return
          </CharString>
          <CharString index="28">
            3 1 98 6 60 hhcurveto
            38 84 -3 0 hvcurveto
            -43 callgsubr
            -17 -3 -19 -31 -7 13 55 vhcurveto
            2 141 rlineto
            0 113 10 27 36 72 -1 0 vhcurveto
            -127 vlineto
            -72 -16 -19 -56 -1 vhcurveto
            -8 -66 rlineto
            0 99 2 40 63 83 33 callsubr
            26 callsubr
            -19 -3 -17 -32 -10 15 52 return
          </CharString>
          <CharString index="29">
            -20 hstemhm
            hintmask 01001010
            -75 callsubr
            hintmask 10000110
            -23 callsubr
            hintmask 00101010
            -65 callgsubr
            hintmask 10010010
            -67 callsubr
            return
          </CharString>
          <CharString index="30">
            50 -9 76 -46 -21 218 60 150 77 -61 61 -4 -20 hstemhm
            hintmask 10101000
            285 -9 rmoveto
            170 117 113 167 148 -98 86 -168 hvcurveto
            hintmask 10100100
            0 -100 -4 -32 -33 -77 2 -20 callsubr
            -53 -35 callgsubr
            hintmask 01101000
            0 16 2 10 20 5 -9 -33 vhcurveto
            -125 -89 vlineto
            -9 -53 7 -6 rlineto
            91 -90 hlineto
            -55 -10 -14 -48 -7 vhcurveto
            -6 -60 rlineto
            0 65 8 44 vhcurveto
            hintmask 10110000
            48 78 -9 0 hvcurveto
            -41 417 rmoveto
            15 5 5 17 112 49 -52 -130 -121 -44 -58 -90 -47 -12 10 41 vhcurveto
            1 100 rlineto
            95 hlineto
            6 54 -6 7 -93 -1 rlineto
            endchar
          </CharString>
          <CharString index="31">
            49 callsubr
            -46 callsubr
            -46 -56 4 0 vhcurveto
            -87 callsubr
            hintmask 01110000
            -62 callsubr
            -64 callgsubr
            return
          </CharString>
          <CharString index="32">
            277 190 rmoveto
            66 -130 rlineto
            -50 23 29 -22 39 hhcurveto
            105 8 7 46 -7 9 rlineto
            -32 -27 22 46 -30 hvcurveto
            -66 100 rlineto
            69 35 38 52 61 vvcurveto
            90 -71 48 -133 vhcurveto
            return
          </CharString>
          <CharString index="33">
            29 87 -34 34 hhcurveto
            16 4 79 97 rlineto
            10 vlineto
            -40 37 rlineto
            -11 hlineto
            0 -41 -52 -24 vhcurveto
            return
          </CharString>
          <CharString index="34">
            -20 hstem
            63 -68 rmoveto
            3 -10 60 -29 70 116 rlineto
            -13 35 40 -8 44 hhcurveto
            199 132 141 212 114 -37 88 -67 53 hvcurveto
            57 91 -3 13 -62 29 -59 -96 rlineto
            14 -35 -40 7 -44 hhcurveto
            -198 -130 -139 -211 -115 37 -88 67 -54 hvcurveto
            208 28 rmoveto
            -34 -29 11 21 -23 hvcurveto
            207 355 rlineto
            19 -44 10 -58 -72 vvcurveto
            -136 -56 -77 -94 vhcurveto
            -157 269 rmoveto
            137 54 76 91 33 29 -10 -19 23 vhcurveto
            -204 -353 rlineto
            -17 43 -9 56 70 vvcurveto
            return
          </CharString>
          <CharString index="35">
            9 69 -4 5 rlineto
            0 -23 -3 -30 -40 -15 18 50 148 5 191 6 89 vhcurveto
            101 -3 5 -11 15 -122 84 6 rcurveline
            0 -8 109 -2 100 vhcurveto
            return
          </CharString>
          <CharString index="36">
            -20 hstem
            45 -48 rmoveto
            2 -8 58 -31 64 94 rlineto
            -10 29 34 -6 37 hhcurveto
            165 107 106 168 87 -28 67 -52 41 hvcurveto
            50 74 -1 11 -60 30 -54 -80 rlineto
            10 -28 -32 5 -36 hhcurveto
            -166 -105 -104 -167 -87 27 -66 51 -43 hvcurveto
            181 25 rmoveto
            -26 -21 7 15 -17 hvcurveto
            158 249 rlineto
            10 -30 5 -39 -48 vvcurveto
            -102 -40 -52 -69 vhcurveto
            -115 204 rmoveto
            102 37 51 68 23 20 -7 -12 17 vhcurveto
            -154 -243 rlineto
            -7 29 -4 36 44 vvcurveto
            return
          </CharString>
          <CharString index="37">
            45 0 79 -68 -21 295 84 89 184 -84 84 -65 65 return
          </CharString>
          <CharString index="38">
            23 6 -8 -33 vhcurveto
            -289 vlineto
            -44 -11 return
          </CharString>
          <CharString index="39">
            -73 -12 74 457 79 hstem
            38 130 rmoveto
            -87 83 -55 103 123 92 81 105 75 -49 42 -55 32 vhcurveto
            40 21 50 43 71 vvcurveto
            86 -82 54 -91 -116 -85 -78 -91 -74 46 -44 53 -33 vhcurveto
            -45 -20 -67 -44 -84 vvcurveto
            203 -68 rmoveto
            -55 -39 43 51 51 34 26 23 14 hvcurveto
            62 -31 58 -25 -51 vvcurveto
            -46 -36 -32 -47 vhcurveto
            -73 391 rmoveto
            36 27 30 43 44 32 -30 -54 -42 -21 -25 -18 -15 vhcurveto
            -57 28 -50 24 48 vvcurveto
            endchar
          </CharString>
          <CharString index="40">
            -3 5 rlineto
            -53 2 -6 6 50 vvcurveto
            1 76 rlineto
            2 79 rmoveto
            1 45 2 44 4 55 rrcurveto
            14 3 3 11 79 37 -25 -53 -61 -43 -21 -23 -9 vhcurveto
            return
          </CharString>
          <CharString index="41">
            0 14 1 9 24 6 -8 -33 vhcurveto
            -1 -285 rlineto
            -46 -12 -16 -42 -6 vhcurveto
            -7 -59 rlineto
            return
          </CharString>
          <CharString index="42">
            99 115 rmoveto
            -45 -10 -10 -47 -8 vhcurveto
            -7 -54 rlineto
            0 73 2 47 36 88 39 callgsubr
            54 -4 6 rlineto
            0 -14 -2 -16 -25 -7 10 43 1 vhcurveto
            7 295 1 28 10 8 41 8 rlinecurve
            4 58 rlineto
            return
          </CharString>
          <CharString index="43">
            -6 10 43 vhcurveto
            1 100 rlineto
            0 89 8 22 27 51 -1 0 vhcurveto
            -93 vlineto
            -52 -13 -15 -44 -1 vhcurveto
            -7 -56 rlineto
            0 86 1 34 56 69 -2 0 vhcurveto
            8 54 -19 callgsubr
            -14 -2 -14 -26 -8 12 40 return
          </CharString>
          <CharString index="44">
            rmoveto
            -56 55 -38 72 84 63 53 71 48 -31 27 -34 20 vhcurveto
            26 14 31 26 45 vvcurveto
            55 -55 38 -65 -79 -60 -51 -61 -49 28 -29 34 -22 vhcurveto
            -29 -12 -40 -28 -51 vvcurveto
            136 -36 rmoveto
            -31 -22 23 31 26 15 14 12 9 hvcurveto
            38 -18 35 -15 -29 vvcurveto
            -25 -19 -16 -28 vhcurveto
            -39 241 rmoveto
            20 16 16 25 26 18 -17 -30 -22 -11 -14 -9 -10 vhcurveto
            -34 15 -31 15 27 vvcurveto
            endchar
          </CharString>
          <CharString index="45">
            0 104 -139 120 -177 vhcurveto
            103 10 11 405 1 31 14 13 37 5 rlinecurve
            4 58 rlineto
            return
          </CharString>
          <CharString index="46">
            0 19 2 12 14 8 -5 -17 3 vhcurveto
            -208 -425 -22 -43 -26 -27 -12 -3 rlinecurve
            5 -60 rlineto
            0 42 3 32 56 109 -5 -1 1 vhcurveto
            6 65 -33 5 rlineto
            -42 -13 5 19 8 3 11 8 18 hvcurveto
            45 97 84 16 87 11 12 -92 rlineto
            2 -18 2 -15 -16 vvcurveto
            -33 -15 -9 -68 -6 vhcurveto
            -67 257 rmoveto
            89 193 rlineto
            15 hlineto
            23 -181 -62 -8 rlineto
            return
          </CharString>
          <CharString index="47">
            -61 callgsubr
            78 return
          </CharString>
          <CharString index="48">
            -232 0 56 -41 -21 451 56 1 -20 return
          </CharString>
          <CharString index="49">
            rmoveto
            hintmask 10100000
            55 6 rlineto
            hintmask 01100000
            65 157 -6 0 hvcurveto
            11 9 rlineto
            4 55 14 77 0 vvcurveto
            -61 -5 rlineto
            hintmask 10100000
            -46 -7 -13 -13 -39 hhcurveto
            -57 hlineto
            -3 5 rlineto
            99 107 34 57 55 vvcurveto
            56 -48 38 -72 -51 -56 -33 29 callsubr
            35 26 30 18 -38 callsubr
          </CharString>
          <CharString index="50">
            0 66 6 67 vhcurveto
            33 hlineto
            110 138 -6 1 hvcurveto
            9 9 rlineto
            8 78 15 72 -42 callsubr
            9 -79 -6 rlineto
            -76 -11 -13 -12 -86 hhcurveto
            -32 -17 16 37 -6 hvcurveto
            -14 83 68 9 75 7 10 73 -9 10 -81 -17 -74 -10 -20 129 rlineto
            18 1 5 3 34 hhcurveto
            86 14 -6 -41 -11 -2 -20 0 hvcurveto
            85 6 rlineto
            4 73 15 73 0 vvcurveto
            return
          </CharString>
          <CharString index="51">
            rmoveto
            4 25 7 13 15 11 -9 24 rcurveline
            -1 -36 -6 -8 -63 hvcurveto
            -30 -4 -32 -4 -21 -2 -4 -42 rcurveline
            4 -5 11 callgsubr
            -5 -31 vhcurveto
            -197 vlineto
            -32 -18 -12 -41 -4 vhcurveto
            -5 -46 rlineto
            hintmask 10100000
            -12 callgsubr
          </CharString>
          <CharString index="52">
            -11 -11 rlineto
            -2 -98 -9 -117 0 vvcurveto
            84 6 13 114 6 13 108 3 rlinecurve
            return
          </CharString>
          <CharString index="53">
            -258 -101 -21 567 56 6 -31 callsubr
            91 98 rmoveto
            -98 -15 -34 -60 -45 vhcurveto
            -2 -10 25 -33 121 35 52 60 1 102 rlinecurve
            91 6 170 4 70 vhcurveto
            2 30 5 6 35 6 5 59 rcurveline
            hintmask 11000000
            0 -70 -5 -63 -1 vhcurveto
            -105 hlineto
            -7 -50 -35 callgsubr
            0 21 2 12 22 6 -8 -33 vhcurveto
            endchar
          </CharString>
          <CharString index="54">
            -6 -46 -85 -3 -101 -38 callgsubr
            -12 -15 -45 -7 vhcurveto
            -7 -59 rlineto
            return
          </CharString>
          <CharString index="55">
            2 0 hvcurveto
            -7 -52 7 -7 rlineto
            return
          </CharString>
          <CharString index="56">
            rmoveto
            16 -43 7 -4 rlineto
            0 235 58 196 vvcurveto
            86 -52 57 -81 -92 -58 -55 -81 -64 42 -48 69 vhcurveto
            15 4 20 9 14 7 4 -5 rcurveline
            -44 -85 -95 -32 0 vvcurveto
            116 168 rmoveto
            -31 -17 24 39 38 15 18 31 32 19 -28 -49 -9 -1 -9 -1 -9 hvcurveto
            -5 -9 -18 -10 -20 hhcurveto
            endchar
          </CharString>
          <CharString index="57">
            520 235 rmoveto
            0 -137 199 -130 212 vhcurveto
            0 -53 -4 -43 return
          </CharString>
          <CharString index="58">
            rmoveto
            -125 -20 -45 -75 -55 vhcurveto
            -2 -11 28 -41 139 45 60 78 1 132 rlinecurve
            109 7 227 5 91 vhcurveto
            3 39 6 7 43 8 return
          </CharString>
          <CharString index="59">
            -48 -50 -31 -34 -48 -45 25 -31 return
          </CharString>
          <CharString index="60">
            rmoveto
            20 -16 15 -26 -27 vvcurveto
            -35 -29 -41 -39 -26 -15 callgsubr
            -31 -17 -18 -23 vhcurveto
            return
          </CharString>
          <CharString index="61">
            432 208 rmoveto
            0 -107 143 -98 153 vhcurveto
            0 -49 -3 -37 return
          </CharString>
          <CharString index="62">
            -29 -87 33 -34 hhcurveto
            -16 -4 -79 -101 rlineto
            -11 vlineto
            40 -36 rlineto
            endchar
          </CharString>
          <CharString index="63">
            -27 -28 -39 -36 21 -25 return
          </CharString>
          <CharString index="64">
            -146 rmoveto
            0 -37 -24 -35 -30 -20 20 28 return
          </CharString>
          <CharString index="65">
            0 vvcurveto
            -7 return
          </CharString>
          <CharString index="66">
            vvcurveto
            -57 47 -34 72 vhcurveto
            50 17 52 49 0 vvcurveto
            return
          </CharString>
          <CharString index="67">
            rmoveto
            -100 -14 rlineto
            0 10 -113 -3 -115 vhcurveto
            15 -4 48 20 rlineto
            23 return
          </CharString>
          <CharString index="68">
            0 vvcurveto
            endchar
          </CharString>
          <CharString index="69">
            30 hhcurveto
            27 15 -12 -24 hvcurveto
            1 -32 -24 -42 -53 -62 -81 -87 rcurveline
            endchar
          </CharString>
          <CharString index="70">
            rmoveto
            -54 70 -14 1 rlineto
            0 -85 -91 -82 -80 vhcurveto
            30 -39 15 -4 rlineto
            93 69 96 60 -39 callsubr
          </CharString>
          <CharString index="71">
            5 -8 rlineto
            return
          </CharString>
          <CharString index="72">
            -87 9 -9 -10 rlineto
            -2 -80 -7 -99 0 vvcurveto
            77 5 return
          </CharString>
          <CharString index="73">
            0 -90 -5 -37 -37 -75 0 1 vhcurveto
            -7 -50 -36 callsubr
            0 16 1 9 24 6 -8 -33 vhcurveto
            -1 -109 rlineto
            -4 -28 -23 -1 -39 hhcurveto
            -97 2 5 105 2 38 6 7 40 6 rlinecurve
            return
          </CharString>
          <CharString index="74">
            0 -82 -7 -69 -1 vhcurveto
            -124 hlineto
            -8 -60 -35 callgsubr
            0 28 3 13 29 6 -10 -42 vhcurveto
            return
          </CharString>
          <CharString index="75">
            0 75 8 68 41 89 -25 callsubr
            68 -8 10 rlineto
            0 -31 -5 -21 -29 -6 9 40 vhcurveto
            return
          </CharString>
          <CharString index="76">
            -20 hstemhm
            hintmask 10100000
            return
          </CharString>
          <CharString index="77">
            -72 -21 81 100 143 102 -24 99 143 103 24 -20 hstemhm
            hintmask 11011100
            172 408 rmoveto
            -50 -41 23 55 41 27 24 53 61 32 -31 -46 -52 -38 -14 -44 hvcurveto
            -12 -99 rmoveto
            return
          </CharString>
          <CharString index="78">
            -28 -9 85 -85 190 141 188 -85 85 return
          </CharString>
          <CharString index="79">
            -40 -50 1 -28 hhcurveto
            -6 -50 -35 callgsubr
            return
          </CharString>
          <CharString index="80">
            7 rlineto
            0 return
          </CharString>
          <CharString index="81">
            -12 vhcurveto
            -7 -65 rlineto
            return
          </CharString>
          <CharString index="82">
            -3 -17 callgsubr
            return
          </CharString>
          <CharString index="83">
            -27 callsubr
            -69 -13 -67 -9 vhcurveto
            -5 -41 3 -4 rlineto
            10 hlineto
            25 7 -8 -30 hvcurveto
            return
          </CharString>
          <CharString index="84">
            0 -97 -4 -35 -33 -74 1 -53 callgsubr
            -52 6 -6 rlineto
            return
          </CharString>
          <CharString index="85">
            0 -9 79 375 56 return
          </CharString>
          <CharString index="86">
            14 77 0 vvcurveto
            -61 -5 rlineto
            hintmask 10110000
            -45 -7 -13 -14 -39 hhcurveto
            -57 hlineto
            -3 6 rlineto
            99 107 34 56 56 vvcurveto
            56 -48 37 -72 -51 -56 -32 -46 -32 vhcurveto
            13 return
          </CharString>
          <CharString index="87">
            0 vhcurveto
            -7 return
          </CharString>
          <CharString index="88">
            44 98 -4 1 hhcurveto
            6 55 -23 5 rlineto
            -35 -10 2 15 5 2 8 7 12 hvcurveto
            30 65 68 15 70 8 8 -63 rlineto
            1 -13 2 -9 -12 vvcurveto
            return
          </CharString>
          <CharString index="89">
            0 -137 -6 -80 -89 -145 1 0 vhcurveto
            -14 -90 return
          </CharString>
          <CharString index="90">
            46 0 67 -57 -21 593 59 4 -20 return
          </CharString>
          <CharString index="91">
            18 -9 77 357 85 return
          </CharString>
          <CharString index="92">
            7 -8 rlineto
            62 27 -14 -31 -29 -33 -21 -48 -21 -20 4 7 -17 hvcurveto
            return
          </CharString>
          <CharString index="93">
            96 -62 62 -62 96 18 -20 hstemhm
            return
          </CharString>
          <CharString index="94">
            9 rlineto
            0 return
          </CharString>
          <CharString index="95">
            27 28 40 35 return
          </CharString>
          <CharString index="96">
            201 -78 78 31 49 callsubr
            272 return
          </CharString>
          <CharString index="97">
            102 -12 94 167 78 102 225 -97 97 return
          </CharString>
          <CharString index="98">
            27 vhcurveto
            hintmask 10010100
            43 127 -39 50 hhcurveto
            19 4 91 102 rlineto
            10 vlineto
            -35 38 rlineto
            -11 hlineto
            0 -48 -57 -27 vhcurveto
            return
          </CharString>
          <CharString index="99">
            -7 9 37 callgsubr
            7 -5 -1 -170 -239 rlineto
            146 116 rmoveto
            7 -104 -78 hlineto
            endchar
          </CharString>
          <CharString index="100">
            0 17 1 return
          </CharString>
          <CharString index="101">
            0 70 -57 -21 453 29 callgsubr
            return
          </CharString>
          <CharString index="102">
            3 -8 64 -47 -21 32 -21 431 75 -60 60 -4 -20 return
          </CharString>
          <CharString index="103">
            50 84 14 1 14 1 14 hvcurveto
            10 14 return
          </CharString>
          <CharString index="104">
            97 -63 63 -63 96 23 -20 hstemhm
            return
          </CharString>
          <CharString index="105">
            56 1 38 callsubr
            return
          </CharString>
          <CharString index="106">
            81 -77 36 -68 29 return
          </CharString>
          <CharString index="107">
            rmoveto
            -23 70 -11 4 rlineto
            0 -104 -51 -97 -42 vhcurveto
            12 -43 12 -8 rlineto
            102 33 104 26 -39 callsubr
          </CharString>
          <CharString index="108">
            339 46 -28 -21 235 79 hstemhm
            hintmask 01100000
            214 336 rmoveto
            hintmask 10100000
            0 52 3 25 26 return
          </CharString>
          <CharString index="109">
            -24 -12 -7 -53 -4 vhcurveto
            -50 194 rmoveto
            67 141 rlineto
            13 hlineto
            17 -131 -49 -6 rlineto
            return
          </CharString>
          <CharString index="110">
            hvcurveto
            -1 -71 -5 -85 0 vvcurveto
            8 -10 116 12 8 8 rlineto
            0 -5 72 -2 71 vhcurveto
            return
          </CharString>
          <CharString index="111">
            528 rmoveto
            2 38 11 10 49 7 6 66 rcurveline
            return
          </CharString>
          <CharString index="112">
            28 0 78 -62 -21 436 210 return
          </CharString>
          <CharString index="113">
            -37 0 vvcurveto
            20 -77 13 -7 rlineto
            0 93 39 84 36 vhcurveto
            191 82 1 98 rlineto
            return
          </CharString>
          <CharString index="114">
            -6 -48 rmoveto
            55 32 43 46 40 -22 39 -58 -52 -35 -37 -49 -49 28 -33 52 hvcurveto
            return
          </CharString>
          <CharString index="115">
            271 -9 rmoveto
            171 116 113 167 150 -97 84 -169 hvcurveto
            return
          </CharString>
          <CharString index="116">
            184 129 rmoveto
            -59 -11 -12 -72 -5 vhcurveto
            return
          </CharString>
          <CharString index="117">
            412 6 -21 593 64 return
          </CharString>
          <CharString index="118">
            rlinecurve
            -39 48 rlineto
            -217 hlineto
            hintmask 10100000
            -62 -60 4 0 hvcurveto
            -6 -5 rlineto
            -5 return
          </CharString>
          <CharString index="119">
            rmoveto
            19 -16 15 -26 -27 vvcurveto
            -35 -28 -41 -40 -27 -61 callgsubr
            return
          </CharString>
          <CharString index="120">
            6 vhcurveto
            5 61 26 callsubr
            return
          </CharString>
          <CharString index="121">
            0 -110 -7 -45 vhcurveto
            return
          </CharString>
          <CharString index="122">
            28 -29 34 -22 vhcurveto
            -29 -13 -40 -27 -51 vvcurveto
            136 -37 rmoveto
            -31 -22 return
          </CharString>
          <CharString index="123">
            46 29 31 44 41 -25 28 -43 -46 -29 -31 -45 -39 23 -29 45 hvcurveto
            return
          </CharString>
          <CharString index="124">
            rlineto
            -56 -14 -16 -58 -26 callsubr
            return
          </CharString>
          <CharString index="125">
            -297 -21 267 return
          </CharString>
          <CharString index="126">
            49 callsubr
            9 callsubr
            return
          </CharString>
          <CharString index="127">
            177 -6 -21 27 64 513 65 return
          </CharString>
          <CharString index="128">
            1 -53 callgsubr
            -59 -36 callsubr
            0 return
          </CharString>
          <CharString index="129">
            -44 -6 vhcurveto
            -7 -59 rlineto
            0 return
          </CharString>
          <CharString index="130">
            11 91 10 11 74 2 return
          </CharString>
          <CharString index="131">
            -87 -9 rlineto
            -258 hlineto
            return
          </CharString>
          <CharString index="132">
            199 0 54 -39 -21 23 -21 356 149 -74 74 return
          </CharString>
          <CharString index="133">
            -5 8 rlineto
            0 return
          </CharString>
          <CharString index="134">
            0 vvcurveto
            -42 -65 4 -16 rlineto
            0 87 -38 77 -34 vhcurveto
            return
          </CharString>
          <CharString index="135">
            224 9 25 4 5 20 3 rlinecurve
            6 47 rlineto
            0 return
          </CharString>
          <CharString index="136">
            -46 -32 vhcurveto
            13 -62 rlineto
            10 hlineto
            return
          </CharString>
          <CharString index="137">
            8 20 vhcurveto
            30 13 96 26 vvcurveto
            return
          </CharString>
          <CharString index="138">
            rlineto
            hintmask 10100000
            0 return
          </CharString>
          <CharString index="139">
            0 74 8 76 vhcurveto
            return
          </CharString>
          <CharString index="140">
            -25 callsubr
            64 return
          </CharString>
          <CharString index="141">
            -50 -83 -15 -1 -15 -2 -13 hvcurveto
            -9 -14 -31 -18 return
          </CharString>
          <CharString index="142">
            -4 0 vhcurveto
            12 67 50 callgsubr
            -30 -3 -27 return
          </CharString>
          <CharString index="143">
            65 -21 367 -20 hstem
            return
          </CharString>
          <CharString index="144">
            -7 callsubr
            12 18 6 return
          </CharString>
          <CharString index="145">
            -20 24 -20 hstemhm
            return
          </CharString>
          <CharString index="146">
            86 6 -20 hstemhm
            return
          </CharString>
          <CharString index="147">
            vhcurveto
            21 -71 rlineto
            4 4 1 4 hhcurveto
            30 35 return
          </CharString>
          <CharString index="148">
            53 20 28 34 23 17 -9 0 vhcurveto
            endchar
          </CharString>
          <CharString index="149">
            rlineto
            hintmask 11000000
            0 return
          </CharString>
          <CharString index="150">
            -21 267 -20 hstem
            return
          </CharString>
          <CharString index="151">
            -21 457 56 return
          </CharString>
          <CharString index="152">
            63 118 66 150 -20 hstem
            283 return
          </CharString>
          <CharString index="153">
            -28 -137 10 -8 71 11 26 134 return
          </CharString>
          <CharString index="154">
            -159 vlineto
            -7 -78 8 -11 rlineto
            158 return
          </CharString>
          <CharString index="155">
            -20 hstemhm
            hintmask 11010000
            return
          </CharString>
          <CharString index="156">
            -20 hstemhm
            hintmask 10110000
            return
          </CharString>
        <CharString name=".notdef">
          -378 endchar
        </CharString>
        <CharString name="A">
          -58 callgsubr
          163 -20 -99 callsubr
          endchar
        </CharString>
        <CharString name="AE">
          16 callgsubr
          12 -31 callsubr
          319 60 rmoveto
          -4 -60 rlineto
          hintmask 01100000
          -36 callsubr
          hintmask 10011000
          -59 callgsubr
          hintmask 10010010
          -8 11 rlineto
          hintmask 10010100
          7 callgsubr
          -61 callsubr
          endchar
        </CharString>
        <CharString name="AEacute">
          16 callgsubr
          270 -20 hstemhm
          hintmask 10100010
          319 60 rmoveto
          -4 -60 rlineto
          hintmask 01100010
          -36 callsubr
          hintmask 10011010
          -59 callgsubr
          -8 11 rlineto
          7 callgsubr
          hintmask 10010110
          -61 callsubr
          336 520 -37 callsubr
        </CharString>
        <CharString name="Aacute">
          -58 callgsubr
          367 -20 -99 callsubr
          267 489 -106 callsubr
        </CharString>
        <CharString name="Abreve">
          -58 callgsubr
          203 95 60 -20 hstemhm
          hintmask 10111100
          552 132 rmoveto
          -53 169 -90 347 0 vvcurveto
          -11 5 -159 -16 -178 -507 -16 -44 -18 -17 -31 -5 rlinecurve
          -8 -67 rlineto
          0 67 3 54 64 82 -6 -21 callgsubr
          63 -4 7 rlineto
          -43 hlineto
          -34 -12 7 23 7 2 10 4 14 hvcurveto
          25 75 rlineto
          3 24 39 4 32 hhcurveto
          23 42 0 -1 26 hvcurveto
          20 -76 rlineto
          3 -14 2 -11 -8 vvcurveto
          -25 -12 -6 -65 -6 vhcurveto
          -5 -60 rlineto
          hintmask 01111100
          -35 callgsubr
          hintmask 10111100
          -96 callsubr
          93 502 -78 callgsubr
        </CharString>
        <CharString name="Acircumflex">
          -58 callgsubr
          hstemhm
          hintmask 10110000
          552 132 rmoveto
          -53 169 -90 347 0 vvcurveto
          -11 5 -159 -16 -178 -507 -16 -44 -18 -17 -31 -5 rlinecurve
          -8 -67 rlineto
          0 67 3 54 64 82 -6 -21 callgsubr
          63 -4 7 rlineto
          -43 hlineto
          -34 -12 7 23 7 2 10 4 14 hvcurveto
          25 75 rlineto
          3 24 39 4 32 hhcurveto
          23 42 0 -1 26 hvcurveto
          20 -76 rlineto
          3 -14 2 -11 -8 vvcurveto
          -25 -12 -6 -65 -6 vhcurveto
          -5 -60 rlineto
          hintmask 01110000
          -35 callgsubr
          hintmask 10110000
          -96 callsubr
          -48 425 -102 callsubr
        </CharString>
        <CharString name="Adieresis">
          -58 callgsubr
          216 128 -99 callsubr
          179 420 -103 callsubr
        </CharString>
        <CharString name="Agrave">
          -58 callgsubr
          367 -20 -99 callsubr
          -55 476 -97 callsubr
        </CharString>
        <CharString name="Amacron">
          -58 callgsubr
          218 39 callsubr
          hintmask 10111000
          552 132 rmoveto
          -53 169 -90 347 0 vvcurveto
          -11 5 -159 -16 -178 -507 -16 -44 -18 -17 -31 -5 rlinecurve
          -8 -67 rlineto
          0 67 3 54 64 82 -6 -21 callgsubr
          63 -4 7 rlineto
          -43 hlineto
          -34 -12 7 23 7 2 10 4 14 hvcurveto
          25 75 rlineto
          3 24 39 4 32 hhcurveto
          23 42 0 -1 26 hvcurveto
          20 -76 rlineto
          3 -14 2 -11 -8 vvcurveto
          -25 -12 -6 -65 -6 vhcurveto
          -5 -60 rlineto
          hintmask 01111000
          -35 callgsubr
          hintmask 10110100
          -96 callsubr
          239 514 rmoveto
          hintmask 10111000
          -89 callsubr
        </CharString>
        <CharString name="Aogonek">
          73 43 callgsubr
          64 143 79 224 -20 163 -20 hstem
          615 -43 callsubr
          32 18 29 51 61 vhcurveto
          33 -1 32 -2 0 vvcurveto
          7 59 -4 7 -45 4 -19 18 -14 47 rlinecurve
          -53 169 -90 347 0 vvcurveto
          -11 5 -159 -16 -178 -507 -16 -44 -18 -17 -31 -5 rlinecurve
          -8 -67 rlineto
          0 67 3 54 64 82 -6 -21 callgsubr
          63 -4 7 rlineto
          -43 hlineto
          -34 -12 7 23 7 2 10 4 14 hvcurveto
          25 75 rlineto
          3 24 39 4 32 hhcurveto
          23 42 0 -1 26 hvcurveto
          20 -76 rlineto
          3 -14 2 -11 -8 vvcurveto
          -25 -12 -6 -65 -6 vhcurveto
          -5 -60 -35 callgsubr
          0 82 8 86 vhcurveto
          -59 -61 -32 -44 -45 -41 callsubr
          -337 685 rmoveto
          14 hlineto
          58 -220 rlineto
          -2 -21 -31 -2 -22 hhcurveto
          -70 hlineto
          endchar
        </CharString>
        <CharString name="Aring">
          -58 callgsubr
          188 53 78 55 hstemhm
          hintmask 10111100
          552 132 rmoveto
          -53 169 -90 347 0 vvcurveto
          -11 5 -159 -16 -178 -507 -16 -44 -18 -17 -31 -5 rlinecurve
          -8 -67 rlineto
          0 67 3 54 64 82 -6 -21 callgsubr
          63 -4 7 rlineto
          -43 hlineto
          -34 -12 7 23 7 2 10 4 14 hvcurveto
          25 75 rlineto
          3 24 39 4 32 hhcurveto
          23 42 0 -1 26 hvcurveto
          20 -76 rlineto
          3 -14 2 -11 -8 vvcurveto
          -25 -12 -6 -65 -6 vhcurveto
          -5 -60 rlineto
          hintmask 01111100
          -35 callgsubr
          hintmask 10111100
          -96 callsubr
          96 445 -81 callsubr
        </CharString>
        <CharString name="Aringacute">
          -58 callgsubr
          183 168 -50 50 136 -20 hstemhm
          hintmask 10111010
          552 132 rmoveto
          -53 169 -90 347 0 vvcurveto
          -11 5 -159 -16 -178 -507 -16 -44 -18 -17 -31 -5 rlinecurve
          -8 -67 rlineto
          0 67 3 54 64 82 -6 -21 callgsubr
          63 -4 7 rlineto
          -43 hlineto
          -34 -12 7 23 7 2 10 4 14 hvcurveto
          25 75 rlineto
          3 24 39 4 32 hhcurveto
          23 42 0 -1 26 hvcurveto
          20 -76 rlineto
          3 -14 2 -11 -8 vvcurveto
          -25 -12 -6 -65 -6 vhcurveto
          -5 -60 rlineto
          hintmask 01111010
          -35 callgsubr
          hintmask 10110110
          -96 callsubr
          104 435 12 callgsubr
          hintmask 10111010
          7 callsubr
          127 230 0 callsubr
        </CharString>
        <CharString name="Atilde">
          -58 callgsubr
          215 -14 callsubr
          hintmask 10111001
          552 132 rmoveto
          -53 169 -90 347 0 vvcurveto
          -11 5 -159 -16 -178 -507 -16 -44 -18 -17 -31 -5 rlinecurve
          -8 -67 rlineto
          0 67 3 54 64 82 -6 -21 callgsubr
          63 -4 7 rlineto
          -43 hlineto
          -34 -12 7 23 7 2 10 4 14 hvcurveto
          25 75 rlineto
          3 24 39 4 32 hhcurveto
          23 42 0 -1 26 hvcurveto
          20 -76 rlineto
          3 -14 2 -11 -8 vvcurveto
          -25 -12 -6 -65 -6 vhcurveto
          -5 -60 rlineto
          hintmask 01111001
          -35 callgsubr
          hintmask 10110101
          -96 callsubr
          -35 401 -2 callgsubr
          hintmask 10111001
          -74 callsubr
          hintmask 10110010
          -60 callgsubr
        </CharString>
        <CharString name="B">
          77 -10 86 -55 -21 564 83 -70 70 -5 -9 callgsubr
          183 hmoveto
          hintmask 10010000
          39 72 -9 -1 37 hvcurveto
          158 103 79 121 81 -61 47 -80 21 hvcurveto
          63 33 44 50 70 vvcurveto
          101 -74 54 -138 vhcurveto
          hintmask 10001000
          0 -118 -5 -35 -35 -104 2 0 vhcurveto
          -9 -61 -35 callgsubr
          hintmask 10010000
          0 22 2 12 25 8 -13 -37 vhcurveto
          -1 -390 rlineto
          -52 -16 -17 -57 -10 vhcurveto
          -8 -68 rlineto
          hintmask 01100000
          0 90 10 57 vhcurveto
          160 281 rmoveto
          66 -15 35 -37 -53 vvcurveto
          hintmask 10100000
          -63 -38 -37 -65 -68 -26 17 42 vhcurveto
          4 145 rlineto
          2 89 rmoveto
          1 43 3 79 4 55 rrcurveto
          14 1 4 4 13 hhcurveto
          94 44 -31 -67 -82 -69 -24 0 -19 -76 9 0 hvcurveto
          endchar
        </CharString>
        <CharString name="C">
          -28 callgsubr
          -94 callgsubr
          endchar
        </CharString>
        <CharString name="Cacute">
          -28 callgsubr
          203 -20 -94 callgsubr
          197 787 -106 callsubr
        </CharString>
        <CharString name="Ccaron">
          -28 callgsubr
          211 -20 -94 callgsubr
          164 873 -104 callsubr
        </CharString>
        <CharString name="Ccedilla">
          65 25 callgsubr
          140 93 -93 234 200 231 -97 97 hstem
          280 -86 rmoveto
          -88 callgsubr
          9 33 rlineto
          110 5 83 34 0 vvcurveto
          10 12 rlineto
          3 83 17 104 0 vvcurveto
          -99 -7 rlineto
          -97 -16 -38 -41 -72 hhcurveto
          -104 -62 93 163 146 56 73 103 75 34 -26 -58 -26 -2 -27 0 hvcurveto
          99 7 rlineto
          6 106 20 83 0 vvcurveto
          -6 13 rlineto
          0 -107 25 -84 -214 -136 -137 -213 -188 103 -117 170 -10 vhcurveto
          endchar
        </CharString>
        <CharString name="Ccircumflex">
          -28 callgsubr
          250 -20 -94 callgsubr
          -117 721 -96 callgsubr
          endchar
        </CharString>
        <CharString name="Cdotaccent">
          -28 callgsubr
          48 152 -94 callgsubr
          19 714 -85 callsubr
        </CharString>
        <CharString name="D">
          141 -12 87 -75 75 485 87 -71 71 -5 48 callgsubr
          3 callgsubr
          hintmask 10001000
          20 callgsubr
          hintmask 01010000
          -8 callgsubr
          hintmask 10100000
          -24 callgsubr
          endchar
        </CharString>
        <CharString name="Dcaron">
          141 -12 87 -75 75 485 87 -71 71 -5 -20 243 -20 hstemhm
          hintmask 10010100
          3 callgsubr
          hintmask 10001100
          20 callgsubr
          hintmask 01010100
          -8 callgsubr
          hintmask 10100100
          -24 callgsubr
          192 301 -104 callsubr
        </CharString>
        <CharString name="Dcroat">
          -80 callgsubr
        </CharString>
        <CharString name="Delta">
          52 0 95 559 -20 hstem
          20 hmoveto
          553 hlineto
          8 7 rlineto
          -85 258 -98 389 0 vvcurveto
          -9 hlineto
          -160 -17 -219 -624 rlineto
          291 506 rmoveto
          107 -424 rlineto
          -256 hlineto
          134 424 rlineto
          endchar
        </CharString>
        <CharString name="E">
          -70 callsubr
          12 -20 hstemhm
          hintmask 10101000
          247 139 rmoveto
          27 1 40 2 73 vhcurveto
          2 17 29 4 30 hhcurveto
          50 80 -3 0 hvcurveto
          14 86 -8 -13 callsubr
          -83 -8 -33 vhcurveto
          -29 -43 1 -21 hhcurveto
          7 155 rlineto
          30 1 5 3 47 hhcurveto
          112 14 -8 -55 -14 -2 -26 0 hvcurveto
          92 6 rlineto
          5 93 18 89 0 vvcurveto
          hintmask 10100010
          -8 11 rlineto
          hintmask 01100100
          -8 -61 -101 -4 -142 hhcurveto
          -75 -110 3 0 hvcurveto
          -8 -61 7 -9 rlineto
          -84 callgsubr
          hintmask 10110000
          0 85 10 89 124 188 -7 -17 callgsubr
          11 rlineto
          10 96 18 90 -42 callsubr
          10 -85 -7 rlineto
          -100 -14 -18 -14 -124 hhcurveto
          -57 -7 7 53 hvcurveto
          endchar
        </CharString>
        <CharString name="Eacute">
          -70 callsubr
          215 -20 -105 callgsubr
          245 636 -106 callsubr
        </CharString>
        <CharString name="Ebreve">
          -70 callsubr
          75 95 68 -20 hstemhm
          hintmask 10101011
          -105 callsubr
          hintmask 01100111
          -84 callgsubr
          hintmask 10110011
          0 85 10 89 124 188 -7 -17 callgsubr
          11 rlineto
          10 96 18 90 -42 callsubr
          10 -85 -7 rlineto
          -100 -14 -18 -14 -124 hhcurveto
          -57 -7 7 53 hvcurveto
          80 673 -91 callgsubr
        </CharString>
        <CharString name="Ecaron">
          -70 callsubr
          223 -20 -105 callgsubr
          213 722 -104 callsubr
        </CharString>
        <CharString name="Ecircumflex">
          -70 callsubr
          hstemhm
          hintmask 10101000
          -105 callsubr
          hintmask 01100100
          -84 callgsubr
          hintmask 10110000
          0 85 10 89 124 188 -7 -17 callgsubr
          11 rlineto
          10 96 18 90 -42 callsubr
          10 -85 -7 rlineto
          -100 -14 -18 -14 -124 hhcurveto
          -57 -7 7 53 hvcurveto
          -70 572 -102 callsubr
        </CharString>
        <CharString name="Edieresis">
          -70 callsubr
          64 128 -105 callgsubr
          156 567 -103 callsubr
        </CharString>
        <CharString name="Edotaccent">
          -70 callsubr
          60 152 -105 callgsubr
          67 563 -85 callsubr
        </CharString>
        <CharString name="Egrave">
          -70 callsubr
          215 -20 -105 callgsubr
          -92 623 -97 callsubr
        </CharString>
        <CharString name="Emacron">
          -70 callsubr
          66 86 6 -20 -99 callgsubr
          hintmask 10110001
          0 85 10 89 124 188 -7 -17 callgsubr
          11 rlineto
          10 96 18 90 -42 callsubr
          10 -85 -7 rlineto
          -100 -14 -18 -14 -124 hhcurveto
          -57 -7 7 53 hvcurveto
          216 661 rmoveto
          hintmask 10110010
          -89 callsubr
        </CharString>
        <CharString name="Eng">
          175 -142 -21 163 63 516 63 6 49 callgsubr
          155 642 rmoveto
          -37 -75 5 0 hvcurveto
          -7 -56 7 -10 rlineto
          68 -8 14 -13 -41 vvcurveto
          -12 -386 -2 -53 -16 -18 -42 -5 rlinecurve
          -8 -65 rlineto
          0 63 8 40 62 83 -4 -17 callgsubr
          63 -5 6 rlineto
          0 -32 -2 -11 -26 -8 11 34 -1 vhcurveto
          2 317 rlineto
          9 hlineto
          0 128 -184 150 -237 vhcurveto
          -13 -49 -28 -33 -57 -34 -3 -11 rcurveline
          27 -40 137 44 56 73 4 132 rlinecurve
          10 433 1 40 17 17 46 6 rlinecurve
          hintmask 11010000
          5 66 rlineto
          hintmask 11100000
          0 -71 -6 -44 -32 -96 4 -53 callgsubr
          -62 4 -6 rlineto
          0 22 1 13 23 10 -12 -31 vhcurveto
          1 -308 rlineto
          -9 hlineto
          0 -154 222 -118 196 vhcurveto
          0 -64 -4 -32 vhcurveto
          endchar
        </CharString>
        <CharString name="Eogonek">
          45 43 callgsubr
          79 206 84 189 84 -65 65 12 -20 hstemhm
          hintmask 11110000
          538 -43 callsubr
          32 17 28 48 57 vhcurveto
          25 -1 16 -1 0 vvcurveto
          9 11 rlineto
          10 96 18 90 -42 callsubr
          10 -85 -7 rlineto
          -100 -14 -18 -14 -124 hhcurveto
          -57 -7 7 53 27 1 40 2 73 hvcurveto
          2 17 29 4 30 hhcurveto
          50 80 -3 0 hvcurveto
          14 86 -8 -13 callsubr
          -83 -8 -33 vhcurveto
          -29 -43 1 -21 hhcurveto
          7 155 rlineto
          30 1 5 3 47 hhcurveto
          112 14 -8 -55 -14 -2 -26 0 hvcurveto
          92 6 rlineto
          5 93 18 89 0 vvcurveto
          hintmask 11100100
          -8 11 rlineto
          hintmask 11101000
          -8 -61 -101 -4 -142 hhcurveto
          -75 -110 3 0 hvcurveto
          -8 -61 7 -9 rlineto
          -84 callgsubr
          0 85 10 89 65 84 -1 -2 64 vhcurveto
          -57 -60 -31 -43 -44 -41 callsubr
          endchar
        </CharString>
        <CharString name="Eth">
          -80 callgsubr
        </CharString>
        <CharString name="Euro">
          21 -9 77 -77 186 -12 56 58 56 -8 182 -79 79 hstem
          370 223 rmoveto
          -152 -4 rlineto
          -4 hlineto
          -1 14 -1 15 16 vvcurveto
          15 vlineto
          161 1 4 48 -7 9 -151 -4 rlineto
          65 15 41 32 65 hhcurveto
          60 28 -19 -45 -21 -1 -20 0 hvcurveto
          83 5 rlineto
          6 84 17 65 0 vvcurveto
          -6 11 rlineto
          0 -88 19 -70 -140 -100 -66 -110 -35 vhcurveto
          -82 hlineto
          -7 -47 7 -7 rlineto
          70 hlineto
          -1 -14 -1 -14 -14 vvcurveto
          -18 -68 vlineto
          -7 -47 7 -7 rlineto
          76 hlineto
          -110 25 85 -64 127 hhcurveto
          103 79 31 0 hvcurveto
          8 9 rlineto
          3 67 14 82 0 vvcurveto
          -84 -6 rlineto
          -75 -13 -31 -31 -58 hhcurveto
          -60 -41 34 63 -20 hvcurveto
          148 1 4 48 rlineto
          endchar
        </CharString>
        <CharString name="F">
          -20 0 78 -68 -21 279 84 105 185 -84 84 -65 65 12 -20 hstemhm
          hintmask 10101000
          247 142 rmoveto
          3 119 rlineto
          3 17 29 4 30 hhcurveto
          45 74 -3 0 hvcurveto
          14 86 -8 -13 callsubr
          -75 -8 -30 vhcurveto
          -93 1 7 172 rlineto
          30 1 5 3 47 hhcurveto
          92 14 -9 -54 -13 -2 -28 0 hvcurveto
          91 6 rlineto
          5 92 15 91 0 vvcurveto
          hintmask 10100010
          -7 11 rlineto
          hintmask 01100100
          -8 -58 -98 -4 -125 hhcurveto
          -75 -110 3 0 hvcurveto
          -8 -61 7 -9 rlineto
          0 19 2 11 27 6 -11 -43 vhcurveto
          -1 -379 rlineto
          -58 -16 -19 -56 -10 vhcurveto
          -8 -68 rlineto
          hintmask 10110000
          0 86 11 75 51 105 -4 0 vhcurveto
          11 77 -9 10 rlineto
          0 -40 -5 -25 -34 -9 13 51 vhcurveto
          endchar
        </CharString>
        <CharString name="G">
          -10 callsubr
          -95 callsubr
          endchar
        </CharString>
        <CharString name="Gbreve">
          -10 callsubr
          53 95 60 -20 -95 callsubr
          -251 509 -78 callgsubr
        </CharString>
        <CharString name="Gcircumflex">
          -10 callsubr
          250 -20 -95 callsubr
          -390 416 -96 callgsubr
          endchar
        </CharString>
        <CharString name="Gcommaaccent">
          102 -297 -21 306 94 167 78 0 102 128 97 hstemhm
          hintmask 11101000
          598 332 rmoveto
          -1 -52 -4 -50 vhcurveto
          -55 -60 2 -24 hhcurveto
          -11 -72 -35 callgsubr
          51 hlineto
          36 8 -9 -39 hvcurveto
          -93 vlineto
          hintmask 11011000
          0 -37 -26 -59 -107 -61 91 165 149 58 70 119 77 30 -21 -56 -29 -3 -25 0 vhcurveto
          99 6 rlineto
          6 104 20 80 -42 callsubr
          13 rlineto
          0 -110 25 -88 -222 -134 -133 -217 -196 114 -120 184 144 92 40 -17 callgsubr
          13 rlineto
          -5 19 -2 30 38 vvcurveto
          114 6 28 35 23 vhcurveto
          -344 -393 -93 callgsubr
          -75 callgsubr
        </CharString>
        <CharString name="Gdotaccent">
          -10 callsubr
          48 152 -95 callsubr
          -254 409 -85 callsubr
        </CharString>
        <CharString name="H">
          34 callgsubr
          7 -20 hstemhm
          hintmask 10101000
          641 4 callsubr
          hintmask 10110000
          -34 callgsubr
          hintmask 10101000
          5 67 rlineto
          hintmask 01110000
          -32 callgsubr
          -1 -385 17 callsubr
          hintmask 10110000
          -79 callsubr
          105 6 175 6 115 vhcurveto
          endchar
        </CharString>
        <CharString name="Hbar">
          193 0 65 -53 -21 293 83 75 57 78 65 7 -20 hstemhm
          hintmask 10110100
          640 4 callsubr
          hintmask 10111000
          0 -102 -7 -45 -43 -85 21 callsubr
          20 1 11 29 7 -11 -41 vhcurveto
          -26 -98 vlineto
          -143 hlineto
          1 12 3 53 6 10 51 8 rlinecurve
          hintmask 10110100
          5 67 rlineto
          hintmask 01111000
          -32 callgsubr
          -26 vlineto
          -51 -38 1 0 hvcurveto
          -8 -48 10 -10 rlineto
          87 hlineto
          -1 -302 17 callsubr
          hintmask 10111000
          -79 callsubr
          81 3 125 5 105 vhcurveto
          86 hlineto
          5 46 -14 14 rlineto
          0 -30 -1 -45 -1 vhcurveto
          -263 -59 rmoveto
          122 -70 hlineto
          -5 -40 -30 -2 -48 hhcurveto
          -128 2 3 75 rlineto
          endchar
        </CharString>
        <CharString name="Hcircumflex">
          34 callgsubr
          288 -20 hstemhm
          hintmask 01111000
          641 4 callsubr
          -34 callgsubr
          5 67 rlineto
          -32 callgsubr
          -1 -385 17 callsubr
          hintmask 10111000
          -79 callsubr
          105 6 175 6 115 vhcurveto
          -400 207 -96 callgsubr
          endchar
        </CharString>
        <CharString name="I">
          -52 callgsubr
          26 -20 hstemhm
          hintmask 10001000
          260 528 rmoveto
          2 37 11 10 51 7 6 67 rcurveline
          hintmask 10100000
          0 -98 -7 -44 vhcurveto
          hintmask 10010000
          -48 -66 -66 callgsubr
          hintmask 01100000
          -86 callgsubr
          hintmask 10100000
          -90 callgsubr
          endchar
        </CharString>
        <CharString name="IJ">
          146 -133 -21 154 65 512 65 1 -20 27 49 callgsubr
          -77 callgsubr
          hintmask 11010000
          -48 -66 -66 callgsubr
          hintmask 11100000
          -86 callgsubr
          -90 callgsubr
          212 -405 -49 callsubr
          rrcurveto
          hintmask 11001000
          6 68 rlineto
          hintmask 11100000
          -33 callsubr
          endchar
        </CharString>
        <CharString name="Iacute">
          -52 callgsubr
          234 -20 -91 callsubr
          100 247 -106 callsubr
        </CharString>
        <CharString name="Ibreve">
          -52 callgsubr
          94 95 68 -20 hstemhm
          hintmask 10101100
          -77 callgsubr
          hintmask 10011100
          -48 -66 -66 callgsubr
          hintmask 01101100
          -86 callgsubr
          hintmask 10101100
          -90 callgsubr
          -72 284 -91 callgsubr
        </CharString>
        <CharString name="Icircumflex">
          -52 callgsubr
          hstemhm
          hintmask 10100000
          -77 callgsubr
          hintmask 10010000
          -48 -66 -66 callgsubr
          hintmask 01100000
          -86 callgsubr
          hintmask 10100000
          -90 callgsubr
          -216 183 -102 callsubr
        </CharString>
        <CharString name="Idieresis">
          -52 callgsubr
          83 128 -91 callsubr
          11 178 -103 callsubr
        </CharString>
        <CharString name="Idotaccent">
          -52 callgsubr
          79 152 -91 callsubr
          -78 174 -85 callsubr
        </CharString>
        <CharString name="Igrave">
          -52 callgsubr
          234 -20 -91 callsubr
          -237 234 -97 callsubr
        </CharString>
        <CharString name="Imacron">
          -52 callgsubr
          85 86 6 -20 -84 callsubr
          hintmask 10100100
          -90 callgsubr
          71 272 rmoveto
          hintmask 10101000
          -89 callsubr
        </CharString>
        <CharString name="Iogonek">
          -187 43 callgsubr
          65 512 36 callgsubr
          hintmask 11001000
          327 -43 callsubr
          32 18 29 50 60 vhcurveto
          28 -1 24 -1 0 vvcurveto
          -43 callgsubr
          -21 -3 -22 -31 -7 13 55 106 5 168 7 121 vhcurveto
          2 37 11 10 51 7 6 67 rcurveline
          hintmask 11100000
          0 -98 -7 -44 vhcurveto
          hintmask 11010000
          -48 -66 -66 callgsubr
          hintmask 11100000
          -86 callgsubr
          0 84 9 56 vhcurveto
          39 hlineto
          -59 -61 -32 -44 -45 -41 callsubr
          endchar
        </CharString>
        <CharString name="Itilde">
          -52 callgsubr
          113 -3 callsubr
          hintmask 10101001
          -77 callgsubr
          hintmask 10011001
          -48 -66 -66 callgsubr
          hintmask 01101001
          -86 callgsubr
          hintmask 10100101
          -90 callgsubr
          -203 186 rmoveto
          0 40 56 25 vhcurveto
          hintmask 10101001
          -56 callgsubr
          hintmask 10100011
          -45 callsubr
        </CharString>
        <CharString name="J">
          -219 -133 -21 731 65 8 -31 callsubr
          107 123 -49 callsubr
          6 68 rcurveline
          hintmask 11000000
          -33 callsubr
          endchar
        </CharString>
        <CharString name="Jcircumflex">
          -219 -133 -21 731 65 262 -20 hstem
          107 123 -49 callsubr
          6 68 rcurveline
          -33 callsubr
          -66 184 -96 callgsubr
          endchar
        </CharString>
        <CharString name="K">
          107 0 65 -59 -21 592 65 7 48 callgsubr
          -40 callgsubr
          hintmask 01100000
          -68 callgsubr
          endchar
        </CharString>
        <CharString name="Kcommaaccent">
          107 -297 -21 318 65 512 65 7 48 callsubr
          -40 callgsubr
          hintmask 11100000
          -68 callgsubr
          3 -438 -93 callgsubr
          -75 callgsubr
        </CharString>
        <CharString name="L">
          -21 -5 callgsubr
          213 hmoveto
          118 163 -8 0 33 callgsubr
          118 17 109 -42 callsubr
          10 -85 -9 rlineto
          -129 -14 -20 -23 -94 hhcurveto
          -52 -10 10 50 121 3 137 8 108 hvcurveto
          3 52 5 13 68 8 8 71 rcurveline
          hintmask 10100000
          14 callsubr
          hintmask 10010000
          -46 -64 -66 callgsubr
          hintmask 01100000
          -54 callgsubr
          hintmask 10100000
          0 82 10 89 vhcurveto
          endchar
        </CharString>
        <CharString name="Lacute">
          -21 0 79 -68 -21 587 65 1 -20 234 -20 hstemhm
          hintmask 10101000
          213 hmoveto
          118 163 -8 0 33 callgsubr
          118 17 109 -42 callsubr
          10 -85 -9 rlineto
          -129 -14 -20 -23 -94 hhcurveto
          -52 -10 10 50 121 3 137 8 108 hvcurveto
          3 52 5 13 68 8 8 71 rcurveline
          14 callsubr
          hintmask 10011000
          -46 -64 -66 callgsubr
          hintmask 01101000
          -54 callgsubr
          hintmask 10101000
          0 82 10 89 vhcurveto
          151 775 -106 callsubr
        </CharString>
        <CharString name="Lcaron">
          -15 -5 callgsubr
          521 640 rmoveto
          -101 -14 rlineto
          0 11 -113 -3 -115 vhcurveto
          14 -4 48 19 rlineto
          24 107 15 110 0 vvcurveto
          -316 -630 rmoveto
          118 163 -8 0 33 callgsubr
          118 17 109 -42 callsubr
          10 -85 -9 rlineto
          -129 -14 -20 -23 -94 hhcurveto
          -52 -10 10 50 121 3 137 8 108 hvcurveto
          3 52 5 13 68 8 8 71 rcurveline
          hintmask 10100000
          14 callsubr
          hintmask 10010000
          -46 -64 -66 callgsubr
          hintmask 01100000
          -54 callgsubr
          hintmask 10100000
          0 82 10 89 vhcurveto
          endchar
        </CharString>
        <CharString name="Lcommaaccent">
          -21 18 callsubr
          51 0 79 498 36 callgsubr
          hintmask 10100100
          213 hmoveto
          118 163 -8 0 33 callgsubr
          118 17 109 -42 callsubr
          10 -85 -9 rlineto
          -129 -14 -20 -23 -94 hhcurveto
          -52 -10 10 50 121 3 137 8 108 hvcurveto
          3 52 5 13 68 8 8 71 rcurveline
          hintmask 11010000
          14 callsubr
          hintmask 11001000
          -46 -64 -66 callgsubr
          hintmask 10110000
          -54 callgsubr
          0 82 10 89 vhcurveto
          4 -100 -93 callgsubr
          hintmask 11010000
          -75 callgsubr
        </CharString>
        <CharString name="Ldot">
          2 0 79 -68 -21 390 158 39 36 callgsubr
          hintmask 10100100
          213 hmoveto
          118 163 -8 0 33 callgsubr
          118 17 109 -42 callsubr
          10 -85 -9 rlineto
          -129 -14 -20 -23 -94 hhcurveto
          -52 -10 10 50 121 3 137 8 108 hvcurveto
          3 52 5 13 68 8 8 71 rcurveline
          hintmask 10110000
          14 callsubr
          hintmask 10101000
          -46 -64 -66 callgsubr
          hintmask 01110000
          -54 callgsubr
          hintmask 10110000
          0 82 10 89 vhcurveto
          240 380 8 callgsubr
        </CharString>
        <CharString name="Lslash">
          14 -5 callgsubr
          225 hmoveto
          118 163 -8 0 33 callgsubr
          118 17 109 -42 callsubr
          10 -85 -9 rlineto
          -129 -14 -20 -23 -94 hhcurveto
          -52 -10 10 50 58 0 61 2 60 hvcurveto
          161 81 -17 61 -8 4 -133 -67 1 38 2 36 3 34 rlinecurve
          3 52 5 13 68 8 8 71 rcurveline
          hintmask 10100000
          14 callsubr
          hintmask 10010000
          -46 -64 -66 callgsubr
          hintmask 01100000
          0 19 1 11 -13 callgsubr
          -182 vlineto
          -89 -44 17 -62 10 -2 62 31 rlineto
          -122 17 callgsubr
          hintmask 10100000
          0 82 10 89 vhcurveto
          endchar
        </CharString>
        <CharString name="M">
          289 0 66 -61 -21 598 60 1 -20 25 -31 callsubr
          441 -7 rmoveto
          58 186 61 174 33 92 rrcurveto
          9 hlineto
          0 20 -297 -39 vvcurveto
          -31 -16 -14 -39 -4 vhcurveto
          -8 -68 rlineto
          2 6 109 6 31 hhcurveto
          41 61 -3 0 hvcurveto
          9 65 -4 6 rlineto
          0 -15 -2 -14 -31 -10 19 72 -7 vhcurveto
          -10 117 -14 211 44 vvcurveto
          37 16 12 57 4 vhcurveto
          6 62 rlineto
          hintmask 10001000
          -4 4 31 callsubr
          -63 -5 -38 -1 vhcurveto
          hintmask 10010000
          -2 -40 -54 3 -29 hhcurveto
          -67 -219 -64 -189 0 vvcurveto
          -8 hlineto
          0 -63 188 -61 223 vhcurveto
          hintmask 10100000
          0 -68 -4 -41 -37 -90 5 0 vhcurveto
          -9 -60 5 -6 rlineto
          61 -6 14 -8 -36 vvcurveto
          -28 -35 -334 -5 -38 vhcurveto
          -4 -50 -17 -17 -39 -5 -7 -67 rcurveline
          0 61 8 40 33 86 -4 0 vhcurveto
          11 65 -6 6 rlineto
          0 -25 -2 -8 -22 -10 11 22 24 20 323 0 vhcurveto
          8 hlineto
          hintmask 01100000
          34 -94 58 -171 61 -196 rrcurveto
          endchar
        </CharString>
        <CharString name="N">
          20 callsubr
          5 49 callgsubr
          -50 callsubr
          vhcurveto
          hintmask 11010000
          -49 -67 5 0 hvcurveto
          -93 callsubr
          hintmask 11100000
          -71 callgsubr
          endchar
        </CharString>
        <CharString name="Nacute">
          20 callsubr
          215 -20 hstem
          -50 callsubr
          -49 -67 5 0 vhcurveto
          -93 callsubr
          -71 callgsubr
          22 540 -106 callsubr
        </CharString>
        <CharString name="Ncaron">
          20 callsubr
          223 -20 hstem
          -50 callsubr
          -49 -67 5 0 vhcurveto
          -93 callsubr
          -71 callgsubr
          -11 626 -104 callsubr
        </CharString>
        <CharString name="Ncommaaccent">
          177 -297 -21 318 64 513 65 5 49 callgsubr
          -50 callsubr
          vhcurveto
          hintmask 11010000
          -49 -67 5 0 hvcurveto
          -93 callsubr
          hintmask 11100000
          -71 callgsubr
          -233 -335 -93 callgsubr
          -75 callgsubr
        </CharString>
        <CharString name="Ntilde">
          20 callsubr
          63 -14 callsubr
          hintmask 11101010
          -50 callsubr
          -49 -67 5 0 vhcurveto
          -93 callsubr
          -71 callgsubr
          -281 452 -2 callgsubr
          hintmask 11110010
          -74 callsubr
          hintmask 11100100
          -60 callgsubr
        </CharString>
        <CharString name="O">
          -27 callgsubr
          hstem
          -101 callsubr
          endchar
        </CharString>
        <CharString name="OE">
          388 -11 90 -77 77 203 87 89 178 -78 78 -78 91 5 -20 hstemhm
          hintmask 10101000
          589 139 rmoveto
          2 140 77 6 rlineto
          50 80 -3 0 hvcurveto
          14 86 -8 -13 callsubr
          -83 -8 -33 vhcurveto
          -93 1 7 155 rlineto
          30 1 4 3 47 hhcurveto
          113 15 -8 -55 -14 -2 -26 0 hvcurveto
          91 6 rlineto
          5 93 18 89 0 vvcurveto
          hintmask 10100010
          -8 11 rlineto
          hintmask 10110000
          -9 -64 -113 -9 -135 hhcurveto
          hintmask 10100100
          -86 -71 13 -66 hhcurveto
          -196 -126 -134 -211 -195 110 -120 175 hvcurveto
          hintmask 01110000
          64 82 13 90 hhcurveto
          123 191 -9 0 hvcurveto
          10 11 rlineto
          9 96 18 90 -42 callsubr
          10 -85 -7 rlineto
          -100 -13 -19 -14 -124 hhcurveto
          -57 -7 7 53 hvcurveto
          -252 -66 rmoveto
          -99 -56 93 179 139 56 77 93 99 35 -24 -83 hvcurveto
          -1 -252 rlineto
          -93 -1 -37 -36 -89 hhcurveto
          endchar
        </CharString>
        <CharString name="Oacute">
          -27 callgsubr
          203 -20 hstem
          -101 callsubr
          193 787 -106 callsubr
        </CharString>
        <CharString name="Obreve">
          -27 callgsubr
          63 95 68 -20 hstem
          -101 callsubr
          10 824 -91 callgsubr
        </CharString>
        <CharString name="Ocircumflex">
          -27 callgsubr
          hstem
          -101 callsubr
          -123 723 -102 callsubr
        </CharString>
        <CharString name="Odieresis">
          -27 callgsubr
          52 128 hstem
          -101 callsubr
          104 718 -103 callsubr
        </CharString>
        <CharString name="Ograve">
          -27 callgsubr
          203 -20 hstem
          -101 callsubr
          -144 774 -97 callsubr
        </CharString>
        <CharString name="Ohungarumlaut">
          -27 callgsubr
          203 -20 hstem
          -101 callsubr
          87 806 -86 callsubr
        </CharString>
        <CharString name="Omacron">
          -27 callgsubr
          54 86 6 48 callsubr
          -101 callsubr
          164 812 rmoveto
          hintmask 11100000
          -89 callsubr
        </CharString>
        <CharString name="Omega">
          305 0 80 -64 -21 562 97 hstemhm
          hintmask 10100000
          819 14 rmoveto
          82 12 117 0 vhcurveto
          -72 -7 -12 -89 -23 -31 -55 -3 rlinecurve
          -83 -5 rlineto
          97 77 54 106 121 vvcurveto
          162 -122 110 -178 -182 -137 -126 -168 -106 51 -98 89 -77 vhcurveto
          -73 4 -58 3 -22 33 -11 94 rlinecurve
          -70 -7 rlineto
          0 11 -110 1 -82 vhcurveto
          hintmask 01100000
          18 -19 268 11 56 -9 16 51 rlineto
          -80 67 -41 101 149 vvcurveto
          124 61 68 97 96 53 -79 -145 -137 -31 -68 -93 -81 vhcurveto
          17 -49 56 8 271 -11 rlineto
          endchar
        </CharString>
        <CharString name="Oslash">
          122 -86 -21 95 87 482 97 75 -73 callsubr
          endchar
        </CharString>
        <CharString name="Oslashacute">
          122 -86 -21 95 87 482 97 209 -73 callsubr
          305 437 -106 callsubr
        </CharString>
        <CharString name="Otilde">
          -27 callgsubr
          51 -14 callsubr
          hintmask 11010100
          -101 callsubr
          -110 699 -2 callgsubr
          hintmask 11100100
          -74 callsubr
          hintmask 11001000
          -60 callgsubr
        </CharString>
        <CharString name="P">
          25 0 65 -52 -21 569 86 -70 70 -5 -20 21 -20 hstemhm
          hintmask 01010000
          45 583 rmoveto
          -36 callsubr
          0 21 2 14 25 7 -12 -42 vhcurveto
          -1 -380 rlineto
          -56 -15 -18 -54 -9 vhcurveto
          -8 -68 rlineto
          hintmask 10100000
          1 2 115 7 50 hhcurveto
          38 88 -3 0 hvcurveto
          10 65 -4 6 rlineto
          0 -26 -3 -18 -40 -6 14 74 vhcurveto
          1 74 rlineto
          85 hlineto
          126 113 107 120 98 -55 95 -187 hvcurveto
          hintmask 10001000
          0 -116 -5 -36 vhcurveto
          hintmask 10000100
          -43 -60 1 -23 hhcurveto
          198 -327 rmoveto
          2 75 3 82 5 70 rrcurveto
          hintmask 10100000
          17 1 2 1 19 hhcurveto
          102 45 -37 -84 -78 -30 -45 -61 -13 hvcurveto
          endchar
        </CharString>
        <CharString name="Q">
          127 -228 122 94 87 482 97 hstem
          315 -12 rmoveto
          -184 222 56 -32 89 hhcurveto
          28 106 83 0 hvcurveto
          -11 42 -8 -27 callsubr
          -39 -10 -46 -73 -86 36 76 -109 vhcurveto
          9 vlineto
          121 49 81 123 154 vvcurveto
          195 -108 118 -182 -198 -130 -139 -211 -195 109 -121 178 vhcurveto
          25 87 rmoveto
          -99 -58 93 176 137 54 76 91 103 59 -92 -177 -136 -56 -77 -94 hvcurveto
          endchar
        </CharString>
        <CharString name="R">
          5 callgsubr
          hstemhm
          hintmask 10010000
          -76 callgsubr
          hintmask 10001000
          0 -112 -5 -41 -39 -87 2 -53 callgsubr
          -61 -36 callsubr
          hintmask 01010000
          -83 callgsubr
          hintmask 10100000
          -31 callgsubr
          endchar
        </CharString>
        <CharString name="Racute">
          5 callgsubr
          235 -79 callgsubr
          155 444 -106 callsubr
        </CharString>
        <CharString name="Rcaron">
          5 callgsubr
          243 -79 callgsubr
          123 530 -104 callsubr
        </CharString>
        <CharString name="Rcommaaccent">
          91 -297 -21 338 -21 65 187 326 70 -5 -20 hstemhm
          hintmask 11110000
          -76 callgsubr
          hintmask 11101000
          0 -112 -5 -41 -39 -87 2 -53 callgsubr
          -61 -36 callsubr
          hintmask 11110000
          -83 callgsubr
          -31 callgsubr
          -85 -431 -93 callgsubr
          -75 callgsubr
        </CharString>
        <CharString name="S">
          6 callgsubr
          hstem
          220 -12 rmoveto
          169 110 80 122 100 -94 46 -84 40 hvcurveto
          -69 32 -62 29 51 vvcurveto
          42 40 29 55 70 27 -23 -58 -19 -1 -16 -17 callgsubr
          -7 76 6 rlineto
          7 91 17 81 -42 callsubr
          13 rlineto
          0 -72 27 -100 -156 -111 -83 -117 -95 80 -47 78 -38 vhcurveto
          75 -37 73 -28 -55 vvcurveto
          -47 -41 -30 -63 -84 -26 30 110 vhcurveto
          -84 -7 rlineto
          -1 -82 -15 -88 0 vvcurveto
          8 -14 rlineto
          0 71 -38 105 vhcurveto
          endchar
        </CharString>
        <CharString name="Sacute">
          6 callgsubr
          203 -20 hstem
          252 -12 rmoveto
          169 110 80 122 100 -94 46 -84 40 hvcurveto
          -69 32 -62 29 51 vvcurveto
          42 40 29 55 70 27 -23 -58 -19 -1 -16 -17 callgsubr
          -7 76 6 rlineto
          7 91 17 81 -42 callsubr
          13 rlineto
          0 -72 27 -100 -156 -111 -83 -117 -95 80 -47 78 -38 vhcurveto
          75 -37 73 -28 -55 vvcurveto
          -47 -41 -30 -63 -84 -26 30 110 vhcurveto
          -84 -7 rlineto
          -1 -82 -15 -88 0 vvcurveto
          8 -14 rlineto
          0 71 -38 105 vhcurveto
          196 787 -106 callsubr
        </CharString>
        <CharString name="Scaron">
          6 callgsubr
          211 -20 hstem
          252 -12 rmoveto
          169 110 80 122 100 -94 46 -84 40 hvcurveto
          -69 32 -62 29 51 vvcurveto
          42 40 29 55 70 27 -23 -58 -19 -1 -16 -17 callgsubr
          -7 76 6 rlineto
          7 91 17 81 -42 callsubr
          13 rlineto
          0 -72 27 -100 -156 -111 -83 -117 -95 80 -47 78 -38 vhcurveto
          75 -37 73 -28 -55 vvcurveto
          -47 -41 -30 -63 -84 -26 30 110 vhcurveto
          -84 -7 rlineto
          -1 -82 -15 -88 0 vvcurveto
          8 -14 rlineto
          0 71 -38 105 vhcurveto
          164 873 -104 callsubr
        </CharString>
        <CharString name="Scedilla">
          -12 25 callgsubr
          140 88 362 215 -95 95 hstem
          202 -86 rmoveto
          -88 callgsubr
          9 33 rlineto
          156 7 101 77 117 vvcurveto
          100 -94 46 -84 40 vhcurveto
          -69 32 -62 29 51 vvcurveto
          42 40 29 55 70 27 -23 -58 -19 -1 -16 -17 callgsubr
          -7 76 6 rlineto
          7 91 17 81 -42 callsubr
          13 rlineto
          0 -72 27 -100 -156 -111 -83 -117 -95 80 -47 78 -38 vhcurveto
          75 -37 73 -28 -55 vvcurveto
          -47 -41 -30 -63 -84 -26 30 110 vhcurveto
          -84 -7 rlineto
          -1 -82 -15 -88 0 vvcurveto
          8 -14 rlineto
          0 58 -31 89 -6 vhcurveto
          endchar
        </CharString>
        <CharString name="Scircumflex">
          6 callgsubr
          250 -20 hstem
          160 709 -96 callgsubr
          89 -762 rmoveto
          169 110 80 122 100 -94 46 -84 40 hvcurveto
          -69 32 -62 29 51 vvcurveto
          42 40 29 55 70 27 -23 -58 -19 -1 -16 -17 callgsubr
          -7 76 6 rlineto
          7 91 17 81 -42 callsubr
          13 rlineto
          0 -72 27 -100 -156 -111 -83 -117 -95 80 -47 78 -38 vhcurveto
          75 -37 73 -28 -55 vvcurveto
          -47 -41 -30 -63 -84 -26 30 110 vhcurveto
          -84 -7 rlineto
          -1 -82 -15 -88 0 vvcurveto
          8 -14 rlineto
          0 71 -38 105 vhcurveto
          endchar
        </CharString>
        <CharString name="Scommaaccent">
          -12 -297 -21 306 89 482 95 hstem
          252 -12 rmoveto
          169 110 80 122 100 -94 46 -84 40 hvcurveto
          -69 32 -62 29 51 vvcurveto
          42 40 29 55 70 27 -23 -58 -19 -1 -16 -17 callgsubr
          -7 76 6 rlineto
          7 91 17 81 -42 callsubr
          13 rlineto
          0 -72 27 -100 -156 -111 -83 -117 -95 80 -47 78 -38 vhcurveto
          75 -37 73 -28 -55 vvcurveto
          -47 -41 -30 -63 -84 -26 30 110 vhcurveto
          -84 -7 rlineto
          -1 -82 -15 -88 0 vvcurveto
          8 -14 rlineto
          0 71 -38 105 vhcurveto
          -76 -88 -93 callgsubr
          -75 callgsubr
        </CharString>
        <CharString name="T">
          17 0 67 -52 -21 569 79 11 -9 callgsubr
          -23 callgsubr
          hintmask 10100000
          0 112 6 56 52 122 -4 0 vhcurveto
          -72 callsubr
          hintmask 10010000
          -11 11 rlineto
          hintmask 10100000
          24 callgsubr
          hintmask 10010000
          -101 11 rlineto
          hintmask 10100000
          -55 callsubr
          endchar
        </CharString>
        <CharString name="Tbar">
          17 0 67 -52 -21 282 56 231 79 11 -20 hstemhm
          hintmask 01110000
          -23 callgsubr
          hintmask 10110000
          0 112 6 56 52 122 -4 -17 callgsubr
          69 -4 5 rlineto
          0 -23 -3 -30 -40 -15 18 50 44 0 49 1 48 vhcurveto
          85 1 4 46 -14 14 rlineto
          0 -36 -3 -38 -1 vhcurveto
          2 92 3 86 4 52 101 -3 5 -11 15 -122 84 6 rcurveline
          0 -8 109 -2 100 vhcurveto
          hintmask 10101000
          -11 11 rlineto
          hintmask 10110000
          24 callgsubr
          hintmask 10101000
          -101 11 rlineto
          hintmask 10110000
          -55 callsubr
          -231 vlineto
          -46 -42 1 0 hvcurveto
          -8 -48 10 -10 rlineto
          0 40 0 46 1 vhcurveto
          endchar
        </CharString>
        <CharString name="Tcaron">
          17 0 67 -52 -21 569 79 223 -20 hstemhm
          hintmask 01110000
          -23 callgsubr
          hintmask 10110000
          0 112 6 56 52 122 -4 0 vhcurveto
          -72 callsubr
          -11 11 24 callgsubr
          -101 11 -55 callsubr
          214 298 -104 callsubr
        </CharString>
        <CharString name="Tcedilla">
          17 25 callgsubr
          151 67 496 79 11 -20 hstemhm
          hintmask 11110000
          232 -86 rmoveto
          -88 callgsubr
          12 44 rlineto
          59 -1 84 -3 0 vvcurveto
          -72 callsubr
          hintmask 11101000
          -11 11 rlineto
          hintmask 11110000
          24 callgsubr
          hintmask 11101000
          -101 11 rlineto
          hintmask 11110000
          -55 callsubr
          -398 vlineto
          -85 -12 -12 -88 -8 vhcurveto
          -8 -66 rlineto
          0 89 5 59 1 vhcurveto
          endchar
        </CharString>
        <CharString name="Thorn">
          21 0 65 -53 -21 440 81 65 36 callgsubr
          hintmask 10100100
          260 536 rmoveto
          2 30 10 8 52 8 6 67 rcurveline
          hintmask 10110000
          0 -98 -7 -44 vhcurveto
          hintmask 10101000
          -48 -66 -66 callgsubr
          hintmask 01110000
          0 21 1 14 29 7 -11 -41 -36 callgsubr
          -56 -15 -16 -58 -26 callsubr
          hintmask 10110000
          0 84 9 56 46 107 33 callsubr
          -4 -27 callsubr
          -22 -3 -26 -31 -7 9 40 vhcurveto
          30 71 vlineto
          136 106 83 109 117 -76 59 -151 hvcurveto
          -76 hlineto
          6 1 6 1 12 vhcurveto
          -6 -119 rmoveto
          11 1 4 3 18 hhcurveto
          98 44 -32 -73 -62 -29 -37 -58 -9 hvcurveto
          -20 -38 7 7 -25 hvcurveto
          42 2 70 3 73 vhcurveto
          endchar
        </CharString>
        <CharString name="U">
          -22 callgsubr
          6 -31 callsubr
          219 236 rmoveto
          7 291 2 35 12 13 42 5 rlinecurve
          7 68 42 callsubr
          -78 -6 -41 -57 -86 3 0 vhcurveto
          -9 -66 2 -4 rlineto
          0 21 2 11 26 6 -10 -44 vhcurveto
          -319 vlineto
          -144 78 -72 154 167 91 82 150 vhcurveto
          311 vlineto
          32 8 7 50 11 vhcurveto
          hintmask 10100000
          6 67 42 callsubr
          -68 -6 -51 -38 -79 3 -53 callgsubr
          -66 2 -4 rlineto
          0 22 2 11 25 6 -10 -44 1 vhcurveto
          0 4 -248 -66 vvcurveto
          -87 -41 -43 -81 -80 -44 57 100 vhcurveto
          endchar
        </CharString>
        <CharString name="Uacute">
          -22 callgsubr
          215 -20 hstem
          -107 callgsubr
          295 539 -106 callsubr
        </CharString>
        <CharString name="Ubreve">
          -22 callgsubr
          80 95 68 -20 hstem
          -107 callgsubr
          114 581 -91 callgsubr
        </CharString>
        <CharString name="Ucircumflex">
          -22 callgsubr
          hstem
          -107 callgsubr
          -20 475 -102 callsubr
        </CharString>
        <CharString name="Udieresis">
          -22 callgsubr
          64 128 hstem
          -107 callgsubr
          206 470 -103 callsubr
        </CharString>
        <CharString name="Ugrave">
          -22 callgsubr
          215 -20 hstem
          -107 callgsubr
          -42 526 -97 callsubr
        </CharString>
        <CharString name="Uhungarumlaut">
          -22 callgsubr
          215 -20 hstem
          -107 callgsubr
          190 558 -86 callsubr
        </CharString>
        <CharString name="Umacron">
          -22 callgsubr
          66 86 6 48 callsubr
          -107 callgsubr
          266 564 rmoveto
          hintmask 11100000
          -89 callsubr
        </CharString>
        <CharString name="Uogonek">
          103 -241 71 158 91 498 65 6 48 callsubr
          519 -146 rmoveto
          0 -37 -24 -34 -30 -20 19 29 36 17 26 95 108 vhcurveto
          43 49 21 54 69 vvcurveto
          311 vlineto
          32 8 7 50 11 vhcurveto
          6 67 rlineto
          hintmask 11100000
          0 -68 -6 -51 -38 -79 3 -53 callgsubr
          -66 2 -4 rlineto
          0 22 2 11 25 6 -10 -44 1 vhcurveto
          0 4 -248 -66 vvcurveto
          -87 -41 -43 -81 -79 -45 56 101 vhcurveto
          7 291 2 35 12 13 42 5 rlinecurve
          hintmask 11010000
          7 68 rlineto
          hintmask 11100000
          0 -78 -6 -41 -57 -86 3 0 vhcurveto
          -9 -66 2 -4 rlineto
          0 21 2 11 26 6 -10 -44 vhcurveto
          -319 vlineto
          -144 78 -72 154 33 29 3 7 26 vhcurveto
          -64 -68 -24 -40 -40 vvcurveto
          -56 46 -35 74 vhcurveto
          50 17 52 49 -39 callsubr
        </CharString>
        <CharString name="Uring">
          -22 callgsubr
          36 53 78 55 hstem
          -107 callgsubr
          123 495 -81 callsubr
        </CharString>
        <CharString name="Utilde">
          -22 callgsubr
          94 -3 callsubr
          hintmask 11010100
          -107 callgsubr
          -17 478 rmoveto
          0 40 56 25 vhcurveto
          hintmask 11100100
          -56 callgsubr
          hintmask 11001100
          -45 callsubr
        </CharString>
        <CharString name="V">
          73 6 -21 593 64 8 -1 callgsubr
          72 515 rmoveto
          57 -187 89 -343 0 vvcurveto
          165 20 184 521 13 38 9 9 32 5 rlinecurve
          7 66 rlineto
          0 -64 -2 -52 -64 -84 5 -20 callsubr
          -62 5 -7 rlineto
          39 hlineto
          38 13 -8 -23 -31 -99 -315 -27 -70 hvcurveto
          -15 hlineto
          0 -91 376 36 vvcurveto
          27 10 5 67 6 vhcurveto
          5 61 rlineto
          hintmask 10100000
          -6 8 42 callsubr
          -96 -8 -74 -43 -83 2 -20 callsubr
          -60 4 -7 41 -2 22 -18 12 -42 rlinecurve
          endchar
        </CharString>
        <CharString name="W">
          10 callsubr
          8 -1 callgsubr
          731 5 rmoveto
          176 521 13 39 9 8 30 5 rlinecurve
          7 66 rlineto
          0 -61 -2 -51 -61 -82 5 -53 callgsubr
          -62 5 -7 rlineto
          38 hlineto
          37 13 -7 -21 -31 -97 -318 -26 -70 hvcurveto
          -13 hlineto
          0 -89 376 36 vvcurveto
          28 10 4 65 6 vhcurveto
          5 61 rlineto
          hintmask 10100000
          -5 8 42 callsubr
          -88 -8 -75 -46 -91 2 -53 callgsubr
          -60 5 -7 47 -1 19 -10 7 -33 rlinecurve
          3 -12 3 -14 2 -16 -31 -109 -54 -184 -25 -67 rrcurveto
          -13 hlineto
          0 -89 373 40 vvcurveto
          26 11 5 64 6 vhcurveto
          5 61 rlineto
          hintmask 10100000
          -5 8 42 callsubr
          -83 -8 -81 -42 -80 2 -20 callsubr
          -60 4 -7 39 -2 21 -18 12 -42 rlinecurve
          56 -187 85 -343 0 vvcurveto
          161 20 104 337 rlineto
          10 hlineto
          42 -159 36 -152 8 -46 rrcurveto
          endchar
        </CharString>
        <CharString name="Wacute">
          10 callsubr
          215 -20 -101 callgsubr
          93 790 -106 callsubr
        </CharString>
        <CharString name="Wcircumflex">
          10 callsubr
          -101 callgsubr
          -222 726 -102 callsubr
        </CharString>
        <CharString name="Wdieresis">
          10 callsubr
          64 128 -101 callgsubr
          4 721 -103 callsubr
        </CharString>
        <CharString name="Wgrave">
          10 callsubr
          215 -20 -101 callgsubr
          -243 777 -97 callsubr
        </CharString>
        <CharString name="X">
          130 1 60 -47 -21 589 60 3 -20 24 -31 callsubr
          158 200 rmoveto
          -49 -64 -51 -54 -45 -16 -6 -60 rcurveline
          4 -10 rlineto
          0 77 5 39 35 95 -7 0 vhcurveto
          6 62 -4 7 rlineto
          -34 2 -15 9 19 vvcurveto
          14 10 17 25 35 vhcurveto
          66 93 86 -127 rlineto
          10 -15 5 -11 -10 vvcurveto
          -18 -17 -8 -37 -2 vhcurveto
          -6 -61 rlineto
          hintmask 01100000
          5 -7 rlineto
          hintmask 10010000
          0 129 8 51 42 88 -3 0 vhcurveto
          8 66 -3 4 -56 3 -37 26 -39 55 rlinecurve
          -117 169 108 149 45 62 25 24 62 21 rlinecurve
          5 61 -4 7 31 callsubr
          -64 -3 -48 vhcurveto
          hintmask 10010000
          -44 -63 3 -25 hhcurveto
          -6 -58 rlineto
          hintmask 10100000
          2 -5 rlineto
          36 -2 13 -7 -16 vvcurveto
          -23 -62 -81 -36 -53 vhcurveto
          -52 77 -37 54 21 vvcurveto
          19 18 9 42 2 vhcurveto
          5 58 rlineto
          hintmask 10001000
          -5 9 31 callsubr
          -91 -7 -62 -75 -84 2 -53 callgsubr
          -64 4 -5 55 -10 35 -18 38 -56 rlinecurve
          107 -160 rlineto
          endchar
        </CharString>
        <CharString name="Y">
          -17 callsubr
          24 -31 callsubr
          227 552 rmoveto
          20 15 8 45 2 vhcurveto
          5 58 rlineto
          hintmask 10001000
          -5 9 rlineto
          hintmask 01100000
          0 -109 -8 -51 -40 -89 3 -53 callgsubr
          -64 3 -5 62 -13 21 -27 30 -60 rlinecurve
          98 -191 rlineto
          23 -44 6 -24 -34 vvcurveto
          -30 vlineto
          -67 -12 -17 -78 -10 vhcurveto
          -7 -69 rlineto
          hintmask 10010000
          0 99 11 57 50 115 -4 -17 callgsubr
          69 50 callgsubr
          -28 -3 -22 -37 -11 16 49 1 vhcurveto
          1 73 -1 29 18 36 96 179 rcurveline
          42 76 23 34 56 18 7 61 rcurveline
          -4 7 31 callsubr
          -56 -4 -46 vhcurveto
          hintmask 10010000
          -44 -64 4 -25 hhcurveto
          -7 -58 rlineto
          hintmask 10100000
          2 -5 rlineto
          36 -2 15 -7 -14 vvcurveto
          -13 -5 -17 -9 -18 vhcurveto
          -79 -165 rlineto
          -10 hlineto
          -10 24 -75 159 23 vvcurveto
          endchar
        </CharString>
        <CharString name="Yacute">
          -17 callsubr
          232 -20 -94 callsubr
          270 223 -106 callsubr
        </CharString>
        <CharString name="Ycircumflex">
          -17 callsubr
          hstemhm
          hintmask 01100000
          227 552 rmoveto
          20 15 8 45 2 vhcurveto
          5 58 -5 -13 callsubr
          -109 -8 -51 -40 -89 3 -53 callgsubr
          -64 3 -5 62 -13 21 -27 30 -60 rlinecurve
          98 -191 rlineto
          23 -44 6 -24 -34 vvcurveto
          -30 vlineto
          -67 -12 -17 -78 -10 vhcurveto
          -7 -69 rlineto
          hintmask 10010000
          0 99 11 57 50 115 -4 -17 callgsubr
          69 50 callgsubr
          -28 -3 -22 -37 -11 16 49 1 vhcurveto
          1 73 -1 29 18 36 96 179 rcurveline
          42 76 23 34 56 18 7 61 rcurveline
          -4 7 31 callsubr
          -56 -4 -46 vhcurveto
          hintmask 10010000
          -44 -64 4 -25 hhcurveto
          -7 -58 rlineto
          hintmask 10100000
          2 -5 rlineto
          36 -2 15 -7 -14 vvcurveto
          -13 -5 -17 -9 -18 vhcurveto
          -79 -165 rlineto
          -10 hlineto
          -10 24 -75 159 23 vvcurveto
          -45 159 -102 callsubr
        </CharString>
        <CharString name="Ydieresis">
          -17 callsubr
          81 128 -94 callsubr
          181 154 -103 callsubr
        </CharString>
        <CharString name="Ygrave">
          -17 callsubr
          232 -20 -94 callsubr
          -66 210 -97 callsubr
        </CharString>
        <CharString name="Z">
          5 callsubr
          13 -9 callgsubr
          531 16 rmoveto
          4 98 21 131 0 vvcurveto
          -85 -7 -16 -103 -34 -45 -67 -6 rlinecurve
          -156 -11 49 76 142 224 170 226 rlinecurve
          -18 41 -293 3 rlineto
          hintmask 10010000
          -178 11 -10 -10 rlineto
          -3 -92 -14 -124 0 vvcurveto
          85 6 7 93 23 24 85 10 rlinecurve
          127 8 -351 -529 rlineto
          hintmask 01100000
          25 -45 75 8 395 -6 rlineto
          endchar
        </CharString>
        <CharString name="Zacute">
          5 callsubr
          -76 76 216 -20 -82 callsubr
          -29 778 -106 callsubr
        </CharString>
        <CharString name="Zcaron">
          5 callsubr
          -76 76 224 -20 -82 callsubr
          -61 864 -104 callsubr
        </CharString>
        <CharString name="Zdotaccent">
          5 callsubr
          -76 76 61 152 -82 callsubr
          -207 705 -85 callsubr
        </CharString>
        <CharString name="a">
          -42 callgsubr
          283 -20 -97 callgsubr
          hintmask 10110000
          -95 callgsubr
          endchar
        </CharString>
        <CharString name="a.sups">
          -74 callgsubr
        </CharString>
        <CharString name="aacute">
          -42 callgsubr
          488 -20 -97 callgsubr
          hintmask 10110000
          -95 callgsubr
          235 406 -106 callsubr
        </CharString>
        <CharString name="abreve">
          -42 callgsubr
          329 95 60 -20 hstemhm
          hintmask 10111000
          477 108 rmoveto
          -106 callgsubr
          rlineto
          hintmask 01111000
          5 -6 rlineto
          hintmask 10111000
          -95 callgsubr
          71 424 -78 callgsubr
        </CharString>
        <CharString name="acircumflex">
          -42 callgsubr
          507 -20 -97 callgsubr
          hintmask 10110000
          -95 callgsubr
          -70 342 -102 callsubr
        </CharString>
        <CharString name="acute">
          544 -21 214 -20 hstem
          350 666 -37 callsubr
        </CharString>
        <CharString name="acute.cap">
          718 -21 160 -20 hstem
          359 775 -106 callsubr
        </CharString>
        <CharString name="adieresis">
          -42 callgsubr
          337 128 -97 callgsubr
          hintmask 10110000
          -95 callgsubr
          157 337 -103 callsubr
        </CharString>
        <CharString name="ae">
          25 callsubr
          9 48 callgsubr
          277 54 rmoveto
          -4 -54 rlineto
          hintmask 01010000
          4 -6 rlineto
          hintmask 10001000
          -57 callsubr
          hintmask 10000100
          -7 9 rlineto
          hintmask 10010000
          -37 callgsubr
          hintmask 00110000
          -19 callsubr
          hintmask 10010000
          2 callsubr
          endchar
        </CharString>
        <CharString name="aeacute">
          25 callsubr
          269 -20 hstemhm
          hintmask 10010100
          277 54 rmoveto
          -4 -54 rlineto
          hintmask 01010100
          4 -6 rlineto
          hintmask 10001100
          -57 callsubr
          -7 9 rlineto
          -37 callgsubr
          hintmask 00110100
          -19 callsubr
          hintmask 10010100
          2 callsubr
          292 447 -37 callsubr
        </CharString>
        <CharString name="agrave">
          -42 callgsubr
          488 -20 -97 callgsubr
          hintmask 10110000
          -95 callgsubr
          -77 393 -97 callsubr
        </CharString>
        <CharString name="amacron">
          -42 callgsubr
          339 86 6 -20 -97 callgsubr
          hintmask 10101000
          -95 callgsubr
          216 431 rmoveto
          hintmask 10110000
          -89 callsubr
        </CharString>
        <CharString name="ampersand">
          98 -12 90 297 98 163 -20 hstem
          639 208 rmoveto
          17 6 71 80 -1 5 -31 38 rlineto
          -7 hlineto
          0 -42 -40 -22 vhcurveto
          -32 -117 19 -37 hhcurveto
          -15 -5 -73 -80 rlineto
          -4 vlineto
          34 -39 rlineto
          6 hlineto
          0 34 39 21 vhcurveto
          36 -4 rlineto
          -92 -12 -62 -53 -96 hhcurveto
          -75 -58 34 55 -31 hvcurveto
          194 112 98 88 74 115 rrcurveto
          10 13 17 25 13 vvcurveto
          25 -48 78 0 vhcurveto
          -34 hlineto
          -10 -10 -6 -97 -43 -72 -88 -83 rlinecurve
          -5 3 rlineto
          0 5 10 13 vvcurveto
          42 -38 31 -53 -102 -88 -104 -121 -156 102 -104 156 129 118 95 132 33 vhcurveto
          -452 60 rmoveto
          59 31 41 44 24 14 -15 -26 -38 -22 -25 -85 -52 vhcurveto
          -4 18 -2 18 20 vvcurveto
          endchar
        </CharString>
        <CharString name="aogonek">
          -8 -241 69 172 56 98 73 283 -20 hstem
          534 -148 rmoveto
          0 -37 -24 -34 -30 -19 20 28 32 18 30 53 62 vhcurveto
          26 -1 24 -1 0 vvcurveto
          6 50 -3 7 -35 3 -15 14 -11 36 rlinecurve
          -106 callgsubr
          5 -6 rlineto
          0 69 6 72 vhcurveto
          -60 -62 -33 -45 -45 vvcurveto
          -56 46 -33 71 vhcurveto
          49 16 51 49 0 vvcurveto
          -293 566 rmoveto
          13 hlineto
          43 -161 rlineto
          -1 -17 -24 -1 -16 hhcurveto
          -53 hlineto
          endchar
        </CharString>
        <CharString name="approxequal">
          -46 96 97 -94 -21 57 97 44 97 -58 97 18 -20 hstemhm
          hintmask 10001000
          74 259 rmoveto
          0 48 56 -9 callsubr
          hintmask 01101000
          -42 -128 28 callgsubr
          11 -181 rmoveto
          0 48 57 -9 callsubr
          hintmask 01110100
          -42 -128 39 -50 hhcurveto
          -19 -4 -91 -102 rlineto
          -10 vlineto
          35 -38 rlineto
          endchar
        </CharString>
        <CharString name="aring">
          -42 callgsubr
          309 53 78 55 hstemhm
          hintmask 10111000
          477 108 rmoveto
          -106 callgsubr
          rlineto
          hintmask 01111000
          5 -6 rlineto
          hintmask 10111000
          -95 callgsubr
          74 362 -81 callsubr
        </CharString>
        <CharString name="aringacute">
          -42 callgsubr
          305 168 -50 50 135 -20 hstemhm
          hintmask 10110100
          477 108 rmoveto
          -106 callgsubr
          rlineto
          hintmask 01110100
          5 -6 rlineto
          hintmask 10101100
          -95 callgsubr
          75 353 12 callgsubr
          hintmask 10110100
          7 callsubr
          122 229 0 callsubr
        </CharString>
        <CharString name="asciicircum">
          -63 97 -21 406 -20 hstem
          286 482 rmoveto
          -97 -4 -82 -191 rlineto
          -36 -84 -39 -93 0 vvcurveto
          7 -13 77 -20 rlineto
          0 37 103 33 77 vhcurveto
          50 124 rlineto
          7 hlineto
          60 -137 rlineto
          34 -76 39 -87 0 vvcurveto
          16 -5 65 42 rlineto
          0 -41 87 -35 77 vhcurveto
          -31 71 -51 121 -39 callsubr
        </CharString>
        <CharString name="asciitilde">
          -46 195 97 -93 -21 56 97 18 -9 callgsubr
          73 178 rmoveto
          0 48 56 27 vhcurveto
          hintmask 10010000
          43 129 -39 50 hhcurveto
          hintmask 01010000
          19 4 91 102 rlineto
          10 vlineto
          -35 38 rlineto
          -11 hlineto
          hintmask 10010000
          0 -47 -57 -28 vhcurveto
          hintmask 01100000
          -43 -129 28 callgsubr
          endchar
        </CharString>
        <CharString name="asterisk">
          -140 424 -21 341 -20 hstem
          62 673 rmoveto
          -9 -3 rlineto
          -12 -35 0 -45 0 vvcurveto
          0 56 -13 53 -17 vhcurveto
          7 6 8 41 rlineto
          -53 40 -50 26 0 vvcurveto
          -204 vmoveto
          -10 vlineto
          30 -22 43 -14 0 vvcurveto
          0 29 50 32 45 vhcurveto
          -3 8 -36 20 rlineto
          -55 -38 -40 -39 0 vvcurveto
          194 -63 rmoveto
          10 -3 rlineto
          30 21 26 37 0 vvcurveto
          0 -38 44 -32 44 vhcurveto
          -10 hlineto
          -30 -29 rlineto
          19 -64 25 -50 0 vvcurveto
          120 165 rmoveto
          6 8 rlineto
          -11 35 -27 37 0 vvcurveto
          0 -53 -23 -52 -17 vhcurveto
          -3 -10 18 -37 rlineto
          66 -1 56 8 0 vvcurveto
          -119 165 rmoveto
          -7 8 rlineto
          -36 -44 -14 0 0 5 -57 1 -56 hvcurveto
          7 -4 42 5 rlineto
          21 63 11 55 -39 callsubr
        </CharString>
        <CharString name="at">
          311 -224 66 146 90 309 79 96 80 hstem
          24 89 639 87 vstem
          493 -12 rmoveto
          220 126 148 190 186 -141 130 -217 -260 -197 -221 -242 -231 158 -166 279 -6 hvcurveto
          31 50 rlineto
          5 1 6 5 vvcurveto
          -256 7 -124 146 210 vvcurveto
          197 138 160 202 183 116 -99 -169 -126 -69 -90 -120 vhcurveto
          -6 6 rlineto
          24 158 53 204 0 vvcurveto
          -8 17 -80 14 -12 -7 -7 -22 -87 18 rlineto
          -114 -127 -168 -164 -89 41 -57 74 hvcurveto
          51 36 49 59 61 111 8 -1 rcurveline
          -11 -43 -23 -105 -16 vvcurveto
          -25 16 -16 28 vhcurveto
          -147 117 rmoveto
          -13 -9 38 46 100 44 98 42 39 42 -25 -4 7 hvcurveto
          -139 -53 -71 -114 -28 hhcurveto
          endchar
        </CharString>
        <CharString name="atilde">
          -42 callgsubr
          336 -14 callsubr
          hintmask 10110010
          477 108 rmoveto
          -106 callgsubr
          rlineto
          hintmask 01110010
          5 -6 rlineto
          hintmask 10101010
          -95 callgsubr
          -58 318 -2 callgsubr
          hintmask 10110010
          -74 callsubr
          hintmask 10100100
          -60 callgsubr
        </CharString>
        <CharString name="b">
          -8 -8 77 -48 -21 430 76 -61 61 -5 -9 callgsubr
          162 hmoveto
          hintmask 10010000
          30 66 -6 -2 30 hvcurveto
          136 85 59 99 77 -82 32 -31 6 hvcurveto
          23 8 63 41 70 vvcurveto
          79 -63 43 -115 vhcurveto
          hintmask 10001000
          0 -107 -5 -28 -28 -93 2 -53 callgsubr
          -53 7 -6 rlineto
          hintmask 01010000
          0 18 1 10 18 7 -11 -27 vhcurveto
          -1 -296 rlineto
          -39 -12 -13 -46 -8 vhcurveto
          -7 -58 rlineto
          0 80 7 48 vhcurveto
          135 213 rmoveto
          49 -10 26 -27 -37 vvcurveto
          hintmask 10100000
          -45 -28 -25 -50 -53 -21 12 30 vhcurveto
          4 102 rlineto
          2 79 rmoveto
          23 2 62 4 40 vhcurveto
          10 1 2 3 11 hhcurveto
          73 33 -22 -46 -58 -51 -19 0 -17 -58 7 0 hvcurveto
          endchar
        </CharString>
        <CharString name="b.sups">
          -190 334 62 181 70 174 -20 hstem
          49 718 rmoveto
          -366 vlineto
          6 -7 rlineto
          0 58 -11 57 101 68 68 100 91 -48 54 -78 -8 -27 -17 -23 -33 vhcurveto
          3 118 6 72 9 10 -5 14 rcurveline
          0 -85 -13 -68 -9 vhcurveto
          -4 -40 2 -4 rlineto
          4 6 1 7 hhcurveto
          22 7 -9 -29 hvcurveto
          93 -314 rmoveto
          2 159 rlineto
          7 8 15 7 15 hhcurveto
          34 21 -36 -65 -52 -20 -28 -34 -18 -18 6 2 -5 hvcurveto
          endchar
        </CharString>
        <CharString name="backslash">
          -223 -89 -21 785 -20 hstem
          12 660 rmoveto
          0 78 -283 43 -162 vhcurveto
          42 -165 42 -160 0 vvcurveto
          85 hlineto
          9 11 rlineto
          0 -52 173 -39 152 vhcurveto
          -115 449 rlineto
          -81 hlineto
          endchar
        </CharString>
        <CharString name="bar">
          -218 -248 -21 1076 -20 hstem
          204 807 rmoveto
          -86 -11 -1 -520 rlineto
          -1 -179 0 -355 0 vvcurveto
          12 -11 87 11 rlineto
          0 -1 377 172 vvcurveto
          166 6 339 0 vhcurveto
          endchar
        </CharString>
        <CharString name="braceleft">
          -231 -128 73 639 70 hstem
          129 72 vstem
          44 241 rmoveto
          50 -12 35 -25 -44 -40 -47 -74 -58 vvcurveto
          -64 54 -52 82 50 30 15 0 vhcurveto
          11 54 -8 10 rlineto
          0 -23 -6 -18 -40 -19 27 36 vhcurveto
          42 27 76 48 vvcurveto
          52 -30 31 -43 14 vhcurveto
          6 vlineto
          40 11 33 30 52 43 -27 73 38 vvcurveto
          34 18 26 38 16 25 -5 0 vhcurveto
          13 56 -7 10 rlineto
          0 -39 9 -34 -92 -57 -51 -65 vhcurveto
          -57 47 -74 -44 vvcurveto
          -36 -36 -25 -45 -13 vhcurveto
          endchar
        </CharString>
        <CharString name="braceright">
          -231 -128 69 639 74 hstem
          120 73 vstem
          278 289 rmoveto
          -50 10 -35 27 44 39 47 72 57 vvcurveto
          63 -55 53 -81 -50 -30 -15 0 vhcurveto
          -11 -55 8 -9 rlineto
          0 22 5 19 39 19 -27 -36 vhcurveto
          -40 -27 -74 -46 vvcurveto
          -53 30 -30 43 -15 vhcurveto
          -6 vlineto
          -40 -12 -33 -29 -51 -45 27 -75 -40 vvcurveto
          -34 -17 -26 -39 -16 -24 5 0 vhcurveto
          -13 -55 6 -10 rlineto
          0 40 -9 33 93 57 52 69 vhcurveto
          56 -47 74 44 vvcurveto
          37 36 26 45 12 vhcurveto
          endchar
        </CharString>
        <CharString name="bracketleft">
          -235 -111 -21 777 -20 hstem
          296 -132 rmoveto
          7 55 -4 9 -107 21 rlineto
          607 vlineto
          104 20 7 57 -4 8 -218 -11 rlineto
          0 11 -279 -100 vvcurveto
          -100 -11 -276 0 vhcurveto
          endchar
        </CharString>
        <CharString name="bracketright">
          -235 -111 -21 777 -20 hstem
          21 645 rmoveto
          -7 -56 4 -9 107 -20 rlineto
          -607 vlineto
          -104 -21 -7 -56 4 -8 218 11 rlineto
          0 -11 279 100 vvcurveto
          100 11 276 0 vhcurveto
          endchar
        </CharString>
        <CharString name="breve">
          547 95 68 -20 hstem
          199 642 -91 callgsubr
        </CharString>
        <CharString name="breve.cap">
          693 95 60 -20 hstem
          199 788 -78 callgsubr
        </CharString>
        <CharString name="brokenbar">
          -218 -248 -21 1076 -20 hstem
          117 158 rmoveto
          -1 -162 0 -180 -74 vvcurveto
          12 -11 87 11 rlineto
          0 -1 230 191 vvcurveto
          -10 10 rlineto
          10 202 rmoveto
          1 175 5 246 0 vvcurveto
          -16 11 -86 -11 rlineto
          -142 -1 -142 -142 vvcurveto
          9 -7 rlineto
          endchar
        </CharString>
        <CharString name="bullet">
          -212 113 242 hstem
          167 113 rmoveto
          74 49 52 73 69 -44 48 -73 -74 -49 -52 -73 -69 42 -48 75 hvcurveto
          endchar
        </CharString>
        <CharString name="c">
          -29 callsubr
          -92 callsubr
          endchar
        </CharString>
        <CharString name="c.sups">
          -244 331 76 179 64 hstem
          259 425 rmoveto
          0 -31 -18 -36 -43 -22 35 69 49 17 26 35 23 12 -14 -29 vhcurveto
          -22 vlineto
          51 3 rlineto
          3 56 11 49 0 vvcurveto
          -3 -27 callsubr
          -34 14 -53 -98 -68 -67 -98 -95 56 -59 94 44 61 51 0 vhcurveto
          -13 41 rlineto
          endchar
        </CharString>
        <CharString name="cacute">
          -29 callsubr
          205 -20 -92 callsubr
          182 642 -106 callsubr
        </CharString>
        <CharString name="caron">
          542 -21 203 -20 hstem
          33 679 rmoveto
          73 -70 82 -88 0 vvcurveto
          20 hlineto
          0 82 88 74 70 vhcurveto
          -30 42 -16 3 -44 -35 -48 -32 -27 -18 rlinecurve
          -28 18 -48 32 -45 35 -15 -3 rcurveline
          endchar
        </CharString>
        <CharString name="caron.alt">
          508 -21 246 -20 hstem
          246 733 -40 callsubr
          107 15 109 -39 callsubr
        </CharString>
        <CharString name="caron.cap">
          717 -21 169 -20 hstem
          341 861 -104 callsubr
        </CharString>
        <CharString name="ccaron">
          -29 callsubr
          213 -20 -92 callsubr
          161 728 -104 callsubr
        </CharString>
        <CharString name="ccedilla">
          -28 25 callgsubr
          143 84 -84 189 141 188 -85 85 hstem
          230 -86 rmoveto
          -88 callgsubr
          10 36 rlineto
          89 5 67 25 0 vvcurveto
          9 10 rlineto
          2 68 13 84 0 vvcurveto
          -93 -6 rlineto
          -73 -11 -29 -29 -54 hhcurveto
          -79 -44 66 123 111 39 49 78 57 25 -19 -44 -22 -1 -20 0 hvcurveto
          92 5 rlineto
          6 87 17 67 0 vvcurveto
          -6 11 rlineto
          0 -92 20 -70 -178 -111 -103 -169 -147 84 -91 138 -8 vhcurveto
          endchar
        </CharString>
        <CharString name="ccircumflex">
          -29 callsubr
          252 -20 -92 callsubr
          -117 576 -96 callgsubr
          endchar
        </CharString>
        <CharString name="cdotaccent">
          -29 callsubr
          55 152 -92 callsubr
          15 574 -85 callsubr
        </CharString>
        <CharString name="cedilla">
          25 callgsubr
          180 -20 hstem
          141 -86 rmoveto
          -88 callgsubr
          21 73 rlineto
          -52 hlineto
          endchar
        </CharString>
        <CharString name="cent">
          -120 -138 -21 248 198 371 -20 hstem
          373 118 rmoveto
          0 -51 -29 -55 -70 -39 59 109 86 32 46 61 40 22 -25 -46 vhcurveto
          -33 vlineto
          65 4 rlineto
          5 84 17 71 0 vvcurveto
          -4 -13 callsubr
          -35 14 -53 5 vhcurveto
          20 177 -6 9 -70 -9 -20 -178 rlineto
          -123 -16 -84 -100 -136 vvcurveto
          -119 58 -81 98 -23 vhcurveto
          -16 -148 6 -7 69 8 15 140 rlineto
          59 7 83 67 0 vvcurveto
          -16 52 rlineto
          endchar
        </CharString>
        <CharString name="circumflex">
          552 -21 199 -20 hstem
          66 535 -96 callgsubr
          endchar
        </CharString>
        <CharString name="circumflex.cap">
          728 -21 hstem
          57 711 -102 callsubr
        </CharString>
        <CharString name="colon">
          -314 -11 158 115 158 hstem
          114 -11 rmoveto
          -73 callgsubr
          273 vmoveto
          -73 callgsubr
          endchar
        </CharString>
        <CharString name="comma">
          -314 -119 -21 282 -20 hstem
          -50 callgsubr
          endchar
        </CharString>
        <CharString name="commaaccent">
          -297 43 callsubr
          118 -100 -93 callgsubr
          -75 callgsubr
        </CharString>
        <CharString name="copyright">
          144 -12 49 92 57 155 123 -57 57 85 49 hstem
          337 129 rmoveto
          66 53 19 0 hvcurveto
          6 8 rlineto
          44 8 56 0 vhcurveto
          -59 -5 rlineto
          -46 -6 -17 -19 -35 hhcurveto
          -50 -22 43 77 72 23 29 46 37 12 -15 -26 -13 -1 -13 0 hvcurveto
          61 3 rlineto
          3 58 11 43 0 vvcurveto
          -3 -27 callsubr
          -60 13 -46 -115 -66 -68 -107 -94 53 -66 101 vhcurveto
          -294 164 rmoveto
          -168 136 -137 168 169 136 137 168 168 -136 137 -169 -168 -136 -137 -168 vhcurveto
          51 hmoveto
          141 113 115 140 141 114 -115 -141 -141 -114 -115 -141 -140 -113 115 141 vhcurveto
          endchar
        </CharString>
        <CharString name="currency">
          -108 161 -21 52 72 174 72 59 -20 hstem
          68 351 rmoveto
          -26 6 -25 12 -22 vhcurveto
          -30 -27 -28 -26 -13 -10 49 -71 rcurveline
          17 -4 rlineto
          0 34 35 34 38 vhcurveto
          -13 23 26 -8 28 hhcurveto
          27 26 7 13 22 hvcurveto
          65 -70 71 52 4 17 rlineto
          0 -37 33 -37 34 vhcurveto
          12 21 7 25 27 vvcurveto
          28 -8 26 -13 22 vhcurveto
          72 67 -51 71 -18 4 rlineto
          0 -34 -39 -34 -38 vhcurveto
          11 -22 -25 7 -27 hhcurveto
          -26 -26 -7 -11 -21 hvcurveto
          -29 30 -27 30 -11 12 -70 -50 rcurveline
          -3 -17 rlineto
          0 37 -35 38 -36 vhcurveto
          -13 -22 -7 -25 -28 vvcurveto
          72 hmoveto
          48 38 39 48 48 40 -39 -48 -48 -40 -39 -48 -48 -38 39 48 vhcurveto
          endchar
        </CharString>
        <CharString name="d">
          35 -9 76 -46 -21 428 77 -61 61 -4 48 callgsubr
          8 callsubr
          hintmask 10001000
          0 -94 -4 -38 -32 -78 2 -20 callsubr
          -53 -35 callgsubr
          hintmask 01010000
          -6 callgsubr
          hintmask 10100000
          -20 callgsubr
          endchar
        </CharString>
        <CharString name="d.sups">
          -177 334 75 -57 -21 254 62 0 107 67 -20 hstemhm
          hintmask 01101000
          223 380 rmoveto
          4 -1 rlineto
          -31 5 24 -17 41 hhcurveto
          40 14 31 57 0 vvcurveto
          -11 16 rlineto
          hintmask 10011000
          0 -13 -9 -12 -12 -8 10 15 194 10 163 13 18 vhcurveto
          -7 12 rlineto
          0 -77 -15 -72 -7 vhcurveto
          -5 -47 rlineto
          0 11 2 5 23 6 -9 -29 vhcurveto
          -70 vlineto
          1 -8 -9 0 -10 hhcurveto
          -101 -68 -67 -100 -91 48 -55 78 7 26 16 30 41 hvcurveto
          -4 39 rmoveto
          0 -17 -15 -22 -34 -21 37 63 vhcurveto
          hintmask 10101000
          41 callsubr
        </CharString>
        <CharString name="dagger">
          -40 -70 -21 408 89 186 47 callgsubr
          -179 47 callsubr
          -399 hlineto
          9 -9 88 6 rlineto
          402 162 vlineto
          7 80 -10 11 -158 -2 1 178 rlineto
          endchar
        </CharString>
        <CharString name="daggerdbl">
          -40 -70 -21 180 89 158 89 167 47 callgsubr
          -160 47 callsubr
          -158 hlineto
          -159 -1 -7 -78 8 -10 rlineto
          158 -171 hlineto
          9 -9 88 6 rlineto
          174 162 vlineto
          7 80 -9 10 -160 -1 rlineto
          158 162 vlineto
          7 80 -9 10 -159 -1 1 159 rlineto
          endchar
        </CharString>
        <CharString name="dcaron">
          35 -9 76 -46 -21 428 77 -61 61 -4 -20 242 -20 hstemhm
          hintmask 10010100
          8 callsubr
          hintmask 10001100
          0 -94 -4 -38 -32 -78 2 -20 callsubr
          -53 -35 callgsubr
          hintmask 01010100
          -6 callgsubr
          hintmask 10100100
          -20 callgsubr
          180 291 -104 callsubr
        </CharString>
        <CharString name="dcroat">
          -77 callsubr
        </CharString>
        <CharString name="degree">
          -250 393 58 145 58 hstem
          21 523 rmoveto
          -72 58 -58 72 72 58 58 72 73 -58 58 -72 -72 -58 -58 -73 vhcurveto
          58 hmoveto
          41 31 32 41 41 31 -32 -41 -41 -31 -31 -41 -41 -31 31 41 vhcurveto
          endchar
        </CharString>
        <CharString name="dieresis">
          563 128 hstem
          284 563 rmoveto
          40 27 28 39 36 -21 25 -38 -41 -27 -28 -40 -35 21 -25 39 hvcurveto
          -179 hmoveto
          41 27 28 39 36 -22 25 -38 -40 -27 -28 -40 -35 21 -25 38 hvcurveto
          endchar
        </CharString>
        <CharString name="dieresis.cap">
          706 128 hstem
          284 706 -103 callsubr
        </CharString>
        <CharString name="divide">
          -46 7 144 56 99 56 144 hstem
          cntrmask 11100000
          482 312 rmoveto
          -18 callsubr
          7 -11 rlineto
          -14 callgsubr
          -244 -293 rmoveto
          16 callsubr
          355 vmoveto
          16 callsubr
          endchar
        </CharString>
        <CharString name="dollar">
          -86 -138 -21 151 79 -79 175 259 83 149 -20 hstem
          154 -159 rmoveto
          68 8 16 145 rlineto
          117 11 73 59 85 -26 callgsubr
          -49 17 -70 3 vhcurveto
          15 140 -6 9 -69 -9 -16 -142 rlineto
          -108 -14 -71 -60 -82 vvcurveto
          -76 65 -36 65 -30 vhcurveto
          61 -27 59 -20 -40 vvcurveto
          -31 -30 -20 -48 -63 -23 23 76 vhcurveto
          -77 -6 rlineto
          -2 -60 -13 -71 0 vvcurveto
          8 -12 rlineto
          0 48 -24 73 -5 vhcurveto
          -15 -144 rlineto
          endchar
        </CharString>
        <CharString name="dotaccent">
          574 152 hstem
          194 574 -85 callsubr
        </CharString>
        <CharString name="dotaccent.cap">
          702 152 hstem
          194 702 -85 callsubr
        </CharString>
        <CharString name="dotbelowcomb">
          -231 -211 157 hstem
          157 -211 rmoveto
          50 31 34 48 45 -26 30 -48 -50 -31 -34 -48 -44 25 -31 49 hvcurveto
          endchar
        </CharString>
        <CharString name="dotlessi">
          -59 callsubr
          24 -20 hstemhm
          hintmask 10001000
          230 406 rmoveto
          3 30 8 7 41 5 5 58 rcurveline
          hintmask 10100000
          -25 callgsubr
          hintmask 10010000
          -69 callgsubr
          hintmask 01100000
          -90 callsubr
          hintmask 10100000
          0 73 6 47 37 90 -2 0 vhcurveto
          -39 callgsubr
          0 -14 -2 -18 0 callgsubr
          89 4 121 5 87 vhcurveto
          endchar
        </CharString>
        <CharString name="dotlessj">
          -54 callsubr
        </CharString>
        <CharString name="e">
          -70 callgsubr
          9 -20 hstemhm
          hintmask 10101000
          221 117 rmoveto
          20 -1 28 2 48 vhcurveto
          1 15 23 3 25 hhcurveto
          40 65 -2 0 hvcurveto
          12 74 -8 -13 callsubr
          -67 -7 -27 vhcurveto
          -24 -34 1 -16 hhcurveto
          5 111 rlineto
          21 4 3 36 86 12 -6 -41 -11 -2 -20 0 vhcurveto
          85 6 rlineto
          5 73 14 73 0 vvcurveto
          hintmask 10100010
          -7 9 rlineto
          hintmask 01100100
          -6 -50 -88 -3 -114 -38 callgsubr
          -13 -16 -44 -6 vhcurveto
          -7 -59 rlineto
          hintmask 10110000
          0 75 8 76 109 150 -5 0 vhcurveto
          10 9 rlineto
          7 78 15 72 -42 callsubr
          9 -78 -6 rlineto
          -76 -12 -15 -11 -94 hhcurveto
          -45 -4 6 41 hvcurveto
          endchar
        </CharString>
        <CharString name="e.sups">
          -221 331 73 80 44 61 61 hstem
          124 526 rmoveto
          43 2 17 20 32 hhcurveto
          22 13 -15 -30 -11 -2 -2 -9 -1 hvcurveto
          92 -46 rmoveto
          8 -27 callsubr
          4 20 20 vvcurveto
          79 -39 40 -78 -96 -67 -68 -97 -97 58 -57 98 52 67 51 0 vhcurveto
          -12 39 -5 3 rlineto
          0 -38 -20 -42 -45 -26 26 50 -5 vhcurveto
          4 vlineto
          endchar
        </CharString>
        <CharString name="eacute">
          -70 callgsubr
          214 -20 -103 callgsubr
          hintmask 10110010
          0 75 8 76 109 150 -5 0 vhcurveto
          10 9 rlineto
          7 78 15 72 -42 callsubr
          9 -78 -6 rlineto
          -76 -12 -15 -11 -94 hhcurveto
          -45 -4 6 41 hvcurveto
          215 516 -106 callsubr
        </CharString>
        <CharString name="ebreve">
          -70 callgsubr
          69 95 68 -20 hstemhm
          hintmask 10101011
          -104 callgsubr
          hintmask 01100111
          0 15 1 9 20 5 -8 -34 vhcurveto
          -1 -284 rlineto
          -46 -13 -16 -44 -6 vhcurveto
          -7 -59 rlineto
          hintmask 10110011
          0 75 8 76 109 150 -5 0 vhcurveto
          10 9 rlineto
          7 78 15 72 -42 callsubr
          9 -78 -6 rlineto
          -76 -12 -15 -11 -94 hhcurveto
          -45 -4 6 41 hvcurveto
          58 548 -91 callgsubr
        </CharString>
        <CharString name="ecaron">
          -70 callgsubr
          222 -20 -103 callgsubr
          hintmask 10110010
          0 75 8 76 109 150 -5 0 vhcurveto
          10 9 rlineto
          7 78 15 72 -42 callsubr
          9 -78 -6 rlineto
          -76 -12 -15 -11 -94 hhcurveto
          -45 -4 6 41 hvcurveto
          193 602 -104 callsubr
        </CharString>
        <CharString name="ecircumflex">
          -70 callgsubr
          233 -20 -103 callgsubr
          hintmask 10110010
          0 75 8 76 109 150 -5 0 vhcurveto
          10 9 rlineto
          7 78 15 72 -42 callsubr
          9 -78 -6 rlineto
          -76 -12 -15 -11 -94 hhcurveto
          -45 -4 6 41 hvcurveto
          -89 452 -102 callsubr
        </CharString>
        <CharString name="edieresis">
          -70 callgsubr
          63 128 -103 callgsubr
          hintmask 10110010
          0 75 8 76 109 150 -5 0 vhcurveto
          10 9 rlineto
          7 78 15 72 -42 callsubr
          9 -78 -6 rlineto
          -76 -12 -15 -11 -94 hhcurveto
          -45 -4 6 41 hvcurveto
          137 447 -103 callsubr
        </CharString>
        <CharString name="edotaccent">
          -70 callgsubr
          59 152 -103 callgsubr
          hintmask 10110010
          0 75 8 76 109 150 -5 0 vhcurveto
          10 9 rlineto
          7 78 15 72 -42 callsubr
          9 -78 -6 rlineto
          -76 -12 -15 -11 -94 hhcurveto
          -45 -4 6 41 hvcurveto
          48 443 -85 callsubr
        </CharString>
        <CharString name="egrave">
          -70 callgsubr
          214 -20 -103 callgsubr
          hintmask 10110010
          0 75 8 76 109 150 -5 0 vhcurveto
          10 9 rlineto
          7 78 15 72 -42 callsubr
          9 -78 -6 rlineto
          -76 -12 -15 -11 -94 hhcurveto
          -45 -4 6 41 hvcurveto
          -102 503 -97 callsubr
        </CharString>
        <CharString name="eight">
          -68 callsubr
        </CharString>
        <CharString name="eight.dnom">
          -216 -8 58 277 62 hstem
          30 86 -63 callsubr
        </CharString>
        <CharString name="eight.lf">
          -68 callsubr
        </CharString>
        <CharString name="eight.numr">
          -216 253 57 278 61 hstem
          30 347 rmoveto
          -56 55 -38 72 84 63 53 40 callgsubr
          45 vvcurveto
          55 -55 37 -65 -79 -60 -50 -61 -49 15 callsubr
          24 30 26 15 15 12 9 hvcurveto
          38 -18 35 -16 -28 vvcurveto
          -25 -19 -17 -28 vhcurveto
          -39 242 rmoveto
          20 16 16 25 26 18 -17 -30 -22 -11 -14 -9 -10 vhcurveto
          -34 15 -31 15 27 vvcurveto
          endchar
        </CharString>
        <CharString name="eight.sinf">
          -216 -128 58 277 62 hstem
          30 -34 -63 callsubr
        </CharString>
        <CharString name="eight.sups">
          -216 331 58 277 62 hstem
          30 426 rmoveto
          -56 55 -39 72 84 63 54 40 callgsubr
          44 vvcurveto
          55 -55 38 -65 -79 -60 -50 -62 -48 15 callsubr
          23 31 26 15 14 12 10 hvcurveto
          38 -19 35 -15 -28 vvcurveto
          -26 -19 -16 -28 vhcurveto
          -39 241 rmoveto
          21 16 15 25 26 18 -16 -30 -23 -11 -14 -9 -10 vhcurveto
          -34 16 -31 15 26 vvcurveto
          endchar
        </CharString>
        <CharString name="eight.tf">
          -97 -12 74 457 79 hstem
          32 130 rmoveto
          -87 79 -55 101 120 89 81 105 75 -46 42 -53 32 vhcurveto
          38 21 48 43 71 vvcurveto
          86 -79 54 -90 -112 -83 -78 -91 -74 43 -44 51 -33 vhcurveto
          -43 -20 -63 -44 -84 vvcurveto
          196 -68 rmoveto
          -51 -37 43 51 51 31 26 21 14 hvcurveto
          59 -31 55 -25 -51 vvcurveto
          -46 -33 -32 -45 vhcurveto
          -68 391 rmoveto
          36 25 30 42 41 30 -30 -54 -42 -19 -25 -18 -15 vhcurveto
          -53 28 -48 24 48 vvcurveto
          endchar
        </CharString>
        <CharString name="eight.tosf">
          -107 -12 74 457 79 hstem
          29 130 rmoveto
          -87 78 -55 100 119 88 81 105 75 -45 42 -52 32 vhcurveto
          37 21 47 43 71 vvcurveto
          86 -78 54 -89 -111 -82 -78 -91 -74 42 -44 50 -33 vhcurveto
          -42 -20 -62 -44 -84 vvcurveto
          194 -68 rmoveto
          -50 -36 43 51 51 29 26 21 14 hvcurveto
          58 -31 54 -25 -51 vvcurveto
          -46 -33 -32 -43 vhcurveto
          -67 391 rmoveto
          36 26 30 40 41 29 -30 -54 -42 -19 -25 -17 -15 vhcurveto
          -53 28 -47 24 48 vvcurveto
          endchar
        </CharString>
        <CharString name="ellipsis">
          125 -11 158 hstem
          336 -11 rmoveto
          -73 callgsubr
          219 hmoveto
          -73 callgsubr
          -439 hmoveto
          -73 callgsubr
          endchar
        </CharString>
        <CharString name="emacron">
          -70 callgsubr
          65 86 6 -20 -103 callgsubr
          hintmask 10110001
          0 75 8 76 109 150 -5 0 vhcurveto
          10 9 rlineto
          7 78 15 72 -42 callsubr
          9 -78 -6 rlineto
          -76 -12 -15 -11 -94 hhcurveto
          -45 -4 6 41 hvcurveto
          197 541 rmoveto
          hintmask 10110010
          -89 callsubr
        </CharString>
        <CharString name="emdash">
          324 213 88 -68 -21 93 -9 callgsubr
          877 305 rmoveto
          hintmask 10000000
          -2 -22 -267 -2 -147 hhcurveto
          -439 hlineto
          42 callgsubr
          9 -13 rlineto
          hintmask 10000000
          175 398 1 301 hhcurveto
          11 77 rlineto
          endchar
        </CharString>
        <CharString name="endash">
          -99 213 88 -68 -21 93 -9 callgsubr
          455 305 rmoveto
          -1 -29 -1 -53 -1 vhcurveto
          hintmask 10000000
          -1 -43 -46 0 -41 hhcurveto
          -241 hlineto
          42 callgsubr
          9 -13 rlineto
          hintmask 10000000
          91 206 1 155 hhcurveto
          11 77 rlineto
          endchar
        </CharString>
        <CharString name="eng">
          67 -108 -21 129 54 393 54 4 49 callgsubr
          140 501 rmoveto
          hintmask 11010000
          -34 -65 4 0 hvcurveto
          -6 -49 rlineto
          hintmask 11100000
          7 -9 rlineto
          55 -6 11 -10 -32 vvcurveto
          -10 -293 -2 -39 -13 -14 -34 -4 rlinecurve
          -7 -55 rlineto
          0 55 6 34 55 71 -3 0 vhcurveto
          8 54 -5 5 rlineto
          0 -25 -2 -9 -22 -7 9 27 vhcurveto
          1 217 rlineto
          8 hlineto
          0 98 -133 117 -172 vhcurveto
          -10 -36 -23 -25 -44 -28 -3 -10 rcurveline
          25 -32 118 34 49 59 3 103 rlinecurve
          8 333 1 31 13 13 38 5 rlinecurve
          hintmask 11010000
          4 56 rlineto
          hintmask 11100000
          0 -62 -4 -37 -25 -88 3 0 vhcurveto
          -5 -52 3 -6 rlineto
          0 19 1 9 19 8 -9 -25 vhcurveto
          2 -213 rlineto
          -9 hlineto
          0 -117 159 -93 145 vhcurveto
          0 -54 -3 -30 vhcurveto
          endchar
        </CharString>
        <CharString name="eogonek">
          -40 43 callgsubr
          70 -53 -21 221 74 61 149 -74 74 -56 56 9 -20 hstemhm
          hintmask 10111000
          471 -43 callsubr
          32 17 28 49 58 vhcurveto
          18 11 -1 0 hvcurveto
          10 9 rlineto
          7 78 15 72 -42 callsubr
          9 -78 -6 rlineto
          hintmask 11010100
          -76 -12 -15 -11 -94 hhcurveto
          -45 -4 6 41 20 -1 28 2 48 hvcurveto
          1 15 23 3 25 hhcurveto
          40 65 -2 0 hvcurveto
          12 74 -8 -13 callsubr
          -67 -7 -27 vhcurveto
          -24 -34 1 -16 hhcurveto
          5 111 rlineto
          21 4 3 36 86 12 -6 -41 -11 -2 -20 0 vhcurveto
          85 6 rlineto
          5 73 14 73 0 vvcurveto
          hintmask 11010001
          -7 9 rlineto
          hintmask 11010010
          -6 -50 -88 -3 -114 -38 callgsubr
          -13 -16 22 callsubr
          75 8 76 55 65 -1 -1 52 vhcurveto
          -58 -60 -31 -44 -44 -41 callsubr
          endchar
        </CharString>
        <CharString name="equal">
          -46 119 99 -79 -21 179 99 6 -31 callsubr
          482 224 rmoveto
          -18 callsubr
          rlineto
          hintmask 01100000
          7 -11 rlineto
          hintmask 10010000
          -14 callgsubr
          -7 190 rmoveto
          hintmask 10100000
          -18 callsubr
          7 -11 rlineto
          -14 callgsubr
          endchar
        </CharString>
        <CharString name="estimated">
          245 9 -21 663 -20 hstem
          180 311 rmoveto
          597 8 hlineto
          184 -165 148 -203 -203 -166 -148 -184 -183 166 -148 203 118 107 51 78 67 vhcurveto
          -54 hlineto
          -67 -57 -85 -42 -95 hhcurveto
          -89 -81 37 60 -56 hvcurveto
          -5 6 -4 7 8 vvcurveto
          181 vlineto
          3 2 1 3 vhcurveto
          463 205 rmoveto
          -182 vlineto
          -3 -2 -2 -3 vhcurveto
          -458 hlineto
          -3 -2 2 3 hvcurveto
          178 vlineto
          9 4 8 6 6 vhcurveto
          59 57 79 37 89 hhcurveto
          87 79 -36 -57 57 hvcurveto
          6 -6 4 -7 -9 vvcurveto
          endchar
        </CharString>
        <CharString name="eth">
          -77 callsubr
        </CharString>
        <CharString name="exclam">
          -267 -11 158 558 -20 hstem
          124 -11 rmoveto
          27 callgsubr
          45 -26 30 -48 callsubr
          49 hvcurveto
          -31 247 rmoveto
          15 -13 64 11 62 453 -16 18 -134 -22 -12 -17 rlineto
          endchar
        </CharString>
        <CharString name="exclamdown">
          -267 -221 -21 558 158 hstem
          160 474 rmoveto
          -50 -31 -34 -49 -44 27 -31 47 50 32 34 48 45 -26 31 -49 hvcurveto
          32 -247 rmoveto
          -16 13 -64 -11 -62 -453 17 -18 133 22 12 17 rlineto
          endchar
        </CharString>
        <CharString name="f">
          -91 26 callgsubr
          9 -20 hstemhm
          hintmask 10101000
          -72 callgsubr
          hintmask 10100010
          -7 9 rlineto
          hintmask 01100100
          -53 callsubr
          hintmask 10110000
          -32 callsubr
          endchar
        </CharString>
        <CharString name="f.sups">
          -303 339 51 -34 -21 248 49 121 68 hstemhm
          hintmask 01110000
          23 585 rmoveto
          34 -2 9 -4 1 -20 rrcurveto
          -141 vlineto
          -23 -10 -10 -27 -3 vhcurveto
          -5 -47 rlineto
          hintmask 10110000
          0 57 4 38 29 73 -2 0 vhcurveto
          6 51 -2 3 rlineto
          0 -22 -1 -19 -17 -8 8 19 vhcurveto
          1 166 rlineto
          47 32 -2 0 hvcurveto
          8 49 -3 4 rlineto
          0 -35 -2 -48 vhcurveto
          29 vlineto
          69 1 14 23 44 hhcurveto
          39 28 -26 0 hvcurveto
          9 3 rlineto
          12 35 12 30 0 vvcurveto
          -4 12 rlineto
          0 -30 14 -47 -105 -68 -70 -110 vhcurveto
          -8 vlineto
          -41 -6 -6 -38 rlineto
          endchar
        </CharString>
        <CharString name="fi">
          230 0 56 -56 70 -57 -21 212 74 149 74 -56 56 1 -20 28 -20 hstemhm
          hintmask 10011000
          -72 callgsubr
          hintmask 10010001
          -7 9 rlineto
          hintmask 00110100
          -53 callsubr
          hintmask 01010100
          -32 callsubr
          470 287 rmoveto
          3 30 8 7 41 5 5 58 rcurveline
          -25 callgsubr
          hintmask 10010010
          -69 callgsubr
          hintmask 10010100
          -90 callsubr
          0 73 6 47 37 90 -2 0 vhcurveto
          -39 callgsubr
          0 -14 -2 -18 0 callgsubr
          89 4 121 5 87 vhcurveto
          endchar
        </CharString>
        <CharString name="five">
          -125 -100 103 383 104 48 -20 hstem
          383 130 rmoveto
          93 -86 44 -151 30 vhcurveto
          8 89 rlineto
          108 91 -8 0 hvcurveto
          13 13 26 30 callgsubr
          -38 -2 rlinecurve
          -193 -7 -8 -8 rlineto
          0 -7 -139 -13 -131 vhcurveto
          9 -11 rlineto
          141 -20 48 -27 -52 vvcurveto
          -57 -65 -39 -86 -29 -30 4 9 -27 vhcurveto
          -13 -14 rlineto
          -78 5 23 -24 52 hhcurveto
          142 160 111 119 hvcurveto
          endchar
        </CharString>
        <CharString name="five.dnom">
          -247 -8 77 104 -11 callsubr
          130 -55 callgsubr
        </CharString>
        <CharString name="five.lf">
          -124 -12 103 384 103 48 -20 hstem
          385 202 rmoveto
          99 -71 51 -167 20 vhcurveto
          7 103 rlineto
          108 96 -8 0 hvcurveto
          13 12 26 147 -55 -4 -11 -30 -13 -8 -39 -2 rlinecurve
          -198 -7 -8 -8 rlineto
          0 -7 -142 -11 -134 vhcurveto
          9 -11 rlineto
          131 -8 57 -29 -58 vvcurveto
          -55 -54 -39 -81 -31 -28 5 8 -27 vhcurveto
          -13 -14 rlineto
          -75 5 21 -27 54 hhcurveto
          142 145 109 105 hvcurveto
          endchar
        </CharString>
        <CharString name="five.numr">
          -247 253 76 105 -11 callsubr
          391 rmoveto
          64 -45 33 -111 16 vhcurveto
          4 53 rlineto
          70 62 -5 0 hvcurveto
          10 10 18 104 -43 -3 rlineto
          -20 -7 -10 -6 -25 hhcurveto
          -135 -4 -5 -5 rlineto
          0 -4 -96 -8 -90 vhcurveto
          hintmask 11010000
          -35 callgsubr
          84 -6 35 -16 -31 vvcurveto
          -30 -32 -22 -48 -22 -20 4 7 -17 vhcurveto
          -12 -12 rlineto
          -55 5 15 -20 39 hhcurveto
          99 97 69 69 hvcurveto
          endchar
        </CharString>
        <CharString name="five.sinf">
          -247 -128 77 104 -11 callsubr
          10 -55 callgsubr
        </CharString>
        <CharString name="five.sups">
          -247 331 77 105 -11 callsubr
          469 rmoveto
          65 -45 33 -111 16 vhcurveto
          4 53 rlineto
          70 62 -5 0 hvcurveto
          10 9 18 105 -43 -3 rlineto
          -20 -7 -10 -6 -25 hhcurveto
          -135 -4 -5 -5 rlineto
          0 -4 -96 -8 -91 vhcurveto
          hintmask 11010000
          6 -7 rlineto
          84 -6 35 -16 -32 vvcurveto
          -30 -32 -21 -48 -22 -20 4 7 -17 vhcurveto
          -12 -12 rlineto
          -55 5 15 -21 39 hhcurveto
          99 97 70 68 hvcurveto
          endchar
        </CharString>
        <CharString name="five.tf">
          -97 -12 103 384 103 48 -20 hstem
          404 202 rmoveto
          99 -75 51 -174 20 vhcurveto
          7 103 rlineto
          114 101 -8 0 hvcurveto
          12 12 27 30 callgsubr
          -40 -2 rlinecurve
          -206 -7 -8 -8 rlineto
          0 -7 -142 -12 -134 vhcurveto
          10 -11 rlineto
          138 -8 60 -29 -58 vvcurveto
          -55 -58 -39 -85 -33 -29 5 8 -28 vhcurveto
          -13 -14 rlineto
          -75 5 22 -27 55 hhcurveto
          145 152 109 105 hvcurveto
          endchar
        </CharString>
        <CharString name="five.tosf">
          -107 -100 103 383 104 48 -20 hstem
          395 130 rmoveto
          93 -89 44 -154 30 vhcurveto
          7 89 rlineto
          112 95 -8 0 hvcurveto
          12 13 27 30 callgsubr
          -40 -2 rlinecurve
          -198 -7 -9 -8 rlineto
          0 -7 -139 -12 -131 vhcurveto
          9 -11 rlineto
          146 -20 49 -27 -52 vvcurveto
          -57 -68 -39 -89 -30 -30 4 9 -28 vhcurveto
          -12 -14 rlineto
          -78 4 24 -24 52 hhcurveto
          144 165 111 119 hvcurveto
          endchar
        </CharString>
        <CharString name="fl">
          371 26 callgsubr
          1 -20 28 -20 hstemhm
          hintmask 10101000
          -72 callgsubr
          hintmask 10100001
          -7 9 rlineto
          hintmask 01100100
          -53 callsubr
          hintmask 10100100
          -32 callsubr
          427 -119 rmoveto
          -88 callsubr
          32 callgsubr
          hintmask 10100010
          -28 callsubr
          hintmask 01100100
          -66 callsubr
          hintmask 10110000
          32 callsubr
          endchar
        </CharString>
        <CharString name="florin">
          -136 -161 72 389 63 161 74 hstem
          129 hmoveto
          -65 -2 -19 -24 -31 hhcurveto
          -33 -29 28 35 -9 hvcurveto
          -15 hlineto
          -13 -16 -17 -55 -23 vvcurveto
          -21 47 -20 41 74 72 51 77 24 vhcurveto
          14 43 8 46 4 49 14 195 rcurveline
          -1 53 50 -1 18 hhcurveto
          10 61 -4 5 rlineto
          -18 -51 -1 -53 hhcurveto
          5 56 rlineto
          60 4 8 45 47 hhcurveto
          32 29 -22 -32 25 hvcurveto
          15 1 rlineto
          12 16 17 61 20 vvcurveto
          17 -48 13 -48 -84 -81 -58 -78 -27 vhcurveto
          -10 -24 -6 -25 -1 -25 -2 -23 rcurveline
          -76 -12 -8 -46 4 -6 rlineto
          63 11 -5 -32 1 hvcurveto
          endchar
        </CharString>
        <CharString name="foundryicon">
          231 -59 152 52 157 42 180 -87 87 hstemhm
          hintmask 11100000
          328 344 rmoveto
          45 33 -31 -42 hvcurveto
          -178 -74 136 vlineto
          38 -14 18 -29 -18 -6 -3 -9 vhcurveto
          -180 -74 vlineto
          hintmask 11010000
          344 74 -116 vlineto
          -6 2 -3 4 3 3 2 2 3 vhcurveto
          hintmask 11100000
          155 4 rmoveto
          89 56 rlineto
          21 -28 hlineto
          -6 4 -4 6 vhcurveto
          58 -36 -58 hlineto
          -7 -3 -4 -6 hvcurveto
          -90 vlineto
          -40 12 -17 29 8 9 1 3 9 vhcurveto
          -25 vlineto
          -63 -37 rlineto
          -45 -33 31 42 hvcurveto
          132 vlineto
          7 -3 3 -7 vhcurveto
          -26 hlineto
          -255 -361 rmoveto
          423 hlineto
          52 28 28 52 hvcurveto
          423 vlineto
          52 -28 28 -52 vhcurveto
          -423 hlineto
          -52 -28 -28 -52 hvcurveto
          -423 vlineto
          -52 28 -28 52 vhcurveto
          endchar
        </CharString>
        <CharString name="four">
          -84 -79 -21 169 88 351 -20 22 48 callsubr
          2 73 rmoveto
          72 89 -2 -2 79 hvcurveto
          -2 -72 -4 -87 0 vvcurveto
          8 -10 115 12 8 -13 callsubr
          -5 72 -1 73 vhcurveto
          48 -2 32 -1 0 vvcurveto
          9 83 -8 11 rlineto
          -82 342 hlineto
          -84 11 rlineto
          hintmask 11100000
          -1 -3 -2 -2 hhcurveto
          -265 -368 rlineto
          227 195 rmoveto
          10 -178 -135 hlineto
          endchar
        </CharString>
        <CharString name="four.dnom">
          -215 14 -21 102 65 229 -20 hstem
          9 96 -82 callgsubr
        </CharString>
        <CharString name="four.lf">
          -83 10 -21 166 89 353 -20 22 48 callsubr
          159 vmoveto
          72 88 -2 -2 77 3 callsubr
          48 -1 32 -1 0 vvcurveto
          10 82 -9 12 rlineto
          -81 344 hlineto
          -84 11 rlineto
          hintmask 11100000
          -1 -4 -2 -1 hhcurveto
          -263 -371 rlineto
          225 198 rmoveto
          10 -180 -134 hlineto
          endchar
        </CharString>
        <CharString name="four.numr">
          -215 274 -21 103 65 228 -20 hstem
          9 357 rmoveto
          155 -2 rlineto
          -1 -45 -3 -50 0 vvcurveto
          5 -7 90 8 7 -27 callsubr
          -3 41 -1 43 vhcurveto
          49 -1 7 61 -8 callsubr
        </CharString>
        <CharString name="four.sinf">
          -215 -106 -21 102 65 229 -20 hstem
          9 -24 -82 callgsubr
        </CharString>
        <CharString name="four.sups">
          -215 353 -21 102 66 228 -20 hstem
          9 436 rmoveto
          155 -3 rlineto
          -1 -45 -3 -49 0 vvcurveto
          5 -7 90 7 7 -27 callsubr
          -3 41 -1 44 vhcurveto
          49 -2 7 62 -8 callsubr
        </CharString>
        <CharString name="four.tf">
          -97 10 -21 166 89 353 -20 22 48 callsubr
          -3 159 rmoveto
          71 85 -2 -2 76 3 callsubr
          47 -1 31 -1 0 vvcurveto
          9 82 -8 12 rlineto
          -79 344 hlineto
          -85 11 rlineto
          hintmask 11100000
          -1 -4 -2 -1 hhcurveto
          -257 -371 rlineto
          220 198 rmoveto
          10 -180 -129 hlineto
          endchar
        </CharString>
        <CharString name="four.tosf">
          -107 -79 -21 169 88 351 -20 22 48 callsubr
          -3 73 rmoveto
          70 86 -2 -2 76 hvcurveto
          -2 -72 -4 -87 0 vvcurveto
          8 -10 115 12 8 -13 callsubr
          -5 72 -1 73 vhcurveto
          45 -2 31 -1 0 vvcurveto
          10 83 -9 11 rlineto
          -78 342 hlineto
          -85 11 rlineto
          hintmask 11100000
          -2 -3 -2 -2 hhcurveto
          -255 -368 rlineto
          219 195 rmoveto
          10 -178 -128 hlineto
          endchar
        </CharString>
        <CharString name="fraction">
          -397 -72 -21 771 -20 hstem
          326 653 -85 callgsubr
          endchar
        </CharString>
        <CharString name="franc">
          -80 0 65 -53 -21 29 -21 128 50 49 70 150 57 10 -20 hstemhm
          hintmask 10011100
          232 107 rmoveto
          10 20 rlineto
          92 hlineto
          4 44 -5 7 rlineto
          -16 -42 -1 -42 hhcurveto
          2 44 rlineto
          2 23 25 3 26 hhcurveto
          37 51 -3 0 hvcurveto
          12 70 -9 10 rlineto
          0 -66 -7 -23 -22 -29 0 1 -22 vhcurveto
          3 73 1 24 -1 32 22 3 rlinecurve
          5 5 1 9 hhcurveto
          73 11 -8 -33 -10 -2 -23 0 hvcurveto
          86 5 rlineto
          4 70 13 72 0 vvcurveto
          hintmask 10011010
          -9 10 rlineto
          hintmask 01011100
          -5 -51 -85 -5 -74 hhcurveto
          -53 hlineto
          -61 -72 2 0 hvcurveto
          -8 -50 6 -10 rlineto
          0 19 1 9 19 5 -8 -32 vhcurveto
          -1 -229 rlineto
          -63 hlineto
          -7 -44 7 -6 rlineto
          62 hlineto
          -2 -55 -5 -14 -52 -7 -6 -60 rcurveline
          hintmask 10011100
          0 53 8 50 1 vhcurveto
          hintmask 00111100
          16 20 -1 21 hhcurveto
          37 71 -2 1 hvcurveto
          10 59 -9 12 rlineto
          hintmask 10011100
          0 -28 -4 -21 -25 -8 9 33 vhcurveto
          endchar
        </CharString>
        <CharString name="g">
          -10 callgsubr
          -92 callgsubr
          endchar
        </CharString>
        <CharString name="g.sups">
          -191 183 56 182 51 122 57 -6 -20 43 -20 hstemhm
          hintmask 11011000
          170 421 rmoveto
          89 61 48 68 24 -9 21 -18 18 hvcurveto
          3 4 rlineto
          23 1 22 2 0 vvcurveto
          9 57 -4 4 rlineto
          0 -62 -21 -33 -2 vhcurveto
          hintmask 11100000
          -21 -20 6 -28 hhcurveto
          -86 -59 -49 -71 -40 18 -32 33 -18 hvcurveto
          -6 vlineto
          0 -37 -24 -19 -21 vhcurveto
          -35 26 -26 42 -6 vhcurveto
          -4 vlineto
          0 -49 -25 -18 -18 vhcurveto
          -57 50 -36 77 93 88 60 63 vhcurveto
          119 -226 -67 48 vvcurveto
          7 6 7 7 5 vhcurveto
          -2 13 15 -2 14 hhcurveto
          11 51 rmoveto
          -30 -16 22 40 40 14 20 25 31 17 -21 -41 -41 -14 -19 -27 hvcurveto
          3 -233 rmoveto
          -32 -21 15 22 19 17 18 0 hvcurveto
          92 -13 11 -3 -18 vvcurveto
          -22 -31 -18 -36 vhcurveto
          endchar
        </CharString>
        <CharString name="gbreve">
          -10 callgsubr
          51 95 60 -20 -92 callgsubr
          -213 426 -78 callgsubr
        </CharString>
        <CharString name="gcircumflex">
          -10 callgsubr
          252 -20 -92 callgsubr
          -348 337 -96 callgsubr
          endchar
        </CharString>
        <CharString name="gcommaaccent">
          2 18 callsubr
          42 0 85 0 117 0 68 0 68 96 85 hstemhm
          hintmask 11001010
          505 265 rmoveto
          0 -46 -4 -42 vhcurveto
          -44 -48 1 -25 hhcurveto
          -10 -61 -35 callgsubr
          38 hlineto
          27 7 -7 -29 hvcurveto
          -65 vlineto
          hintmask 10100110
          0 -26 -16 -44 -81 -45 64 125 112 42 48 90 57 22 -15 -42 -23 -2 -19 0 vhcurveto
          92 6 rlineto
          4 83 18 64 0 vvcurveto
          -6 11 rlineto
          0 -91 20 -74 -185 -110 -100 -172 -154 94 -93 154 122 73 29 0 vhcurveto
          8 11 rlineto
          -3 16 -2 21 30 vvcurveto
          93 5 20 31 19 vhcurveto
          -295 -330 -93 callgsubr
          hintmask 11010110
          -75 callgsubr
        </CharString>
        <CharString name="gdotaccent">
          -10 callgsubr
          50 152 -92 callgsubr
          -216 330 -85 callsubr
        </CharString>
        <CharString name="germandbls">
          380 -9 -7 callgsubr
          hstem
          -100 callgsubr
          467 hmoveto
          144 92 62 96 -1 callsubr
          hvcurveto
          -56 24 -52 21 37 vvcurveto
          29 31 20 42 52 23 -18 -43 -11 -1 -11 0 vhcurveto
          8 -6 71 6 rlineto
          5 70 15 64 -42 callsubr
          12 rlineto
          0 -61 21 -84 -135 -93 -65 -94 -76 65 -36 64 -30 vhcurveto
          61 -27 59 -20 -40 vvcurveto
          -31 -30 -20 -48 -63 -23 23 76 vhcurveto
          -77 -6 rlineto
          -2 -60 -13 -71 0 vvcurveto
          8 -12 rlineto
          0 61 -30 89 vhcurveto
          endchar
        </CharString>
        <CharString name="grave">
          544 -21 213 -20 hstem
          66 651 rmoveto
          0 96 -59 93 -69 vhcurveto
          15 4 30 39 rlineto
          -82 80 -86 90 0 vvcurveto
          -13 -1 -54 -70 rlineto
          endchar
        </CharString>
        <CharString name="grave.cap">
          718 -21 160 -20 hstem
          44 762 -97 callsubr
        </CharString>
        <CharString name="greater">
          -82 78 -21 424 -20 hstem
          434 325 rmoveto
          -189 81 rlineto
          -77 35 -87 40 27 callsubr
          136 -60 rlineto
          -7 vlineto
          -123 -50 rlineto
          -78 -33 -102 6 callsubr
          endchar
        </CharString>
        <CharString name="greaterequal">
          -63 -97 88 -69 -21 580 -31 callsubr
          443 325 rmoveto
          -24 10 -89 38 -61 27 -37 16 rcurveline
          -72 32 -70 33 27 callsubr
          137 -60 rlineto
          -7 vlineto
          -124 -50 rlineto
          -77 -33 -103 6 callsubr
          2 -317 rmoveto
          -1 2 -97 -3 -93 hhcurveto
          -231 hlineto
          42 callgsubr
          9 -14 rlineto
          hintmask 10100000
          81 194 2 143 hhcurveto
          11 77 rlineto
          endchar
        </CharString>
        <CharString name="guillemotleft">
          -101 36 callsubr
          365 411 -49 callgsubr
          -226 25 -49 callgsubr
          endchar
        </CharString>
        <CharString name="guillemotright">
          -101 36 callsubr
          271 44 -48 callgsubr
          -144 -25 -48 callgsubr
          endchar
        </CharString>
        <CharString name="guilsinglleft">
          -287 36 callsubr
          180 411 -49 callgsubr
          endchar
        </CharString>
        <CharString name="guilsinglright">
          -287 36 callsubr
          86 44 -48 callgsubr
          endchar
        </CharString>
        <CharString name="h">
          80 0 56 -41 -21 223 74 154 56 5 -20 hstemhm
          hintmask 10101000
          543 4 callgsubr
          hintmask 10110000
          -34 callsubr
          hintmask 10101000
          5 58 rlineto
          hintmask 01110000
          0 -91 -5 -43 -34 -67 1 -20 callsubr
          -50 -35 callgsubr
          0 14 1 10 -69 callsubr
          -13 -47 -8 -11 callgsubr
          hintmask 10110000
          1 1 82 5 50 hhcurveto
          32 77 -2 0 hvcurveto
          -39 callgsubr
          0 -12 -2 -15 -25 -64 callsubr
          88 4 129 6 80 vhcurveto
          endchar
        </CharString>
        <CharString name="h.sups">
          -169 339 47 -29 -21 235 79 171 -20 hstemhm
          148 85 hintmask 10111000
          17 337 rmoveto
          0 43 2 35 28 50 -2 0 vhcurveto
          6 46 -2 4 rlineto
          0 -8 -1 -5 -14 -4 7 18 49 0 46 1 42 vhcurveto
          7 9 22 16 19 31 callgsubr
          -1 -20 -7 -9 -20 -4 rlinecurve
          hintmask 01111000
          -5 -47 rlineto
          hintmask 10111000
          0 53 3 25 26 52 -2 0 vhcurveto
          6 46 -1 3 rlineto
          0 -12 -1 -7 -14 -5 30 callsubr
          55 -37 30 -67 -18 -43 -37 -21 -22 vhcurveto
          3 126 7 79 10 10 -6 14 rcurveline
          0 -85 -13 -68 -9 vhcurveto
          -4 -40 3 -4 rlineto
          15 hlineto
          24 6 -8 -29 hvcurveto
          -300 vlineto
          -23 -7 -9 -23 -2 vhcurveto
          endchar
        </CharString>
        <CharString name="hbar">
          80 0 56 -41 -21 223 74 54 44 56 56 5 -20 hstemhm
          hintmask 10110100
          542 4 callgsubr
          hintmask 10111000
          0 -90 -5 -37 -37 -75 0 1 vhcurveto
          -7 -50 -36 callsubr
          0 16 1 9 24 6 -8 -33 vhcurveto
          -15 vlineto
          -1 -25 -25 1 -23 hhcurveto
          -111 hlineto
          1 8 2 38 6 7 40 6 rlinecurve
          hintmask 10110100
          5 58 rlineto
          hintmask 01111000
          0 -91 -5 -43 -34 -67 1 -20 callsubr
          -50 -35 callgsubr
          0 14 1 10 23 6 -8 -33 vhcurveto
          -15 vlineto
          -42 -30 1 0 hvcurveto
          -6 -40 8 -7 rlineto
          70 -228 hlineto
          -44 -11 -13 -47 -8 -11 callgsubr
          hintmask 10111000
          1 1 82 5 49 hhcurveto
          33 77 -2 0 hvcurveto
          -39 callgsubr
          0 -12 -2 -16 -24 -64 callsubr
          68 2 92 4 76 vhcurveto
          71 hlineto
          4 37 -12 11 rlineto
          0 -24 -1 -36 -1 vhcurveto
          5 0 5 1 5 vhcurveto
          -224 -62 rmoveto
          92 -49 hlineto
          -4 -28 -23 -1 -39 hhcurveto
          -97 2 2 52 rlineto
          endchar
        </CharString>
        <CharString name="hcircumflex">
          80 0 56 -41 -21 223 74 154 56 287 -20 hstemhm
          hintmask 01111000
          543 4 callgsubr
          -34 callsubr
          5 58 rlineto
          0 -91 -5 -43 -34 -67 1 -20 callsubr
          -50 -35 callgsubr
          0 14 1 10 -69 callsubr
          -13 -47 -8 -11 callgsubr
          hintmask 10111000
          1 1 82 5 50 hhcurveto
          32 77 -2 0 hvcurveto
          -39 callgsubr
          0 -12 -2 -15 -25 -64 callsubr
          88 4 129 6 80 vhcurveto
          -360 187 -96 callgsubr
          endchar
        </CharString>
        <CharString name="hungarumlaut">
          552 -21 196 -20 hstem
          242 677 rmoveto
          -57 50 -12 -1 rlineto
          0 -64 -88 -60 -78 vhcurveto
          31 -28 14 -1 rlineto
          74 71 74 64 0 vvcurveto
          145 11 rmoveto
          -58 50 -11 -1 rlineto
          0 -64 -88 -61 -78 vhcurveto
          32 -28 14 -1 rlineto
          74 71 74 64 -39 callsubr
        </CharString>
        <CharString name="hungarumlaut.cap">
          701 -21 177 -20 hstem
          261 794 -86 callsubr
        </CharString>
        <CharString name="hyphen">
          -228 215 -21 119 -20 hstem
          280 313 rmoveto
          0 -19 -4 -55 -6 vhcurveto
          -164 -19 -7 -78 9 -12 237 26 8 80 rlineto
          endchar
        </CharString>
        <CharString name="i">
          -59 callsubr
          24 -20 hstemhm
          hintmask 10001000
          230 406 rmoveto
          3 30 8 7 41 5 5 58 rcurveline
          hintmask 10100000
          -25 callgsubr
          hintmask 10010000
          -69 callgsubr
          hintmask 01100000
          -90 callsubr
          hintmask 10100000
          0 73 6 47 37 90 -2 0 vhcurveto
          -39 callgsubr
          0 -14 -2 -18 0 callgsubr
          89 4 121 5 87 vhcurveto
          endchar
        </CharString>
        <CharString name="i.sups">
          -336 353 -21 253 231 -113 113 hstemhm
          hintmask 10100000
          112 703 rmoveto
          36 23 24 35 33 -20 21 -33 -36 -22 -24 -35 -34 19 -20 33 hvcurveto
          -90 -371 rmoveto
          0 52 7 35 29 52 39 callgsubr
          47 -2 3 rlineto
          0 -11 -1 -7 -14 -4 7 17 123 5 85 10 19 vhcurveto
          -7 13 rlineto
          0 -73 -15 -69 -8 vhcurveto
          -4 -44 42 callsubr
          10 2 5 23 7 -8 -29 vhcurveto
          -128 vlineto
          -24 -12 -12 -26 -3 vhcurveto
          endchar
        </CharString>
        <CharString name="iacute">
          -59 callsubr
          233 -20 -89 callgsubr
          hintmask 10101000
          0 73 6 47 37 90 -2 0 vhcurveto
          -39 callgsubr
          0 -14 -2 -18 0 callgsubr
          89 4 121 5 87 vhcurveto
          95 227 -106 callsubr
        </CharString>
        <CharString name="ibreve">
          -59 callsubr
          98 95 68 -20 hstemhm
          hintmask 10101100
          230 406 rmoveto
          3 30 8 7 41 5 5 58 rcurveline
          -25 callgsubr
          hintmask 10011100
          -69 callgsubr
          hintmask 01101100
          -90 callsubr
          hintmask 10101100
          0 73 6 47 37 90 -2 0 vhcurveto
          -39 callgsubr
          0 -14 -2 -18 0 callgsubr
          89 4 121 5 87 vhcurveto
          -66 269 -91 callgsubr
        </CharString>
        <CharString name="icircumflex">
          -59 callsubr
          252 -20 -89 callgsubr
          hintmask 10101000
          0 73 6 47 37 90 -2 0 vhcurveto
          -39 callgsubr
          0 -14 -2 -18 0 callgsubr
          89 4 121 5 87 vhcurveto
          -209 163 -102 callsubr
        </CharString>
        <CharString name="idieresis">
          -59 callsubr
          82 128 -89 callgsubr
          hintmask 10101000
          0 73 6 47 37 90 -2 0 vhcurveto
          -39 callgsubr
          0 -14 -2 -18 0 callgsubr
          89 4 121 5 87 vhcurveto
          17 158 -103 callsubr
        </CharString>
        <CharString name="idotaccent">
          -59 callsubr
          78 152 -89 callgsubr
          hintmask 10101000
          0 73 6 47 37 90 -2 0 vhcurveto
          -39 callgsubr
          0 -14 -2 -18 0 callgsubr
          89 4 121 5 87 vhcurveto
          -72 154 -85 callsubr
        </CharString>
        <CharString name="igrave">
          -59 callsubr
          233 -20 -89 callgsubr
          hintmask 10101000
          0 73 6 47 37 90 -2 0 vhcurveto
          -39 callgsubr
          0 -14 -2 -18 0 callgsubr
          89 4 121 5 87 vhcurveto
          -221 214 -97 callsubr
        </CharString>
        <CharString name="ij">
          44 -101 -21 122 56 389 56 1 -20 25 49 callgsubr
          230 406 rmoveto
          3 30 8 7 41 5 5 58 rcurveline
          -25 callgsubr
          hintmask 11010000
          -69 callgsubr
          hintmask 11100000
          -90 callsubr
          0 73 6 47 37 90 -2 0 vhcurveto
          -39 callgsubr
          0 -14 -2 -18 0 callgsubr
          89 4 121 5 87 vhcurveto
          197 -308 rmoveto
          -98 -15 -34 -61 -45 vhcurveto
          -1 -10 25 -33 rlineto
          120 35 53 60 102 vvcurveto
          91 6 170 4 70 vhcurveto
          3 30 4 6 36 6 rrcurveto
          hintmask 11001000
          5 59 rlineto
          hintmask 11100000
          0 -70 -5 -63 -1 vhcurveto
          -106 hlineto
          -6 -50 -36 callsubr
          0 22 2 11 23 5 -8 -33 vhcurveto
          endchar
        </CharString>
        <CharString name="imacron">
          -59 callsubr
          84 86 6 -20 -89 callgsubr
          hintmask 10100100
          0 73 6 47 37 90 -2 0 vhcurveto
          -39 callgsubr
          0 -14 -2 -18 0 callgsubr
          89 4 121 5 87 vhcurveto
          77 252 rmoveto
          hintmask 10101000
          -89 callsubr
        </CharString>
        <CharString name="infinity">
          -37 97 92 -74 -21 220 100 hstemhm
          hintmask 10100000
          150 411 rmoveto
          -74 -64 -71 -97 -77 44 -69 70 61 33 44 35 18 hvcurveto
          hintmask 01100000
          -45 25 33 -37 61 hhcurveto
          79 66 71 99 81 -44 69 -71 -63 -33 -47 -35 -18 hvcurveto
          44 -27 -37 35 -59 hhcurveto
          hintmask 10100000
          -5 -222 rmoveto
          -43 -24 26 39 38 23 22 29 39 21 -41 -47 23 hvcurveto
          -16 -13 -21 -21 -34 hhcurveto
          222 134 rmoveto
          45 27 -30 -40 -39 -23 -23 -31 -38 -23 44 50 -25 hvcurveto
          17 13 21 21 34 hhcurveto
          endchar
        </CharString>
        <CharString name="integral">
          -127 -161 72 613 75 hstem
          148 hmoveto
          -64 -2 -20 -25 -31 hhcurveto
          -33 -28 28 35 -10 hvcurveto
          -14 hlineto
          -14 -15 -17 -55 -23 vvcurveto
          -21 47 -21 41 94 89 85 115 6 vhcurveto
          24 417 rlineto
          47 3 20 21 33 hhcurveto
          30 27 -21 -33 24 hvcurveto
          15 2 rlineto
          11 15 18 62 20 vvcurveto
          16 -46 14 -45 -101 -102 -87 -86 -2 vhcurveto
          endchar
        </CharString>
        <CharString name="iogonek">
          -232 43 callgsubr
          56 -36 -21 446 -2 callsubr
          hintmask 10110000
          293 -43 callsubr
          32 18 29 51 60 vhcurveto
          22 20 -1 0 hvcurveto
          -39 callgsubr
          hintmask 11000100
          0 -14 -2 -18 0 callgsubr
          89 4 121 5 87 vhcurveto
          3 30 8 7 41 5 5 58 rcurveline
          hintmask 11010000
          -25 callgsubr
          hintmask 11001000
          -69 callgsubr
          hintmask 11010000
          -90 callsubr
          0 73 6 47 vhcurveto
          26 hlineto
          -59 -61 -32 -44 -45 -41 callsubr
          endchar
        </CharString>
        <CharString name="itilde">
          -59 callsubr
          112 -3 callsubr
          hintmask 10101001
          230 406 rmoveto
          3 30 8 7 41 5 5 58 rcurveline
          -25 callgsubr
          hintmask 10011001
          -69 callgsubr
          hintmask 01101001
          -90 callsubr
          hintmask 10100101
          0 73 6 47 37 90 -2 0 vhcurveto
          -39 callgsubr
          0 -14 -2 -18 0 callgsubr
          89 4 121 5 87 vhcurveto
          -197 166 rmoveto
          0 40 56 25 vhcurveto
          hintmask 10101001
          -56 callgsubr
          hintmask 10100011
          -45 callsubr
        </CharString>
        <CharString name="j">
          -54 callsubr
        </CharString>
        <CharString name="j.sups">
          -344 201 -21 405 231 -113 113 hstemhm
          hintmask 11000000
          37 180 rmoveto
          72 33 46 57 60 vvcurveto
          181 5 104 10 22 vhcurveto
          -7 13 rlineto
          0 -80 -15 -60 -8 vhcurveto
          -5 -44 rlineto
          0 11 2 10 17 6 -9 -28 vhcurveto
          -186 vlineto
          -81 -11 -33 -38 -37 vhcurveto
          -1 -8 rlineto
          hintmask 10100000
          96 500 rmoveto
          36 23 24 35 33 -20 21 -33 -35 -24 -24 -35 -34 19 -20 34 hvcurveto
          endchar
        </CharString>
        <CharString name="jcircumflex">
          -258 -101 -21 567 56 261 -20 hstem
          91 98 rmoveto
          -98 -15 -34 -60 -45 vhcurveto
          -2 -10 25 -33 121 35 52 60 1 102 rlinecurve
          91 6 170 4 70 vhcurveto
          2 30 5 6 35 6 5 59 rcurveline
          0 -70 -5 -63 -1 vhcurveto
          -105 hlineto
          -7 -50 -35 callgsubr
          0 21 2 12 22 6 -8 -33 vhcurveto
          -73 163 -96 callgsubr
          endchar
        </CharString>
        <CharString name="k">
          16 0 56 -47 44 callsubr
          5 48 callgsubr
          -65 callsubr
          hintmask 01100000
          -87 callgsubr
          endchar
        </CharString>
        <CharString name="k.sups">
          -182 352 -21 311 -20 199 -20 hstem
          17 336 rmoveto
          0 43 3 35 27 51 39 callgsubr
          45 -1 3 rlineto
          -15 -29 callgsubr
          -29 -4 -11 -26 -3 vhcurveto
          191 hmoveto
          19 -35 15 -13 27 -4 rrcurveto
          6 12 -1 1 14 hvcurveto
          19 1 29 6 0 vvcurveto
          5 39 -3 6 -25 3 -19 14 -18 29 rlinecurve
          -50 82 33 32 35 37 39 17 rlinecurve
          6 44 -2 3 rlineto
          0 -42 -2 -33 -38 -48 1 0 vhcurveto
          -6 -39 2 -3 rlineto
          24 10 -3 -10 -7 -4 -5 -9 -9 hvcurveto
          -56 -58 -3 -17 rlineto
          endchar
        </CharString>
        <CharString name="kcommaaccent">
          16 -297 -21 318 56 -47 44 callsubr
          5 -20 hstemhm
          hintmask 11001000
          -65 callsubr
          hintmask 10110000
          -87 callgsubr
          -7 -365 -93 callgsubr
          -75 callgsubr
        </CharString>
        <CharString name="kgreenlandic">
          16 0 56 -47 44 callsubr
          5 48 callgsubr
          -65 callsubr
          hintmask 01100000
          -87 callgsubr
          endchar
        </CharString>
        <CharString name="l">
          -91 -6 callsubr
          187 hmoveto
          -88 callsubr
          hintmask 10100000
          32 callgsubr
          hintmask 10010000
          -28 callsubr
          hintmask 01100000
          -66 callsubr
          hintmask 10100000
          32 callsubr
          endchar
        </CharString>
        <CharString name="l.sups">
          -351 356 -21 486 -20 hstem
          16 335 rmoveto
          0 44 4 35 29 56 39 callgsubr
          45 -1 3 rlineto
          -22 -29 callgsubr
          -28 -4 -11 -27 -5 vhcurveto
          endchar
        </CharString>
        <CharString name="lacute">
          -91 0 70 -57 -21 453 56 1 -20 233 -20 hstemhm
          hintmask 10101000
          187 hmoveto
          -88 callsubr
          32 callgsubr
          hintmask 10011000
          -28 callsubr
          hintmask 01101000
          -66 callsubr
          hintmask 10101000
          32 callsubr
          142 633 -106 callsubr
        </CharString>
        <CharString name="lcaron">
          -69 -6 callsubr
          448 500 rmoveto
          -90 -11 rlineto
          0 9 -89 -3 -91 vhcurveto
          13 -3 45 16 rlineto
          20 84 13 86 0 vvcurveto
          -268 -492 rmoveto
          -88 callsubr
          hintmask 10100000
          32 callgsubr
          hintmask 10010000
          -28 callsubr
          hintmask 01100000
          -66 callsubr
          hintmask 10100000
          32 callsubr
          endchar
        </CharString>
        <CharString name="lcommaaccent">
          -91 18 callsubr
          51 0 70 375 -2 callsubr
          hintmask 10100100
          187 hmoveto
          -88 callsubr
          hintmask 11010000
          32 callgsubr
          hintmask 11001000
          -28 callsubr
          hintmask 10110000
          -66 callsubr
          32 callsubr
          -9 -100 -93 callgsubr
          hintmask 11010000
          -75 callgsubr
        </CharString>
        <CharString name="ldot">
          -36 0 70 -57 -21 284 150 19 -2 callsubr
          hintmask 10100100
          187 hmoveto
          -88 callsubr
          hintmask 10110000
          32 callgsubr
          hintmask 10101000
          -28 callsubr
          hintmask 01110000
          -66 callsubr
          hintmask 10110000
          32 callsubr
          214 276 rmoveto
          47 30 32 46 43 -26 29 -46 -47 -30 -32 -46 -43 24 -29 48 hvcurveto
          endchar
        </CharString>
        <CharString name="less">
          -82 78 -21 424 -20 hstem
          36 213 rmoveto
          0 119 -51 70 -31 vhcurveto
          77 -35 87 -39 0 vvcurveto
          42 65 -4 15 rlineto
          13 callgsubr
          102 38 0 vvcurveto
          -20 76 -13 8 rlineto
          0 -93 -40 -84 -36 vhcurveto
          -191 -82 -1 -97 rlineto
          endchar
        </CharString>
        <CharString name="lessequal">
          -63 -97 88 -69 -21 580 -31 callsubr
          45 213 rmoveto
          24 -11 89 -38 62 -27 36 -15 rcurveline
          72 -33 70 -33 1 vvcurveto
          43 65 -2 5 -2 5 -1 5 rlinecurve
          13 callgsubr
          103 38 0 vvcurveto
          -20 76 -14 8 rlineto
          0 -92 -40 -85 -36 vhcurveto
          -191 -82 -1 -97 rlineto
          418 -231 rmoveto
          -1 2 -98 -3 -93 hhcurveto
          -230 hlineto
          42 callgsubr
          8 -14 rlineto
          hintmask 10100000
          81 194 2 144 hhcurveto
          11 77 rlineto
          endchar
        </CharString>
        <CharString name="logicalnot">
          -46 42 -21 201 99 6 -31 callsubr
          452 327 rmoveto
          hintmask 11000000
          0 -113 -6 -74 -89 -145 1 0 vhcurveto
          -14 -91 7 -10 rlineto
          0 138 1 90 vhcurveto
          97 hlineto
          -92 -1 -102 0 vhcurveto
          11 -7 91 14 rlineto
          0 -1 66 70 vvcurveto
          1 73 9 70 -39 callsubr
        </CharString>
        <CharString name="lozenge">
          -29 -73 -21 745 -20 hstem
          51 257 rmoveto
          79 -166 80 -178 13 -7 97 5 85 188 73 164 -1 38 -77 161 -82 182 -11 7 -98 -4 -83 -185 -76 -170 rlineto
          150 130 rmoveto
          56 130 rlineto
          7 hlineto
          65 -141 60 -131 -62 -146 -54 -128 rlineto
          -7 hlineto
          -65 140 -59 128 rlineto
          endchar
        </CharString>
        <CharString name="lslash">
          -76 -6 callsubr
          204 hmoveto
          103 132 -6 0 hvcurveto
          9 10 rlineto
          8 97 13 89 0 vvcurveto
          -6 9 -79 -7 rlineto
          -102 -11 -15 -20 -74 hhcurveto
          -37 -9 9 34 45 0 45 2 42 hvcurveto
          127 60 -17 56 -7 3 -100 -47 1 26 2 26 2 24 rlinecurve
          2 36 6 9 57 6 7 62 rcurveline
          hintmask 10100000
          0 -101 -5 -38 vhcurveto
          hintmask 10010000
          -39 -51 1 -27 hhcurveto
          -6 -50 -35 callgsubr
          hintmask 01100000
          0 14 1 9 24 6 -8 -33 vhcurveto
          -1 -134 -73 -35 17 -56 8 -2 48 23 rlineto
          -81 vlineto
          -46 -12 -16 -42 -6 vhcurveto
          -7 -59 31 callsubr
          74 8 75 vhcurveto
          endchar
        </CharString>
        <CharString name="m">
          158 0 57 -47 -21 459 53 5 -31 callsubr
          377 -4 rmoveto
          47 148 49 133 21 49 rrcurveto
          8 hlineto
          0 13 -203 -32 vvcurveto
          -25 -13 -10 -32 -4 vhcurveto
          -7 -58 rlineto
          1 7 100 5 23 hhcurveto
          35 51 -2 0 hvcurveto
          7 55 -4 5 rlineto
          0 -12 -1 -12 -25 -9 16 54 -5 vhcurveto
          -8 85 -11 157 38 vvcurveto
          30 12 8 46 3 vhcurveto
          6 55 rlineto
          hintmask 10010000
          -4 3 31 callsubr
          -48 -4 -34 -1 vhcurveto
          -38 -2 -45 3 -31 -1 rrcurveto
          -49 -152 -49 -141 0 vvcurveto
          -8 hlineto
          0 -49 141 -43 155 vhcurveto
          0 -63 -3 -37 -31 -77 4 -53 callgsubr
          -53 5 -6 rlineto
          50 -4 9 -5 -28 vvcurveto
          -21 -29 -262 -3 -20 vhcurveto
          -3 -37 -14 -14 -32 -3 -5 -58 rcurveline
          0 53 6 33 27 76 -25 callsubr
          56 -5 4 rlineto
          -26 hlineto
          -19 -8 7 18 18 13 226 0 hvcurveto
          9 hlineto
          hintmask 01100000
          21 -50 46 -131 50 -156 rrcurveto
          endchar
        </CharString>
        <CharString name="m.sups">
          26 1 callsubr
          49 -2 0 vhcurveto
          8 46 -2 3 rlineto
          0 -9 -1 -7 -14 -5 8 20 vhcurveto
          9 139 rlineto
          7 10 19 12 16 hhcurveto
          27 11 -16 -36 -1 hvcurveto
          -1 -103 -2 -22 -6 -7 -18 -3 rlinecurve
          -4 -47 rlineto
          0 49 2 25 26 53 -2 0 vhcurveto
          6 46 -1 3 rlineto
          0 -11 -1 -7 -15 -5 30 callsubr
          54 -37 31 -67 -14 -45 -35 -21 -24 vhcurveto
          37 -11 -33 19 -53 hhcurveto
          -14 -43 -33 -22 -26 hvcurveto
          -2 2 rlineto
          2 22 6 24 -42 callsubr
          -24 callsubr
          -127 vlineto
          -24 -9 -8 -25 -2 vhcurveto
          -7 -47 rlineto
          0 47 2 9 callgsubr
          75 3 49 hvcurveto
          7 10 19 13 17 31 callgsubr
          rlineto
          -20 -9 -9 -18 -4 vhcurveto
          endchar
        </CharString>
        <CharString name="macron">
          581 85 -65 -21 92 -9 callgsubr
          345 672 rmoveto
          hintmask 10000000
          0 -77 -6 -50 -59 -95 1 0 vhcurveto
          -14 -76 rlineto
          hintmask 01100000
          11 -11 rlineto
          hintmask 10000000
          0 80 1 59 vhcurveto
          141 1 12 76 rlineto
          endchar
        </CharString>
        <CharString name="macron.cap">
          708 86 -66 -21 93 -9 callgsubr
          345 800 rmoveto
          hintmask 10000000
          0 -77 -6 -50 -59 -95 1 0 vhcurveto
          -14 -76 rlineto
          hintmask 01100000
          11 -12 rlineto
          hintmask 10000000
          0 80 1 59 vhcurveto
          141 1 12 77 rlineto
          endchar
        </CharString>
        <CharString name="minus">
          -46 207 99 -79 -21 106 -9 callgsubr
          482 312 rmoveto
          hintmask 10000000
          -18 callsubr
          rlineto
          hintmask 01100000
          7 -11 rlineto
          hintmask 10000000
          -14 callgsubr
          endchar
        </CharString>
        <CharString name="mu">
          -20 -221 -21 230 104 -82 -21 485 49 callsubr
          59 450 rmoveto
          -7 -17 rlineto
          0 10 -52 -1 -54 vhcurveto
          -7 -254 rlineto
          -5 -161 -13 -141 0 vvcurveto
          11 -13 109 20 7 -13 callsubr
          -7 71 51 vvcurveto
          35 vlineto
          1 59 5 3 rlineto
          -10 13 19 -7 22 hhcurveto
          29 5 48 44 27 29 8 -4 rcurveline
          hintmask 11010000
          -50 5 37 -25 60 hhcurveto
          48 12 56 88 0 vvcurveto
          -15 21 rlineto
          0 -23 -17 -24 -22 -13 16 25 151 12 140 15 31 vhcurveto
          -10 17 -15 -3 -63 -11 -60 -9 rlinecurve
          -7 -17 rlineto
          0 10 -50 -47 vvcurveto
          -204 vlineto
          -4 -6 -40 -33 -35 hhcurveto
          -45 -19 28 53 126 14 125 13 31 hvcurveto
          -9 17 -15 -4 -55 -11 -63 -9 rlinecurve
          endchar
        </CharString>
        <CharString name="multiply">
          -46 75 -21 398 -20 hstem
          379 452 rmoveto
          0 -72 -78 -54 -56 vhcurveto
          -58 57 -66 68 0 vvcurveto
          -74 -53 -3 -14 rlineto
          0 71 -70 59 -59 vhcurveto
          -56 -56 -63 -62 0 vvcurveto
          51 -72 14 -3 rlineto
          0 65 67 58 58 vhcurveto
          124 -123 72 58 5 13 rlineto
          0 -75 67 -56 55 vhcurveto
          127 128 -57 70 rlineto
          endchar
        </CharString>
        <CharString name="n">
          14 callgsubr
          24 -31 callsubr
          -46 callsubr
          vhcurveto
          hintmask 10010000
          -46 -56 4 0 hvcurveto
          -87 callsubr
          hintmask 01010000
          -62 callsubr
          hintmask 10100000
          -64 callgsubr
          endchar
        </CharString>
        <CharString name="n.sups">
          -152 1 callsubr
          52 39 callgsubr
          46 -2 3 rlineto
          0 -11 -1 -7 -14 -6 30 callsubr
          54 -38 31 -66 -16 -41 -34 -21 -23 vhcurveto
          -4 2 rlineto
          2 22 6 24 -42 callsubr
          -24 callsubr
          -127 vlineto
          -24 -9 -9 -26 -2 vhcurveto
          hintmask 01100000
          -6 -47 31 callsubr
          47 3 9 callgsubr
          76 3 48 hvcurveto
          8 10 19 12 17 31 callgsubr
          rlineto
          -20 -9 -9 -19 -4 vhcurveto
          endchar
        </CharString>
        <CharString name="nacute">
          14 callgsubr
          234 -76 callsubr
          44 425 -106 callsubr
        </CharString>
        <CharString name="nbspace">
          -378 endchar
        </CharString>
        <CharString name="ncaron">
          14 callgsubr
          242 -76 callsubr
          22 511 -104 callsubr
        </CharString>
        <CharString name="ncommaaccent">
          70 -297 -21 318 55 446 -20 24 49 callgsubr
          -46 callsubr
          vhcurveto
          hintmask 11010000
          -46 -56 4 0 hvcurveto
          -87 callsubr
          -62 callsubr
          hintmask 11100000
          -64 callgsubr
          -193 -308 -93 callgsubr
          -75 callgsubr
        </CharString>
        <CharString name="nine">
          -88 -80 -21 238 88 204 81 hstem
          59 -40 rmoveto
          20 -55 10 -6 rlineto
          0 347 93 302 vvcurveto
          127 -76 89 -119 -131 -86 -85 -118 -92 61 -78 108 vhcurveto
          25 3 52 31 9 3 4 -7 rcurveline
          -61 -150 -163 -57 0 vvcurveto
          172 265 rmoveto
          -54 -33 44 63 63 29 34 51 56 34 46 callgsubr
          -31 -18 -35 hhcurveto
          endchar
        </CharString>
        <CharString name="nine.dnom">
          -223 13 -21 149 66 119 63 hstem
          47 39 -51 callsubr
        </CharString>
        <CharString name="nine.lf">
          -88 9 -21 238 88 203 82 hstem
          59 48 rmoveto
          20 -54 10 -6 rlineto
          0 347 92 303 vvcurveto
          126 -76 90 -119 -131 -86 -85 -119 -91 61 -78 108 vhcurveto
          25 3 52 30 9 4 4 -7 rcurveline
          -61 -150 -163 -58 0 vvcurveto
          172 266 rmoveto
          -54 -33 44 62 64 29 33 51 56 34 34 callsubr
          -35 hhcurveto
          endchar
        </CharString>
        <CharString name="nine.numr">
          -223 274 -21 149 66 119 62 hstem
          47 300 rmoveto
          16 -43 7 -4 rlineto
          0 235 57 197 vvcurveto
          85 -52 57 -81 -92 -58 -54 -81 -64 42 -48 69 vhcurveto
          15 3 20 10 14 7 4 -6 rcurveline
          -44 -84 -95 -32 0 vvcurveto
          116 168 rmoveto
          -31 -17 24 39 37 15 19 31 32 19 -28 -49 -10 -1 -9 -1 -9 hvcurveto
          -5 -9 -18 -9 -20 hhcurveto
          endchar
        </CharString>
        <CharString name="nine.sinf">
          -223 -107 -21 149 66 119 63 hstem
          47 -81 -51 callsubr
        </CharString>
        <CharString name="nine.sups">
          -223 353 -21 149 66 118 63 hstem
          47 378 rmoveto
          16 -43 7 -3 rlineto
          0 235 57 197 vvcurveto
          85 -52 57 -81 -92 -58 -54 -82 -63 42 -48 69 vhcurveto
          15 3 20 9 14 8 4 -6 rcurveline
          -44 -84 -95 -33 0 vvcurveto
          116 169 rmoveto
          -31 -17 24 38 38 15 18 31 32 19 -27 -49 -10 -1 -9 -1 -9 hvcurveto
          -5 -9 -18 -9 -20 hhcurveto
          endchar
        </CharString>
        <CharString name="nine.tf">
          -97 9 -21 238 88 203 82 hstem
          56 48 rmoveto
          21 -54 9 -6 rlineto
          0 343 92 303 vvcurveto
          126 -74 90 -119 -130 -83 -85 -119 -91 59 -78 106 vhcurveto
          24 3 51 30 9 4 4 -7 rcurveline
          -60 -150 -160 -58 0 vvcurveto
          171 266 rmoveto
          -54 -31 44 62 64 28 33 50 55 33 34 callsubr
          -33 hhcurveto
          endchar
        </CharString>
        <CharString name="nine.tosf">
          -107 -80 -21 238 88 204 81 hstem
          54 -40 rmoveto
          20 -55 10 -6 rlineto
          0 338 93 302 vvcurveto
          127 -74 89 -117 -128 -83 -85 -118 -92 59 -78 104 vhcurveto
          24 3 49 31 9 3 4 -7 rcurveline
          -60 -150 -155 -57 0 vvcurveto
          168 265 rmoveto
          -52 -31 44 63 63 27 34 49 54 32 46 callgsubr
          -30 -18 -32 hhcurveto
          endchar
        </CharString>
        <CharString name="notequal">
          -46 13 -21 127 99 79 99 -99 231 2 -20 hstem
          481 402 rmoveto
          0 -94 -5 -76 -1 vhcurveto
          26 125 -7 9 -69 -4 -28 -130 rlineto
          -87 -117 1 0 hvcurveto
          -14 -90 8 -11 rlineto
          0 107 1 85 vhcurveto
          -17 -79 rlineto
          -81 -88 1 0 hvcurveto
          -14 -90 8 -11 rlineto
          0 79 1 78 vhcurveto
          -25 -118 5 -9 70 6 26 121 rlineto
          26 hlineto
          65 65 1 65 hhcurveto
          11 92 -7 12 rlineto
          0 -131 -6 -76 vhcurveto
          18 79 rlineto
          62 61 1 62 hhcurveto
          11 92 rlineto
          endchar
        </CharString>
        <CharString name="ntilde">
          14 callgsubr
          82 -14 callsubr
          hintmask 10110010
          -46 callsubr
          -46 -56 4 0 vhcurveto
          -87 callsubr
          hintmask 01101010
          -62 callsubr
          -64 callgsubr
          -248 337 -2 callgsubr
          hintmask 10110010
          -74 callsubr
          hintmask 10100100
          -60 callgsubr
        </CharString>
        <CharString name="numbersign">
          -26 54 -21 144 80 94 81 145 -20 hstem
          49 351 rmoveto
          95 hlineto
          -9 -42 -10 -52 -101 1 -15 -69 6 -12 96 1 46 callsubr
          38 1 56 -1 46 callsubr
          rlineto
          102 hlineto
          14 69 -5 12 -97 -1 13 65 5 28 rlineto
          104 hlineto
          14 70 -5 12 -97 -2 31 140 -11 6 -73 -7 -27 -140 -47 1 rlineto
          -47 hlineto
          31 140 -11 6 -73 -7 -27 -139 -99 1 -15 -70 rlineto
          173 -39 rmoveto
          6 29 rlineto
          95 hlineto
          -8 -43 -10 -53 -52 1 rlineto
          -44 hlineto
          endchar
        </CharString>
        <CharString name="o">
          -16 callsubr
          hstem
          -98 callgsubr
          endchar
        </CharString>
        <CharString name="o.sups">
          -41 callgsubr
        </CharString>
        <CharString name="oacute">
          -16 callsubr
          205 -20 hstem
          -98 callgsubr
          177 642 -106 callsubr
        </CharString>
        <CharString name="obreve">
          -16 callsubr
          65 95 68 -20 hstem
          -98 callgsubr
          13 679 -91 callgsubr
        </CharString>
        <CharString name="ocircumflex">
          -16 callsubr
          224 -20 hstem
          -98 callgsubr
          -123 578 -102 callsubr
        </CharString>
        <CharString name="odieresis">
          -16 callsubr
          54 128 hstem
          -98 callgsubr
          104 573 -103 callsubr
        </CharString>
        <CharString name="oe">
          233 -8 78 145 76 61 144 -69 69 10 -20 24 48 callsubr
          495 117 rmoveto
          2 96 62 4 rlineto
          41 65 -2 0 hvcurveto
          12 74 -8 -13 callsubr
          -68 -7 -26 vhcurveto
          -75 1 5 111 rlineto
          21 1 4 3 35 hhcurveto
          86 13 -6 -41 -11 -2 -20 0 hvcurveto
          85 6 rlineto
          4 73 15 73 0 vvcurveto
          hintmask 11000100
          -8 9 rlineto
          hintmask 11100000
          -6 -51 -98 -8 -109 hhcurveto
          hintmask 11001000
          -73 -58 10 -55 hhcurveto
          -165 -100 -100 -167 -156 91 -91 148 hvcurveto
          50 69 10 71 hhcurveto
          108 153 -7 0 hvcurveto
          9 9 rlineto
          8 78 14 72 0 vvcurveto
          -6 9 -79 -6 rlineto
          -75 -11 -15 -12 -94 hhcurveto
          -45 -5 6 41 hvcurveto
          -211 -52 rmoveto
          -74 -40 66 142 103 39 52 69 72 29 -18 -61 hvcurveto
          -1 -193 rlineto
          -65 -29 -26 -65 vhcurveto
          endchar
        </CharString>
        <CharString name="ogonek">
          -241 71 212 -20 hstem
          288 -43 callsubr
          39 27 34 79 91 vhcurveto
          -54 hlineto
          -85 -84 -48 -54 -54 -41 callsubr
          endchar
        </CharString>
        <CharString name="ograve">
          -16 callsubr
          205 -20 hstem
          -98 callgsubr
          -130 629 -97 callsubr
        </CharString>
        <CharString name="ohungarumlaut">
          -16 callsubr
          205 -20 hstem
          -98 callgsubr
          67 661 -86 callsubr
        </CharString>
        <CharString name="omacron">
          -16 callsubr
          56 86 6 48 callsubr
          -98 callgsubr
          164 667 rmoveto
          hintmask 11100000
          -89 callsubr
        </CharString>
        <CharString name="one">
          -187 0 65 445 -20 hstem
          256 402 rmoveto
          5 41 10 18 23 19 -10 30 rcurveline
          -2 -37 -7 -13 -97 hvcurveto
          -47 -7 -52 -6 -22 -2 -6 -57 rcurveline
          6 -7 rlineto
          0 31 5 19 36 15 -9 -48 vhcurveto
          -215 vlineto
          -66 -21 -20 -68 -6 vhcurveto
          -8 -63 rlineto
          -1 93 12 63 50 93 -4 0 vhcurveto
          11 67 -2 5 rlineto
          0 -25 -3 -24 -33 -11 18 49 91 3 100 7 79 vhcurveto
          endchar
        </CharString>
        <CharString name="one.dnom">
          -287 0 48 -34 -21 396 -9 callgsubr
          190 316 -56 callsubr
        </CharString>
        <CharString name="one.lf">
          -186 0 65 -55 -21 515 -20 114 -20 hstemhm
          hintmask 01110000
          257 490 rmoveto
          5 41 9 18 24 20 -11 29 rcurveline
          -1 -38 -7 -13 -97 hvcurveto
          -47 -7 -52 -6 -21 -1 -6 -58 rcurveline
          5 -7 rlineto
          0 31 5 20 36 14 -8 -49 vhcurveto
          -301 vlineto
          -68 -20 -20 -69 -6 vhcurveto
          -7 -63 rlineto
          hintmask 10110000
          0 93 11 62 51 93 -4 0 vhcurveto
          11 67 50 callgsubr
          -25 -3 -24 -33 -11 18 49 107 5 176 6 75 vhcurveto
          endchar
        </CharString>
        <CharString name="one.numr">
          -287 275 -21 395 -20 hstem
          -83 callsubr
          endchar
        </CharString>
        <CharString name="one.sinf">
          -287 -120 48 -34 -21 396 -9 callgsubr
          190 196 -56 callsubr
        </CharString>
        <CharString name="one.sups">
          -287 339 40 -26 -21 396 -31 callsubr
          190 656 rmoveto
          4 25 7 12 15 12 -9 23 rcurveline
          -1 -36 -6 -7 -63 hvcurveto
          -30 -4 -32 -4 -21 -2 -4 -43 rcurveline
          4 -4 11 callgsubr
          -6 -31 vhcurveto
          -197 vlineto
          -32 -18 -12 -41 -3 vhcurveto
          hintmask 01100000
          -5 -47 31 callsubr
          67 7 45 34 64 -2 -17 callgsubr
          49 -3 3 rlineto
          0 -15 -1 -15 -21 -8 12 31 86 3 100 5 39 vhcurveto
          endchar
        </CharString>
        <CharString name="one.tf">
          -97 0 52 -42 -21 515 -20 114 49 callsubr
          301 490 rmoveto
          6 41 10 18 28 20 -11 29 rcurveline
          -1 -31 -7 -13 -112 hvcurveto
          -54 -7 -63 -6 -16 -1 -7 -58 rcurveline
          6 -7 rlineto
          0 36 5 23 40 19 -8 -49 vhcurveto
          -301 vlineto
          -68 -21 -20 -82 -6 vhcurveto
          hintmask 01110000
          -8 -63 rlineto
          hintmask 10110000
          0 101 11 67 57 103 35 callsubr
          -40 -12 18 49 107 4 176 6 75 vhcurveto
          endchar
        </CharString>
        <CharString name="one.tosf">
          -107 0 52 458 -20 hstem
          295 402 rmoveto
          5 41 11 18 27 19 -11 30 rcurveline
          -1 -30 -7 -13 -111 hvcurveto
          -54 -7 -61 -6 -17 -2 -7 -57 rcurveline
          6 -7 rlineto
          0 35 5 23 39 19 -9 -48 vhcurveto
          -215 vlineto
          -66 -22 -20 -79 -6 vhcurveto
          -8 -63 rlineto
          -1 100 12 66 57 102 35 callsubr
          -39 -12 18 49 91 3 100 7 79 vhcurveto
          endchar
        </CharString>
        <CharString name="onedotenleader">
          -314 -11 158 hstem
          116 -11 rmoveto
          -73 callgsubr
          endchar
        </CharString>
        <CharString name="onehalf">
          240 -72 -21 93 71 0 230 348 -20 49 -20 hstemhm
          hintmask 11011000
          -83 callsubr
          436 76 -85 callgsubr
          -165 -640 rmoveto
          55 6 rlineto
          65 157 -6 0 hvcurveto
          11 9 rlineto
          4 55 14 77 0 vvcurveto
          -61 -5 rlineto
          -46 -7 -13 -13 -39 hhcurveto
          -57 hlineto
          -3 5 rlineto
          99 107 34 57 55 vvcurveto
          56 -48 38 -72 -51 -56 -33 29 callsubr
          hintmask 10111000
          35 26 30 18 -38 callsubr
        </CharString>
        <CharString name="onequarter">
          210 -72 -21 253 101 388 -20 49 -20 hstem
          -83 callsubr
          436 76 -85 callgsubr
          -199 -538 -82 callgsubr
        </CharString>
        <CharString name="ordfeminine">
          -74 callgsubr
        </CharString>
        <CharString name="ordmasculine">
          -41 callgsubr
        </CharString>
        <CharString name="oslash">
          18 -66 -21 78 77 357 85 65 -71 callsubr
          endchar
        </CharString>
        <CharString name="oslashacute">
          18 -66 -21 78 77 357 85 219 -71 callsubr
          257 375 -106 callsubr
        </CharString>
        <CharString name="otilde">
          -16 callsubr
          53 -14 callsubr
          hintmask 11010100
          -98 callgsubr
          -111 554 -2 callgsubr
          hintmask 11100100
          -74 callsubr
          hintmask 11001000
          -60 callgsubr
        </CharString>
        <CharString name="p">
          -52 0 57 -42 -21 435 76 -60 60 -4 -20 21 -20 hstemhm
          hintmask 01010000
          40 450 rmoveto
          6 -6 rlineto
          37 callsubr
          -10 -32 vhcurveto
          -286 vlineto
          -43 -13 -15 -43 -7 vhcurveto
          -7 -58 rlineto
          hintmask 10100000
          1 100 6 41 hhcurveto
          32 80 -2 0 hvcurveto
          8 55 50 callgsubr
          -21 -1 -14 -33 -6 12 52 vhcurveto
          51 71 vlineto
          106 93 85 94 71 -40 83 -165 hvcurveto
          hintmask 10001000
          0 -100 -4 -31 vhcurveto
          hintmask 10000100
          -37 -46 1 -25 hhcurveto
          176 -252 rmoveto
          2 55 3 59 3 50 rrcurveto
          hintmask 10100000
          13 1 2 2 14 hhcurveto
          78 34 -27 -61 -57 -22 -33 -46 -10 hvcurveto
          endchar
        </CharString>
        <CharString name="p.sups">
          -173 190 47 -29 -21 22 -21 146 62 177 74 3 -20 hstemhm
          hintmask 01011000
          30 234 rmoveto
          -6 -47 rlineto
          hintmask 10011000
          0 48 3 37 vhcurveto
          hintmask 00111000
          28 55 -2 7 hhcurveto
          7 48 -1 3 rlineto
          hintmask 10011000
          -3 -15 -2 -11 hhcurveto
          -19 -2 11 31 hvcurveto
          56 vlineto
          0 12 -1 7 109 72 62 106 88 -52 57 -81 -7 -22 -18 -32 -32 vhcurveto
          -3 2 rlineto
          2 21 5 23 0 vvcurveto
          hintmask 10010100
          -6 -24 callsubr
          -178 vlineto
          -1 -30 -1 -39 -2 -27 rrcurveto
          -28 -5 -7 -24 -2 vhcurveto
          128 170 rmoveto
          44 2 62 2 50 vhcurveto
          hintmask 10011000
          8 12 14 5 11 hhcurveto
          34 20 -34 -63 -52 -19 -28 -34 -18 -18 6 2 -6 hvcurveto
          endchar
        </CharString>
        <CharString name="paragraph">
          15 -100 76 601 69 -4 -31 callsubr
          330 121 rmoveto
          -106 -19 -39 -71 -54 -39 46 83 -4 vhcurveto
          -16 hlineto
          -23 -28 -19 -49 -31 vvcurveto
          -59 67 -38 73 152 79 115 156 84 5 227 7 51 vhcurveto
          3 34 10 8 50 4 2 4 rcurveline
          6 62 rlineto
          0 -109 -3 -35 vhcurveto
          hintmask 11000000
          -35 -58 4 -51 hhcurveto
          -136 -91 -92 -120 -144 114 -79 150 -6 hvcurveto
          24 vlineto
          -45 62 -19 53 89 vvcurveto
          88 26 56 53 25 2 -2 -13 vhcurveto
          endchar
        </CharString>
        <CharString name="parenleft">
          -243 -125 -21 795 -20 hstem
          70 163 rmoveto
          -242 175 -67 0 vhcurveto
          8 hlineto
          41 42 rlineto
          8 vlineto
          0 -114 65 209 vvcurveto
          173 vlineto
          192 109 54 0 vhcurveto
          1 6 -31 46 rlineto
          -11 hlineto
          0 -178 -68 -245 vvcurveto
          endchar
        </CharString>
        <CharString name="parenright">
          -243 -125 -21 795 -20 hstem
          239 340 rmoveto
          242 -175 67 -53 callgsubr
          hlineto
          -41 -42 rlineto
          -8 vlineto
          0 114 -65 -209 vvcurveto
          -173 vlineto
          -192 -109 -54 0 vhcurveto
          -1 -6 31 -46 rlineto
          11 hlineto
          0 178 68 245 vvcurveto
          endchar
        </CharString>
        <CharString name="partialdiff">
          -43 -13 77 310 88 279 -20 hstem
          291 438 rmoveto
          0 -38 20 -23 4 vhcurveto
          -114 -87 -109 -144 -126 74 -96 141 143 93 108 154 220 -167 175 -231 97 hvcurveto
          -13 -6 -32 -56 122 -67 87 -72 48 -97 rlinecurve
          50 -240 rmoveto
          -94 -28 -45 -49 -70 -35 61 107 106 28 36 61 46 23 -20 -9 10 vhcurveto
          9 -42 5 -47 -53 vvcurveto
          endchar
        </CharString>
        <CharString name="percent">
          161 -30 callsubr
          100 57 77 106 93 -46 69 -95 -96 -62 -72 -108 -101 52 -64 90 2 callgsubr
          -38 -14 -43 vhcurveto
          -12 -100 rmoveto
          99 58 77 106 93 -47 69 -94 -96 -62 -72 -107 -101 51 -65 91 hvcurveto
          57 665 -85 callgsubr
          endchar
        </CharString>
        <CharString name="period">
          -314 -11 158 hstem
          116 -11 rmoveto
          -73 callgsubr
          endchar
        </CharString>
        <CharString name="periodcentered">
          -314 161 158 hstem
          116 161 8 callgsubr
        </CharString>
        <CharString name="perthousand">
          496 -30 callsubr
          97 60 74 109 95 -49 67 -92 -93 -65 -69 -111 -104 55 -61 87 2 callgsubr
          -37 -14 -44 vhcurveto
          35 callgsubr
          -94 -64 -69 -110 -105 54 -61 88 hvcurveto
          347 100 rmoveto
          -51 -40 22 55 41 27 25 53 60 33 -32 -46 -51 -38 -14 -44 hvcurveto
          35 callgsubr
          -93 -65 -69 -110 -105 54 -61 88 hvcurveto
          -278 665 -85 callgsubr
          endchar
        </CharString>
        <CharString name="pi">
          69 -77 -21 86 104 329 74 10 49 callgsubr
          473 178 rmoveto
          38 5 78 6 72 vhcurveto
          46 5 15 9 78 hhcurveto
          7 7 13 70 rlineto
          hintmask 11010000
          -6 7 rlineto
          hintmask 11100000
          0 -103 -10 -71 vhcurveto
          hintmask 11010000
          -59 -171 10 -114 hhcurveto
          -15 -7 -74 -87 -1 -8 31 -42 8 1 rlineto
          0 37 50 29 25 7 -11 -40 -168 -9 -261 -6 -16 vhcurveto
          7 -14 118 22 7 10 rlineto
          0 -3 51 48 vvcurveto
          73 5 193 3 75 vhcurveto
          40 2 5 4 47 hhcurveto
          55 5 -6 -43 hvcurveto
          -3 -250 rlineto
          -90 39 -41 88 15 66 72 17 vhcurveto
          -9 15 rlineto
          -64 -20 21 65 hvcurveto
          endchar
        </CharString>
        <CharString name="plus">
          -46 45 -21 183 99 191 -20 hstem
          292 497 rmoveto
          -89 -11 -1 -180 rlineto
          -81 -90 1 0 hvcurveto
          -14 -90 7 -11 rlineto
          0 95 1 83 vhcurveto
          -1 -82 0 -93 0 vvcurveto
          11 -8 88 15 rlineto
          0 -1 88 80 vvcurveto
          180 1 10 92 -7 12 rlineto
          0 -105 -5 -78 -1 vhcurveto
          1 78 5 106 -39 callsubr
        </CharString>
        <CharString name="plusminus">
          -46 -97 88 -69 -21 323 100 185 49 callsubr
          292 509 rmoveto
          -89 -11 rlineto
          -58 -1 -58 -58 vvcurveto
          -81 -90 1 0 hvcurveto
          -14 -91 7 -11 rlineto
          0 95 1 83 vhcurveto
          -1 -81 0 -89 0 vvcurveto
          11 -7 88 14 rlineto
          0 -1 85 78 vvcurveto
          59 61 1 60 hhcurveto
          10 92 -7 13 rlineto
          0 -105 -5 -78 -1 vhcurveto
          1 77 5 101 0 vvcurveto
          168 -507 rmoveto
          -1 -28 -1 -53 -1 vhcurveto
          -1 -41 -46 0 -38 hhcurveto
          -232 hlineto
          -11 -76 rlineto
          hintmask 01110000
          9 -14 rlineto
          hintmask 10110000
          87 200 2 150 hhcurveto
          11 77 rlineto
          endchar
        </CharString>
        <CharString name="product">
          161 0 65 -53 -21 583 68 7 48 callgsubr
          607 525 rmoveto
          3 37 11 10 51 7 5 70 rcurveline
          hintmask 01100000
          -2 -1 -121 -5 -40 hhcurveto
          -327 hlineto
          -41 -98 4 0 hvcurveto
          -8 -65 -36 callsubr
          0 21 1 14 -13 callgsubr
          -127 -1 -128 -127 vvcurveto
          -57 -16 -15 -57 -26 callsubr
          hintmask 10100000
          3 1 103 6 57 hhcurveto
          42 81 -4 1 hvcurveto
          -43 callgsubr
          -16 -2 -15 -1 vhcurveto
          -8 -7 1 2 -8 hvcurveto
          -18 4 -4 16 45 vvcurveto
          91 5 154 7 140 vhcurveto
          40 2 16 9 73 hhcurveto
          95 18 1 -53 hvcurveto
          -375 vlineto
          -57 -15 -15 -54 -12 vhcurveto
          hintmask 01100000
          -7 -65 31 callsubr
          81 9 55 44 104 -3 0 vhcurveto
          -43 callgsubr
          -20 -3 -23 -30 -8 14 54 99 5 163 7 130 vhcurveto
          endchar
        </CharString>
        <CharString name="q">
          22 -182 108 65 77 357 85 hstem
          269 -9 rmoveto
          -146 180 45 -27 72 hhcurveto
          25 94 70 0 hvcurveto
          -10 39 -8 -27 callsubr
          -34 -8 -37 -59 -71 27 55 -82 vhcurveto
          8 vlineto
          94 40 63 92 117 vvcurveto
          156 -88 89 -153 -166 -105 -104 -167 -156 90 -92 150 vhcurveto
          19 77 rmoveto
          -75 -40 66 138 102 37 51 68 77 42 -65 -138 -102 -40 -52 -69 hvcurveto
          endchar
        </CharString>
        <CharString name="q.sups">
          -190 190 45 -26 -21 146 70 181 62 12 -20 hstemhm
          hintmask 01110000
          163 188 rmoveto
          hintmask 10101000
          0 54 2 33 vhcurveto
          96 hlineto
          4 47 -1 2 rlineto
          -18 hlineto
          -16 -3 6 30 205 6 153 9 18 hvcurveto
          -9 8 rlineto
          0 -20 -8 -27 -10 vhcurveto
          hintmask 10110000
          4 -31 -27 2 -21 hhcurveto
          -101 -68 -67 -100 -92 48 -54 78 7 24 14 29 39 hvcurveto
          -2 -102 -1 -32 -8 -6 -40 -2 rlinecurve
          hintmask 01110000
          51 184 rmoveto
          0 -17 -15 -22 -34 -21 37 63 41 callsubr
        </CharString>
        <CharString name="question">
          -182 -11 158 453 105 hstem
          101 221 rmoveto
          12 -6 88 18 6 11 -15 83 3 7 rlineto
          103 70 62 36 91 vvcurveto
          96 -113 74 -146 4 vhcurveto
          -15 -7 -37 -84 8 -14 rlineto
          113 -6 70 -34 -64 vvcurveto
          -30 -21 -23 -31 -19 vhcurveto
          -108 -63 -3 -14 rlineto
          75 -358 rmoveto
          27 callgsubr
          45 -27 30 -47 -50 -32 -34 -48 -45 26 -31 49 hvcurveto
          endchar
        </CharString>
        <CharString name="questiondown">
          -182 -242 105 453 158 hstem
          269 242 rmoveto
          -12 6 -88 -18 -6 -11 15 -83 -3 -7 rlineto
          -103 -71 -62 -35 -91 vvcurveto
          -96 113 -74 146 -4 vhcurveto
          15 7 37 84 -8 14 rlineto
          -112 6 -71 34 64 vvcurveto
          30 21 23 31 19 vhcurveto
          108 63 3 14 rlineto
          -75 358 rmoveto
          -50 -31 -34 -49 -44 27 -31 47 50 32 34 48 45 -26 31 -49 hvcurveto
          endchar
        </CharString>
        <CharString name="quotedbl">
          -231 -18 callgsubr
          137 10 -40 callsubr
          106 15 110 -39 callsubr
        </CharString>
        <CharString name="quotedblbase">
          -131 -104 43 callsubr
          46 94 12 callsubr
          79 44 68 67 71 vvcurveto
          52 -29 33 -40 -25 -30 -16 -18 -24 vhcurveto
          179 -14 12 callsubr
          78 44 69 67 71 vvcurveto
          52 -29 33 -40 -25 -30 -16 -18 -24 vhcurveto
          endchar
        </CharString>
        <CharString name="quotedblleft">
          -150 22 callgsubr
          362 436 -47 callgsubr
          -182 14 -47 callgsubr
          endchar
        </CharString>
        <CharString name="quotedblright">
          -150 22 callgsubr
          223 605 -47 callsubr
          -187 -14 -47 callsubr
          endchar
        </CharString>
        <CharString name="quoteleft">
          -334 22 callgsubr
          178 436 -47 callgsubr
          endchar
        </CharString>
        <CharString name="quoteright">
          -334 22 callgsubr
          39 605 -47 callsubr
          endchar
        </CharString>
        <CharString name="quotesinglbase">
          -314 -119 -21 282 -20 hstem
          -50 callgsubr
          endchar
        </CharString>
        <CharString name="quotesingle">
          -376 -18 callgsubr
          endchar
        </CharString>
        <CharString name="r">
          -5 callsubr
          hstemhm
          hintmask 01001000
          -75 callsubr
          hintmask 10000100
          -23 callsubr
          hintmask 00101000
          -65 callgsubr
          hintmask 10010000
          -67 callsubr
          endchar
        </CharString>
        <CharString name="r.sups">
          -250 339 50 -32 -21 221 87 6 -9 callgsubr
          33 384 rmoveto
          -6 -48 31 callsubr
          49 3 41 34 61 -2 0 vhcurveto
          8 50 -3 4 rlineto
          0 -21 -2 -13 -18 -6 7 19 10 7 111 0 vhcurveto
          13 11 13 8 12 hhcurveto
          15 4 -11 -44 hvcurveto
          52 3 rlineto
          3 59 12 72 0 vvcurveto
          -4 6 rlineto
          0 -12 2 -12 -33 -31 -21 -40 -29 vhcurveto
          -5 3 rlineto
          1 26 7 31 0 vvcurveto
          hintmask 10010000
          -7 -27 callsubr
          -70 -13 -67 -10 vhcurveto
          -4 -40 4 -4 rlineto
          11 hlineto
          24 6 -8 -30 hvcurveto
          -121 vlineto
          -30 -7 -9 -27 -1 vhcurveto
          endchar
        </CharString>
        <CharString name="racute">
          -5 callsubr
          234 -78 callsubr
          148 372 -106 callsubr
        </CharString>
        <CharString name="radical">
          -47 9 -21 754 -20 hstem
          71 344 rmoveto
          26 -78 86 -278 0 vvcurveto
          136 16 219 738 rlineto
          -79 hlineto
          -21 -16 -170 -611 rlineto
          -12 hlineto
          0 -76 283 -7 62 vhcurveto
          -7 8 -65 -7 rlineto
          -36 -3 -62 -4 -42 callsubr
          -59 2 -4 37 1 23 -9 13 -39 rlinecurve
          endchar
        </CharString>
        <CharString name="rcaron">
          -5 callsubr
          242 -78 callsubr
          126 458 -104 callsubr
        </CharString>
</ttFont>
